<svg width="4" height="18" viewBox="0 0 4 18" fill="none" xmlns="http://www.w3.org/2000/svg">
<g id="SVGRepo_iconCarrier">
<path id="XMLID_294_" d="M0.125 9C0.125 10.0338 0.96625 10.875 2 10.875C3.03375 10.875 3.875 10.0338 3.875 9C3.875 7.96625 3.03375 7.125 2 7.125C0.96625 7.125 0.125 7.96625 0.125 9Z" fill="#D1D4D7"/>
<path id="XMLID_295_" d="M0.125 15.25C0.125 16.2838 0.96625 17.125 2 17.125C3.03375 17.125 3.875 16.2838 3.875 15.25C3.875 14.2162 3.03375 13.375 2 13.375C0.96625 13.375 0.125 14.2162 0.125 15.25Z" fill="#D1D4D7"/>
<path id="XMLID_297_" d="M0.125 2.75C0.125 3.78375 0.96625 4.625 2 4.625C3.03375 4.625 3.875 3.78375 3.875 2.75C3.875 1.71625 3.03375 0.875 2 0.875C0.96625 0.875 0.125 1.71625 0.125 2.75Z" fill="#D1D4D7"/>
</g>
</svg>
