<svg width="31" height="31" viewBox="0 0 31 31" fill="none" xmlns="http://www.w3.org/2000/svg">
<g id="SVGRepo_iconCarrier">
<path id="Vector" d="M7.47632 23.9355C8.03388 25.6019 9.34092 27.0149 11.1479 27.6615C12.9548 28.3081 14.8615 28.0453 16.3498 27.111C13.2617 26.4562 10.2787 25.3887 7.47632 23.9355Z" fill="#537EE4"/>
<path id="Vector_2" d="M25.0136 14.7888L24.7072 15.645C24.3394 16.6727 24.2732 17.7823 24.5169 18.8339L25.1138 21.4113C25.6591 23.7654 23.7891 26.0306 21.4328 25.8702C15.2692 25.4504 9.36539 23.3377 4.33481 19.7515C2.41185 18.3806 2.40363 15.4431 4.31869 13.9695L6.41536 12.3561C7.27091 11.6978 7.92371 10.7981 8.29146 9.77049L8.59789 8.91421C10.2804 4.21263 15.3192 1.7163 19.8522 3.33852C24.3853 4.96072 26.6961 10.0872 25.0136 14.7888Z" fill="#537EE4"/>
</g>
</svg>
