<svg width="25" height="27" viewBox="0 0 25 27" fill="none" xmlns="http://www.w3.org/2000/svg">
<g id="SVGRepo_iconCarrier">
<path id="Vector" fill-rule="evenodd" clip-rule="evenodd" d="M11.558 0.583374C9.74537 0.583374 8.27589 2.05285 8.27589 3.86555C8.27589 4.12825 8.09473 4.47874 7.66175 4.71389C7.52852 4.78625 7.39712 4.8615 7.26764 4.93956C6.83581 5.19988 6.43043 5.18317 6.19243 5.04699C4.61169 4.14254 2.59734 4.68226 1.68058 6.2559L0.7707 7.8177C-0.147817 9.39436 0.394244 11.4175 1.97802 12.3236C2.20764 12.4551 2.42354 12.7892 2.41303 13.2864C2.41153 13.3574 2.41077 13.4287 2.41077 13.5C2.41077 13.5715 2.41153 13.6426 2.41303 13.7137C2.42354 14.211 2.20765 14.5451 1.97805 14.6765C0.394283 15.5826 -0.147778 17.6057 0.770739 19.1823L1.68064 20.7442C2.5974 22.3179 4.61173 22.8575 6.19247 21.9531C6.43047 21.817 6.83582 21.8002 7.26764 22.0606C7.39712 22.1386 7.52852 22.2139 7.66175 22.2862C8.09473 22.5213 8.27589 22.8719 8.27589 23.1346C8.27589 24.9472 9.74537 26.4167 11.558 26.4167H13.4422C15.2549 26.4167 16.7243 24.9472 16.7243 23.1346C16.7243 22.8719 16.9055 22.5213 17.3385 22.2862C17.4717 22.2139 17.6031 22.1386 17.7326 22.0606C18.1644 21.8002 18.5697 21.817 18.8078 21.9531C20.3885 22.8575 22.4028 22.3179 23.3195 20.7442L24.2295 19.1823C25.148 17.6057 24.6059 15.5826 23.0222 14.6765C22.7925 14.5451 22.5767 14.211 22.5872 13.7137C22.5887 13.6426 22.5895 13.5713 22.5895 13.5C22.5895 13.4287 22.5887 13.3574 22.5872 13.2864C22.5767 12.7891 22.7925 12.455 23.0222 12.3236C24.606 11.4175 25.148 9.39435 24.2295 7.81769L23.3197 6.25588C22.4028 4.68225 20.3885 4.14252 18.8078 5.04697C18.5698 5.18317 18.1644 5.19987 17.7326 4.93955C17.6031 4.86149 17.4718 4.78625 17.3385 4.71389C16.9055 4.47874 16.7243 4.12825 16.7243 3.86555C16.7243 2.05285 15.2549 0.583374 13.4422 0.583374H11.558ZM12.5 9.62504C10.3599 9.62504 8.62503 11.3599 8.62503 13.5C8.62503 15.6402 10.3599 17.375 12.5 17.375C14.6402 17.375 16.375 15.6402 16.375 13.5C16.375 11.3599 14.6402 9.62504 12.5 9.62504Z" fill="#D1D4D7"/>
</g>
</svg>
