<svg width="25" height="27" viewBox="0 0 25 27" fill="none" xmlns="http://www.w3.org/2000/svg">
<g id="SVGRepo_iconCarrier">
<path id="Vector" d="M2.16667 19.959H7.18092L4.88562 24.5483C4.8098 24.7001 4.76463 24.8654 4.75267 25.0346C4.74072 25.2039 4.76222 25.3739 4.81596 25.5348C4.86969 25.6958 4.9546 25.8446 5.06584 25.9727C5.17708 26.1009 5.31248 26.2059 5.46429 26.2817C5.61611 26.3575 5.78137 26.4027 5.95064 26.4146C6.11991 26.4266 6.28988 26.4051 6.45085 26.3514C6.61181 26.2976 6.76061 26.2127 6.88876 26.1015C7.0169 25.9902 7.12189 25.8548 7.19771 25.703L9.78104 20.5364C9.86678 20.3562 9.90882 20.1584 9.90375 19.959H11.2083V23.834C11.2083 24.1766 11.3444 24.5051 11.5867 24.7473C11.8289 24.9896 12.1574 25.1257 12.5 25.1257C12.8426 25.1257 13.1711 24.9896 13.4133 24.7473C13.6556 24.5051 13.7917 24.1766 13.7917 23.834V19.959H15.0962C15.0932 20.1589 15.1374 20.3568 15.2254 20.5364L17.8088 25.703C17.8846 25.8548 17.9896 25.9902 18.1177 26.1015C18.2458 26.2127 18.3946 26.2976 18.5556 26.3514C18.7166 26.4051 18.8865 26.4266 19.0558 26.4146C19.2251 26.4027 19.3904 26.3575 19.5422 26.2817C19.694 26.2059 19.8294 26.1009 19.9406 25.9727C20.0519 25.8446 20.1368 25.6958 20.1905 25.5348C20.2442 25.3739 20.2657 25.2039 20.2538 25.0346C20.2418 24.8654 20.1967 24.7001 20.1208 24.5483L17.8191 19.959H22.8333C23.1759 19.959 23.5044 19.8229 23.7467 19.5807C23.9889 19.3384 24.125 19.0099 24.125 18.6673V5.75065C24.125 5.40808 23.9889 5.07954 23.7467 4.83731C23.5044 4.59507 23.1759 4.45898 22.8333 4.45898H13.7917V1.87565C13.7917 1.53308 13.6556 1.20454 13.4133 0.962305C13.1711 0.72007 12.8426 0.583984 12.5 0.583984C12.1574 0.583984 11.8289 0.72007 11.5867 0.962305C11.3444 1.20454 11.2083 1.53308 11.2083 1.87565V4.45898H2.16667C1.8241 4.45898 1.49555 4.59507 1.25332 4.83731C1.01109 5.07954 0.875 5.40808 0.875 5.75065V18.6673C0.875 19.0099 1.01109 19.3384 1.25332 19.5807C1.49555 19.8229 1.8241 19.959 2.16667 19.959ZM16.375 9.62565C16.375 9.28308 16.5111 8.95454 16.7533 8.71231C16.9956 8.47007 17.3241 8.33398 17.6667 8.33398C18.0092 8.33398 18.3378 8.47007 18.58 8.71231C18.8222 8.95454 18.9583 9.28308 18.9583 9.62565V14.7923C18.9583 15.1349 18.8222 15.4634 18.58 15.7057C18.3378 15.9479 18.0092 16.084 17.6667 16.084C17.3241 16.084 16.9956 15.9479 16.7533 15.7057C16.5111 15.4634 16.375 15.1349 16.375 14.7923V9.62565ZM11.2083 10.9173C11.2083 10.5747 11.3444 10.2462 11.5867 10.004C11.8289 9.76174 12.1574 9.62565 12.5 9.62565C12.8426 9.62565 13.1711 9.76174 13.4133 10.004C13.6556 10.2462 13.7917 10.5747 13.7917 10.9173V14.7923C13.7917 15.1349 13.6556 15.4634 13.4133 15.7057C13.1711 15.9479 12.8426 16.084 12.5 16.084C12.1574 16.084 11.8289 15.9479 11.5867 15.7057C11.3444 15.4634 11.2083 15.1349 11.2083 14.7923V10.9173ZM6.04167 12.209C6.04167 11.8664 6.17775 11.5379 6.41999 11.2956C6.66222 11.0534 6.99076 10.9173 7.33333 10.9173C7.6759 10.9173 8.00444 11.0534 8.24668 11.2956C8.48891 11.5379 8.625 11.8664 8.625 12.209V14.7923C8.625 15.1349 8.48891 15.4634 8.24668 15.7057C8.00444 15.9479 7.6759 16.084 7.33333 16.084C6.99076 16.084 6.66222 15.9479 6.41999 15.7057C6.17775 15.4634 6.04167 15.1349 6.04167 14.7923V12.209Z" fill="#D1D4D7"/>
</g>
</svg>
