<svg width="24" height="22" viewBox="0 0 24 22" fill="none" xmlns="http://www.w3.org/2000/svg">
<g id="Property 1=Default">
<path id="users-Filled" d="M24 17.8612V18.5054C24.0021 19.4335 23.6855 20.3342 23.1032 21.0569C22.9893 21.1929 22.8459 21.3012 22.684 21.3734C22.522 21.4456 22.3457 21.48 22.1684 21.4738H18.7832C19.3044 20.5713 19.5788 19.5475 19.579 18.5054V17.8612C19.5846 16.1016 18.9415 14.4017 17.7726 13.0864C17.8561 13.0562 17.9364 13.0182 18.0126 12.9727C18.6171 12.6388 19.3249 12.5441 19.9958 12.7075C21.1421 12.9975 22.1587 13.662 22.8841 14.5958C23.6096 15.5295 24.0023 16.6787 24 17.8612ZM15.1579 0.000157558C14.7628 -0.00293293 14.3686 0.0394508 13.9832 0.126473C14.7516 0.834026 15.365 1.69325 15.7846 2.64988C16.2042 3.60651 16.4208 4.63976 16.4208 5.68435C16.4208 6.72894 16.2042 7.76219 15.7846 8.71882C15.365 9.67545 14.7516 10.5347 13.9832 11.2422C14.3686 11.3292 14.7628 11.3716 15.1579 11.3685C16.6655 11.3685 18.1112 10.7697 19.1772 9.70368C20.2432 8.63769 20.8421 7.19189 20.8421 5.68435C20.8421 4.17681 20.2432 2.73101 19.1772 1.66502C18.1112 0.599026 16.6655 0.000157558 15.1579 0.000157558ZM8.84215 0.000157558C7.71792 0.000157558 6.61894 0.333529 5.68418 0.958116C4.74942 1.5827 4.02086 2.47045 3.59064 3.5091C3.16042 4.54775 3.04785 5.69066 3.26718 6.79328C3.4865 7.89591 4.02787 8.90873 4.82282 9.70368C5.61776 10.4986 6.63059 11.04 7.73322 11.2593C8.83584 11.4786 9.97874 11.3661 11.0174 10.9359C12.056 10.5056 12.9438 9.77708 13.5684 8.84232C14.193 7.90756 14.5263 6.80858 14.5263 5.68435C14.524 4.17753 13.9244 2.73309 12.8589 1.6676C11.7934 0.602116 10.349 0.00249605 8.84215 0.000157558ZM13.68 12.7075C13.4604 12.6574 13.2358 12.6319 13.0106 12.6317C12.5503 12.6276 12.0971 12.7453 11.6969 12.9727C10.8238 13.4432 9.84806 13.6905 8.85636 13.6927C7.86466 13.6949 6.8878 13.4519 6.01268 12.9854C5.59866 12.7567 5.13406 12.6351 4.66111 12.6317C4.4658 12.6333 4.27115 12.6544 4.08006 12.6949C2.91509 12.966 1.87683 13.625 1.13552 14.5637C0.394207 15.5023 -0.00615772 16.6651 7.1608e-05 17.8612V18.5054C-0.00201604 19.4335 0.314574 20.3342 0.896911 21.0569C1.01075 21.1929 1.15411 21.3012 1.31609 21.3734C1.47807 21.4456 1.6544 21.48 1.83164 21.4738H15.8526C16.0299 21.48 16.2062 21.4456 16.3682 21.3734C16.5302 21.3012 16.6735 21.1929 16.7874 21.0569C17.3697 20.3342 17.6863 19.4335 17.6842 18.5054V17.8612C17.6865 16.6787 17.2938 15.5295 16.5684 14.5958C15.8429 13.662 14.8263 12.9975 13.68 12.7075Z" fill="#D1D4D7"/>
</g>
</svg>
