<svg width="25" height="25" viewBox="0 0 25 25" fill="none" xmlns="http://www.w3.org/2000/svg">
<g id="SVGRepo_iconCarrier">
<path id="Vector" fill-rule="evenodd" clip-rule="evenodd" d="M2.08333 0H7.29167C8.44226 0 9.375 0.932739 9.375 2.08333V7.29167C9.375 8.44226 8.44226 9.375 7.29167 9.375H2.08333C0.932739 9.375 0 8.44226 0 7.29167V2.08333C0 0.932739 0.932739 0 2.08333 0ZM2.08333 11.4583H7.29167C8.44226 11.4583 9.375 12.391 9.375 13.5417V22.9167C9.375 24.0673 8.44226 25 7.29167 25H2.08333C0.932739 25 0 24.0673 0 22.9167V13.5417C0 12.391 0.932739 11.4583 2.08333 11.4583ZM13.5417 0H22.9167C24.0673 0 25 0.932739 25 2.08333V13.5417C25 14.6923 24.0673 15.625 22.9167 15.625H13.5417C12.391 15.625 11.4583 14.6923 11.4583 13.5417V2.08333C11.4583 0.932739 12.391 0 13.5417 0ZM13.5417 17.7083H22.9167C24.0673 17.7083 25 18.641 25 19.7917V22.9167C25 24.0673 24.0673 25 22.9167 25H13.5417C12.391 25 11.4583 24.0673 11.4583 22.9167V19.7917C11.4583 18.641 12.391 17.7083 13.5417 17.7083Z" fill="#D1D4D7"/>
</g>
</svg>
