<svg width="146" height="145" viewBox="0 0 146 145" fill="none" xmlns="http://www.w3.org/2000/svg">
<path d="M135.5 72.5C135.5 84.8613 131.834 96.945 124.967 107.223C118.099 117.501 108.338 125.512 96.9178 130.242C85.4974 134.973 72.9307 136.211 60.8069 133.799C48.6831 131.388 37.5467 125.435 28.8059 116.694C20.0651 107.953 14.1125 96.817 11.701 84.6932C9.28936 72.5694 10.527 60.0028 15.2575 48.5824C19.9879 37.162 27.9987 27.4008 38.2767 20.5332C48.5548 13.6656 60.6385 10 72.9998 10" stroke="#C2DE8F" stroke-width="20"/>
<path d="M73 10C85.3613 10 97.445 13.6656 107.723 20.5331C118.001 27.4007 126.012 37.1619 130.742 48.5822C135.473 60.0026 136.711 72.5693 134.299 84.6931C131.888 96.8169 125.935 107.953 117.194 116.694C108.453 125.435 97.317 131.387 85.1932 133.799C73.0694 136.211 60.5028 134.973 49.0824 130.243C37.662 125.512 27.9008 117.501 21.0332 107.223C14.1656 96.9452 10.5 84.8615 10.5 72.5002" stroke="#7BB70C" stroke-width="20" stroke-linecap="round"/>
<path d="M36.2015 81.9975C35.5782 81.9975 35.074 81.86 34.689 81.585C34.304 81.2917 34.084 80.9067 34.029 80.43C33.974 79.9533 34.1023 79.4308 34.414 78.8625L42.0315 65.03V66.4875H34.304C33.6257 66.4875 33.094 66.3133 32.709 65.965C32.3423 65.6167 32.159 65.1033 32.159 64.425C32.159 63.7467 32.3423 63.2333 32.709 62.885C33.094 62.5367 33.6257 62.3625 34.304 62.3625H44.644C45.3223 62.3625 45.8815 62.5458 46.3215 62.9125C46.7798 63.2792 47.009 63.8017 47.009 64.48C47.009 65.0667 46.9173 65.58 46.734 66.02C46.569 66.4417 46.3581 66.8908 46.1015 67.3675L39.0615 80.4025C38.7682 80.9708 38.3923 81.3833 37.934 81.64C37.494 81.8783 36.9165 81.9975 36.2015 81.9975ZM56.0732 82.0525C54.5149 82.0525 53.1674 81.8325 52.0307 81.3925C50.8941 80.9342 50.0232 80.2833 49.4182 79.44C48.8132 78.5967 48.5107 77.5975 48.5107 76.4425C48.5107 75.5075 48.6941 74.6825 49.0607 73.9675C49.4457 73.2525 49.9682 72.675 50.6282 72.235C51.2882 71.7767 52.0399 71.5017 52.8832 71.41V72.2075C51.7466 71.9692 50.8207 71.41 50.1057 70.53C49.3907 69.65 49.0332 68.5958 49.0332 67.3675C49.0332 66.2492 49.3174 65.2958 49.8857 64.5075C50.4541 63.7192 51.2699 63.1142 52.3332 62.6925C53.3966 62.2708 54.6432 62.06 56.0732 62.06C57.5216 62.06 58.7682 62.2708 59.8132 62.6925C60.8766 63.1142 61.6924 63.7192 62.2607 64.5075C62.8291 65.2958 63.1132 66.2492 63.1132 67.3675C63.1132 68.1925 62.9482 68.9533 62.6182 69.65C62.3066 70.3283 61.8666 70.8875 61.2982 71.3275C60.7482 71.7675 60.1066 72.0517 59.3732 72.18V71.41C60.6199 71.5933 61.6374 72.1433 62.4257 73.06C63.2324 73.9583 63.6357 75.0858 63.6357 76.4425C63.6357 77.5975 63.3332 78.5967 62.7282 79.44C62.1232 80.2833 61.2524 80.9342 60.1157 81.3925C58.9974 81.8325 57.6499 82.0525 56.0732 82.0525ZM56.0732 78.2575C57.0449 78.2575 57.7874 78.0742 58.3007 77.7075C58.8141 77.3225 59.0707 76.7725 59.0707 76.0575C59.0707 75.3242 58.8141 74.7742 58.3007 74.4075C57.7874 74.0408 57.0449 73.8575 56.0732 73.8575C55.1016 73.8575 54.3591 74.0408 53.8457 74.4075C53.3324 74.7742 53.0757 75.3242 53.0757 76.0575C53.0757 76.7725 53.3324 77.3225 53.8457 77.7075C54.3591 78.0742 55.1016 78.2575 56.0732 78.2575ZM56.0732 70.035C56.6049 70.035 57.0541 69.9525 57.4207 69.7875C57.7874 69.6225 58.0624 69.3842 58.2457 69.0725C58.4474 68.7425 58.5482 68.3667 58.5482 67.945C58.5482 67.3033 58.3282 66.7992 57.8882 66.4325C57.4482 66.0475 56.8432 65.855 56.0732 65.855C55.3032 65.855 54.6982 66.0475 54.2582 66.4325C53.8366 66.7992 53.6257 67.3033 53.6257 67.945C53.6257 68.5867 53.8366 69.1 54.2582 69.485C54.6982 69.8517 55.3032 70.035 56.0732 70.035ZM68.0525 81.915C67.2275 81.915 66.5675 81.6675 66.0725 81.1725C65.5958 80.6775 65.3575 80.0267 65.3575 79.22C65.3575 78.4317 65.5958 77.7992 66.0725 77.3225C66.5675 76.8275 67.2275 76.58 68.0525 76.58C68.9142 76.58 69.5742 76.8275 70.0325 77.3225C70.5092 77.7992 70.7475 78.4317 70.7475 79.22C70.7475 80.0267 70.5092 80.6775 70.0325 81.1725C69.5742 81.6675 68.9142 81.915 68.0525 81.915ZM80.8252 82.0525C79.1202 82.0525 77.6718 81.6675 76.4802 80.8975C75.3068 80.1275 74.4085 79.0183 73.7852 77.57C73.1618 76.1033 72.8502 74.325 72.8502 72.235C72.8502 70.64 73.0518 69.21 73.4552 67.945C73.8585 66.68 74.4452 65.6167 75.2152 64.755C75.9852 63.875 76.9202 63.2058 78.0202 62.7475C79.1202 62.2892 80.3668 62.06 81.7602 62.06C82.5118 62.06 83.2727 62.1517 84.0427 62.335C84.8127 62.5183 85.546 62.7933 86.2427 63.16C86.6827 63.38 86.9852 63.6825 87.1502 64.0675C87.3152 64.4342 87.3702 64.8283 87.3152 65.25C87.2785 65.6533 87.141 66.02 86.9027 66.35C86.6643 66.6617 86.3435 66.8817 85.9402 67.01C85.5552 67.1383 85.1152 67.0925 84.6202 66.8725C84.0702 66.6158 83.5568 66.4417 83.0802 66.35C82.6035 66.2583 82.1452 66.2125 81.7052 66.2125C80.7885 66.2125 80.0277 66.405 79.4227 66.79C78.8177 67.1567 78.3593 67.725 78.0477 68.495C77.736 69.2467 77.5802 70.1908 77.5802 71.3275V72.7575H77.1677C77.3327 71.9692 77.6352 71.3 78.0752 70.75C78.5152 70.1817 79.056 69.7508 79.6977 69.4575C80.3577 69.1642 81.091 69.0175 81.8977 69.0175C82.9793 69.0175 83.9418 69.2925 84.7852 69.8425C85.6285 70.3742 86.2977 71.1167 86.7927 72.07C87.2877 73.0233 87.5352 74.105 87.5352 75.315C87.5352 76.635 87.251 77.7992 86.6827 78.8075C86.1143 79.8158 85.326 80.6133 84.3177 81.2C83.3093 81.7683 82.1452 82.0525 80.8252 82.0525ZM80.5502 78.2025C81.0268 78.2025 81.4393 78.0925 81.7877 77.8725C82.1543 77.6525 82.4293 77.3408 82.6127 76.9375C82.8143 76.5342 82.9152 76.0667 82.9152 75.535C82.9152 74.985 82.8143 74.5175 82.6127 74.1325C82.4293 73.7292 82.1543 73.4175 81.7877 73.1975C81.4393 72.9592 81.0268 72.84 80.5502 72.84C80.0918 72.84 79.6793 72.9592 79.3127 73.1975C78.9643 73.4175 78.6893 73.7292 78.4877 74.1325C78.286 74.5175 78.1852 74.985 78.1852 75.535C78.1852 76.0667 78.286 76.5342 78.4877 76.9375C78.6893 77.3408 78.9643 77.6525 79.3127 77.8725C79.6793 78.0925 80.0918 78.2025 80.5502 78.2025ZM98.2769 81.255C98.0386 81.6767 97.7361 81.9517 97.3694 82.08C97.0028 82.2267 96.6453 82.2542 96.2969 82.1625C95.9486 82.0708 95.6461 81.8967 95.3894 81.64C95.1328 81.3833 94.9769 81.0625 94.9219 80.6775C94.8669 80.2925 94.9586 79.8892 95.1969 79.4675L104.822 62.885C105.079 62.445 105.381 62.1608 105.729 62.0325C106.078 61.8858 106.426 61.8583 106.774 61.95C107.141 62.0417 107.444 62.225 107.682 62.5C107.939 62.7567 108.094 63.0775 108.149 63.4625C108.223 63.8292 108.131 64.2233 107.874 64.645L98.2769 81.255ZM94.2894 73.9125C92.6394 73.9125 91.3561 73.3717 90.4394 72.29C89.5411 71.19 89.0919 69.7417 89.0919 67.945C89.0919 66.735 89.3028 65.69 89.7244 64.81C90.1461 63.93 90.7419 63.2517 91.5119 62.775C92.2819 62.2983 93.2078 62.06 94.2894 62.06C95.9211 62.06 97.1861 62.6008 98.0844 63.6825C99.0011 64.7458 99.4594 66.1667 99.4594 67.945C99.4594 69.1367 99.2486 70.1817 98.8269 71.08C98.4236 71.9783 97.8369 72.675 97.0669 73.17C96.2969 73.665 95.3711 73.9125 94.2894 73.9125ZM94.2894 70.8875C94.5644 70.8875 94.7936 70.7958 94.9769 70.6125C95.1786 70.4108 95.3253 70.0992 95.4169 69.6775C95.5269 69.2375 95.5819 68.66 95.5819 67.945C95.5819 66.8633 95.4628 66.1117 95.2244 65.69C95.0044 65.2683 94.6928 65.0575 94.2894 65.0575C93.9961 65.0575 93.7486 65.1492 93.5469 65.3325C93.3636 65.4975 93.2169 65.7908 93.1069 66.2125C93.0153 66.6342 92.9694 67.2117 92.9694 67.945C92.9694 69.045 93.0794 69.815 93.2994 70.255C93.5194 70.6767 93.8494 70.8875 94.2894 70.8875ZM108.809 82.0525C107.178 82.0525 105.904 81.5117 104.987 80.43C104.089 79.3483 103.639 77.9092 103.639 76.1125C103.639 74.8842 103.841 73.83 104.244 72.95C104.666 72.07 105.262 71.3917 106.032 70.915C106.82 70.4383 107.746 70.2 108.809 70.2C110.441 70.2 111.715 70.7408 112.632 71.8225C113.549 72.9042 114.007 74.3342 114.007 76.1125C114.007 77.3042 113.796 78.3492 113.374 79.2475C112.971 80.1275 112.384 80.815 111.614 81.31C110.844 81.805 109.909 82.0525 108.809 82.0525ZM108.809 79.055C109.103 79.055 109.341 78.9633 109.524 78.78C109.726 78.5783 109.873 78.2667 109.964 77.845C110.074 77.405 110.129 76.8275 110.129 76.1125C110.129 75.0308 110.01 74.2792 109.772 73.8575C109.552 73.4358 109.231 73.225 108.809 73.225C108.534 73.225 108.296 73.3167 108.094 73.5C107.911 73.665 107.764 73.9583 107.654 74.38C107.563 74.7833 107.517 75.3608 107.517 76.1125C107.517 77.2125 107.627 77.9825 107.847 78.4225C108.067 78.8442 108.388 79.055 108.809 79.055Z" fill="#578209"/>
</svg>
