<svg width="46" height="43" viewBox="0 0 46 43" fill="none" xmlns="http://www.w3.org/2000/svg">
<path d="M41.2324 21.5C41.2324 30.8658 33.2474 38.5 23.3447 38.5C13.442 38.5 5.45703 30.8658 5.45703 21.5C5.45703 12.1342 13.442 4.5 23.3447 4.5C33.2474 4.5 41.2324 12.1342 41.2324 21.5Z" fill="#537EE4" stroke="#537EE4"/>
<path d="M45.4871 21.5C45.4871 33.1061 35.5947 42.5521 23.3445 42.5521C11.0943 42.5521 1.20182 33.1061 1.20182 21.5C1.20182 9.89388 11.0943 0.447917 23.3445 0.447917C35.5947 0.447917 45.4871 9.89388 45.4871 21.5Z" stroke="#537EE4" stroke-width="0.895833"/>
<mask id="path-3-outside-1_954_1342" maskUnits="userSpaceOnUse" x="9.21094" y="15" width="19" height="13" fill="black">
<rect fill="white" x="9.21094" y="15" width="19" height="13"/>
<path d="M14.2989 26.042C13.6736 26.042 13.1043 25.916 12.5909 25.664C12.0776 25.4027 11.6669 25.0573 11.3589 24.628C11.0509 24.1893 10.8969 23.704 10.8969 23.172C10.8969 22.864 10.9389 22.5747 11.0229 22.304C11.1069 22.0333 11.2329 21.7907 11.4009 21.576C11.5689 21.352 11.7743 21.156 12.0169 20.988C12.2689 20.8107 12.5583 20.6567 12.8849 20.526L12.7729 20.918C12.4369 20.7873 12.1476 20.6193 11.9049 20.414C11.6716 20.2087 11.4896 19.9707 11.3589 19.7C11.2283 19.4293 11.1629 19.1353 11.1629 18.818C11.1629 18.3233 11.3029 17.8753 11.5829 17.474C11.8629 17.0727 12.2409 16.7507 12.7169 16.508C13.1929 16.2653 13.7203 16.144 14.2989 16.144C14.8869 16.144 15.4143 16.2653 15.8809 16.508C16.3569 16.7507 16.7349 17.0727 17.0149 17.474C17.3043 17.8753 17.4489 18.3233 17.4489 18.818C17.4489 19.1353 17.3836 19.4247 17.2529 19.686C17.1316 19.9473 16.9496 20.1807 16.7069 20.386C16.4736 20.5913 16.1749 20.7687 15.8109 20.918L15.7409 20.582C16.1329 20.722 16.4783 20.9227 16.7769 21.184C17.0756 21.436 17.3089 21.7347 17.4769 22.08C17.6449 22.416 17.7289 22.78 17.7289 23.172C17.7289 23.7133 17.5749 24.2033 17.2669 24.642C16.9589 25.0713 16.5436 25.412 16.0209 25.664C15.5076 25.916 14.9336 26.042 14.2989 26.042ZM14.2989 24.474C14.6163 24.474 14.9009 24.4133 15.1529 24.292C15.4049 24.1707 15.6009 24.0073 15.7409 23.802C15.8903 23.5967 15.9649 23.3587 15.9649 23.088C15.9649 22.808 15.8903 22.5607 15.7409 22.346C15.6009 22.122 15.4049 21.9447 15.1529 21.814C14.9009 21.6833 14.6163 21.618 14.2989 21.618C13.9909 21.618 13.7109 21.6833 13.4589 21.814C13.2069 21.9447 13.0063 22.122 12.8569 22.346C12.7169 22.5607 12.6469 22.808 12.6469 23.088C12.6469 23.3493 12.7169 23.5873 12.8569 23.802C13.0063 24.0073 13.2069 24.1707 13.4589 24.292C13.7109 24.4133 13.9909 24.474 14.2989 24.474ZM14.2989 20.092C14.5789 20.092 14.8263 20.0407 15.0409 19.938C15.2556 19.826 15.4236 19.6813 15.5449 19.504C15.6756 19.3267 15.7409 19.1213 15.7409 18.888C15.7409 18.6547 15.6756 18.4493 15.5449 18.272C15.4236 18.0853 15.2556 17.936 15.0409 17.824C14.8263 17.712 14.5789 17.656 14.2989 17.656C14.0283 17.656 13.7809 17.712 13.5569 17.824C13.3423 17.936 13.1696 18.0853 13.0389 18.272C12.9176 18.4493 12.8569 18.6547 12.8569 18.888C12.8569 19.1213 12.9176 19.3267 13.0389 19.504C13.1696 19.6813 13.3423 19.826 13.5569 19.938C13.7809 20.0407 14.0283 20.092 14.2989 20.092ZM22.7964 26.14C22.0031 26.14 21.3264 25.9393 20.7664 25.538C20.2064 25.1273 19.7724 24.5487 19.4644 23.802C19.1657 23.046 19.0164 22.1453 19.0164 21.1C19.0164 20.0547 19.1657 19.1587 19.4644 18.412C19.7724 17.656 20.2064 17.0773 20.7664 16.676C21.3264 16.2653 22.0031 16.06 22.7964 16.06C23.5897 16.06 24.2664 16.2653 24.8264 16.676C25.3957 17.0773 25.8297 17.656 26.1284 18.412C26.4364 19.1587 26.5904 20.0547 26.5904 21.1C26.5904 22.1453 26.4364 23.046 26.1284 23.802C25.8297 24.5487 25.3957 25.1273 24.8264 25.538C24.2664 25.9393 23.5897 26.14 22.7964 26.14ZM22.7964 24.544C23.4497 24.544 23.9537 24.2453 24.3084 23.648C24.6631 23.0507 24.8404 22.2013 24.8404 21.1C24.8404 19.9893 24.6631 19.1353 24.3084 18.538C23.9537 17.9313 23.4497 17.628 22.7964 17.628C22.1431 17.628 21.6344 17.9313 21.2704 18.538C20.9157 19.1353 20.7384 19.9893 20.7384 21.1C20.7384 22.2013 20.9157 23.0507 21.2704 23.648C21.6344 24.2453 22.1431 24.544 22.7964 24.544Z"/>
</mask>
<path d="M14.2989 26.042C13.6736 26.042 13.1043 25.916 12.5909 25.664C12.0776 25.4027 11.6669 25.0573 11.3589 24.628C11.0509 24.1893 10.8969 23.704 10.8969 23.172C10.8969 22.864 10.9389 22.5747 11.0229 22.304C11.1069 22.0333 11.2329 21.7907 11.4009 21.576C11.5689 21.352 11.7743 21.156 12.0169 20.988C12.2689 20.8107 12.5583 20.6567 12.8849 20.526L12.7729 20.918C12.4369 20.7873 12.1476 20.6193 11.9049 20.414C11.6716 20.2087 11.4896 19.9707 11.3589 19.7C11.2283 19.4293 11.1629 19.1353 11.1629 18.818C11.1629 18.3233 11.3029 17.8753 11.5829 17.474C11.8629 17.0727 12.2409 16.7507 12.7169 16.508C13.1929 16.2653 13.7203 16.144 14.2989 16.144C14.8869 16.144 15.4143 16.2653 15.8809 16.508C16.3569 16.7507 16.7349 17.0727 17.0149 17.474C17.3043 17.8753 17.4489 18.3233 17.4489 18.818C17.4489 19.1353 17.3836 19.4247 17.2529 19.686C17.1316 19.9473 16.9496 20.1807 16.7069 20.386C16.4736 20.5913 16.1749 20.7687 15.8109 20.918L15.7409 20.582C16.1329 20.722 16.4783 20.9227 16.7769 21.184C17.0756 21.436 17.3089 21.7347 17.4769 22.08C17.6449 22.416 17.7289 22.78 17.7289 23.172C17.7289 23.7133 17.5749 24.2033 17.2669 24.642C16.9589 25.0713 16.5436 25.412 16.0209 25.664C15.5076 25.916 14.9336 26.042 14.2989 26.042ZM14.2989 24.474C14.6163 24.474 14.9009 24.4133 15.1529 24.292C15.4049 24.1707 15.6009 24.0073 15.7409 23.802C15.8903 23.5967 15.9649 23.3587 15.9649 23.088C15.9649 22.808 15.8903 22.5607 15.7409 22.346C15.6009 22.122 15.4049 21.9447 15.1529 21.814C14.9009 21.6833 14.6163 21.618 14.2989 21.618C13.9909 21.618 13.7109 21.6833 13.4589 21.814C13.2069 21.9447 13.0063 22.122 12.8569 22.346C12.7169 22.5607 12.6469 22.808 12.6469 23.088C12.6469 23.3493 12.7169 23.5873 12.8569 23.802C13.0063 24.0073 13.2069 24.1707 13.4589 24.292C13.7109 24.4133 13.9909 24.474 14.2989 24.474ZM14.2989 20.092C14.5789 20.092 14.8263 20.0407 15.0409 19.938C15.2556 19.826 15.4236 19.6813 15.5449 19.504C15.6756 19.3267 15.7409 19.1213 15.7409 18.888C15.7409 18.6547 15.6756 18.4493 15.5449 18.272C15.4236 18.0853 15.2556 17.936 15.0409 17.824C14.8263 17.712 14.5789 17.656 14.2989 17.656C14.0283 17.656 13.7809 17.712 13.5569 17.824C13.3423 17.936 13.1696 18.0853 13.0389 18.272C12.9176 18.4493 12.8569 18.6547 12.8569 18.888C12.8569 19.1213 12.9176 19.3267 13.0389 19.504C13.1696 19.6813 13.3423 19.826 13.5569 19.938C13.7809 20.0407 14.0283 20.092 14.2989 20.092ZM22.7964 26.14C22.0031 26.14 21.3264 25.9393 20.7664 25.538C20.2064 25.1273 19.7724 24.5487 19.4644 23.802C19.1657 23.046 19.0164 22.1453 19.0164 21.1C19.0164 20.0547 19.1657 19.1587 19.4644 18.412C19.7724 17.656 20.2064 17.0773 20.7664 16.676C21.3264 16.2653 22.0031 16.06 22.7964 16.06C23.5897 16.06 24.2664 16.2653 24.8264 16.676C25.3957 17.0773 25.8297 17.656 26.1284 18.412C26.4364 19.1587 26.5904 20.0547 26.5904 21.1C26.5904 22.1453 26.4364 23.046 26.1284 23.802C25.8297 24.5487 25.3957 25.1273 24.8264 25.538C24.2664 25.9393 23.5897 26.14 22.7964 26.14ZM22.7964 24.544C23.4497 24.544 23.9537 24.2453 24.3084 23.648C24.6631 23.0507 24.8404 22.2013 24.8404 21.1C24.8404 19.9893 24.6631 19.1353 24.3084 18.538C23.9537 17.9313 23.4497 17.628 22.7964 17.628C22.1431 17.628 21.6344 17.9313 21.2704 18.538C20.9157 19.1353 20.7384 19.9893 20.7384 21.1C20.7384 22.2013 20.9157 23.0507 21.2704 23.648C21.6344 24.2453 22.1431 24.544 22.7964 24.544Z" fill="white"/>
<path d="M12.5909 25.664L12.1373 26.5552L12.1437 26.5585L12.1503 26.5617L12.5909 25.664ZM11.3589 24.628L10.5405 25.2027L10.5464 25.2109L11.3589 24.628ZM11.0229 22.304L11.978 22.6004L11.978 22.6004L11.0229 22.304ZM11.4009 21.576L12.1884 22.1923L12.1948 22.1842L12.2009 22.176L11.4009 21.576ZM12.0169 20.988L12.5862 21.8102L12.5924 21.8058L12.0169 20.988ZM12.8849 20.526L13.8465 20.8007L14.4066 18.8403L12.5135 19.5975L12.8849 20.526ZM12.7729 20.918L12.4105 21.85L13.433 22.2477L13.7345 21.1927L12.7729 20.918ZM11.9049 20.414L11.2443 21.1647L11.2516 21.1711L11.259 21.1774L11.9049 20.414ZM11.3589 19.7L10.4584 20.1347L10.4584 20.1347L11.3589 19.7ZM15.8809 16.508L15.4196 17.3952L15.4268 17.3989L15.8809 16.508ZM17.0149 17.474L16.1948 18.0462L16.1992 18.0525L16.2038 18.0588L17.0149 17.474ZM17.2529 19.686L16.3585 19.2388L16.352 19.2517L16.3459 19.2649L17.2529 19.686ZM16.7069 20.386L16.061 19.6226L16.0536 19.6289L16.0463 19.6353L16.7069 20.386ZM15.8109 20.918L14.832 21.122L15.0774 22.2998L16.1905 21.8432L15.8109 20.918ZM15.7409 20.582L16.0773 19.6403L14.3984 19.0406L14.762 20.786L15.7409 20.582ZM16.7769 21.184L16.1184 21.9366L16.1252 21.9425L16.1321 21.9483L16.7769 21.184ZM17.4769 22.08L16.5777 22.5175L16.5825 22.5272L17.4769 22.08ZM17.2669 24.642L18.0795 25.2249L18.0854 25.2166L17.2669 24.642ZM16.0209 25.664L15.5866 24.7632L15.5803 24.7663L16.0209 25.664ZM15.1529 24.292L14.7191 23.391L14.7191 23.391L15.1529 24.292ZM15.7409 23.802L14.9322 23.2138L14.9233 23.2261L14.9147 23.2387L15.7409 23.802ZM15.7409 22.346L14.8929 22.876L14.906 22.8969L14.92 22.9171L15.7409 22.346ZM13.4589 21.814L13.9193 22.7018L13.4589 21.814ZM12.8569 22.346L12.0248 21.7913L12.0193 21.7997L12.8569 22.346ZM12.8569 23.802L12.0193 24.3483L12.0332 24.3696L12.0482 24.3902L12.8569 23.802ZM13.4589 24.292L13.8928 23.391L13.8928 23.391L13.4589 24.292ZM15.0409 19.938L15.4724 20.8401L15.4881 20.8326L15.5035 20.8246L15.0409 19.938ZM15.5449 19.504L14.7399 18.9108L14.7295 18.9249L14.7196 18.9393L15.5449 19.504ZM15.5449 18.272L14.7065 18.817L14.7225 18.8416L14.7399 18.8652L15.5449 18.272ZM15.0409 17.824L15.5035 16.9374L15.5035 16.9374L15.0409 17.824ZM13.5569 17.824L13.1097 16.9296L13.102 16.9334L13.0944 16.9374L13.5569 17.824ZM13.0389 18.272L12.2197 17.6985L12.2136 17.7073L13.0389 18.272ZM13.0389 19.504L12.2136 20.0687L12.2235 20.0831L12.2339 20.0972L13.0389 19.504ZM13.5569 19.938L13.0944 20.8246L13.117 20.8364L13.1403 20.8471L13.5569 19.938ZM14.2989 25.042C13.8119 25.042 13.3953 24.9449 13.0316 24.7663L12.1503 26.5617C12.8132 26.8871 13.5353 27.042 14.2989 27.042V25.042ZM13.0446 24.7728C12.6607 24.5774 12.378 24.333 12.1715 24.0451L10.5464 25.2109C10.9559 25.7817 11.4945 26.2279 12.1373 26.5552L13.0446 24.7728ZM12.1774 24.0534C11.9866 23.7817 11.8969 23.4967 11.8969 23.172H9.89694C9.89694 23.9113 10.1153 24.597 10.5405 25.2026L12.1774 24.0534ZM11.8969 23.172C11.8969 22.9558 11.9263 22.7671 11.978 22.6004L10.0679 22.0076C9.95162 22.3822 9.89694 22.7722 9.89694 23.172H11.8969ZM11.978 22.6004C12.0275 22.441 12.0982 22.3076 12.1884 22.1923L10.6134 20.9597C10.3677 21.2737 10.1864 21.6257 10.0679 22.0076L11.978 22.6004ZM12.2009 22.176C12.301 22.0425 12.427 21.9203 12.5861 21.8102L11.4477 20.1658C11.1215 20.3917 10.8368 20.6615 10.6009 20.976L12.2009 22.176ZM12.5924 21.8058C12.7727 21.6789 12.9918 21.5603 13.2563 21.4545L12.5135 19.5975C12.1247 19.753 11.7652 19.9424 11.4414 20.1702L12.5924 21.8058ZM11.9234 20.2513L11.8114 20.6433L13.7345 21.1927L13.8465 20.8007L11.9234 20.2513ZM13.1354 19.986C12.8889 19.8901 12.6985 19.7755 12.5509 19.6506L11.259 21.1774C11.5967 21.4631 11.985 21.6845 12.4105 21.85L13.1354 19.986ZM12.5656 19.6633C12.429 19.5431 12.3301 19.4115 12.2595 19.2653L10.4584 20.1347C10.6491 20.5298 10.9142 20.8742 11.2443 21.1647L12.5656 19.6633ZM12.2595 19.2653C12.1979 19.1377 12.1629 18.9934 12.1629 18.818H10.1629C10.1629 19.2773 10.2586 19.721 10.4584 20.1347L12.2595 19.2653ZM12.1629 18.818C12.1629 18.5256 12.2415 18.2777 12.4031 18.0462L10.7628 16.9018C10.3644 17.4729 10.1629 18.1211 10.1629 18.818H12.1629ZM12.4031 18.0462C12.5807 17.7916 12.8277 17.574 13.1711 17.3989L12.2627 15.6171C11.6542 15.9273 11.1452 16.3537 10.7628 16.9018L12.4031 18.0462ZM13.1711 17.3989C13.495 17.2338 13.8648 17.144 14.2989 17.144V15.144C13.5758 15.144 12.8909 15.2969 12.2627 15.6171L13.1711 17.3989ZM14.2989 17.144C14.7455 17.144 15.1115 17.235 15.4196 17.3952L16.3423 15.6208C15.717 15.2956 15.0284 15.144 14.2989 15.144V17.144ZM15.4268 17.3989C15.7702 17.574 16.0172 17.7916 16.1948 18.0462L17.8351 16.9018C17.4527 16.3537 16.9437 15.9273 16.3351 15.6171L15.4268 17.3989ZM16.2038 18.0588C16.3704 18.2899 16.4489 18.5333 16.4489 18.818H18.4489C18.4489 18.1134 18.2382 17.4608 17.8261 16.8892L16.2038 18.0588ZM16.4489 18.818C16.4489 18.9937 16.4139 19.128 16.3585 19.2388L18.1474 20.1332C18.3533 19.7213 18.4489 19.277 18.4489 18.818H16.4489ZM16.3459 19.2649C16.2918 19.3815 16.2044 19.5013 16.061 19.6226L17.3529 21.1494C17.6948 20.86 17.9714 20.5132 18.1599 20.1071L16.3459 19.2649ZM16.0463 19.6353C15.9151 19.7507 15.7187 19.875 15.4314 19.9928L16.1905 21.8432C16.6312 21.6624 17.0321 21.4319 17.3676 21.1367L16.0463 19.6353ZM16.7899 20.714L16.7199 20.378L14.762 20.786L14.832 21.122L16.7899 20.714ZM15.4046 21.5237C15.6841 21.6236 15.9189 21.762 16.1184 21.9366L17.4354 20.4314C17.0376 20.0834 16.5817 19.8204 16.0773 19.6403L15.4046 21.5237ZM16.1321 21.9483C16.326 22.1119 16.4719 22.2999 16.5777 22.5175L18.3762 21.6425C18.146 21.1695 17.8252 20.7601 17.4218 20.4197L16.1321 21.9483ZM16.5825 22.5272C16.678 22.7183 16.7289 22.9283 16.7289 23.172H18.7289C18.7289 22.6317 18.6118 22.1137 18.3714 21.6328L16.5825 22.5272ZM16.7289 23.172C16.7289 23.5099 16.6371 23.7988 16.4485 24.0674L18.0854 25.2166C18.5128 24.6079 18.7289 23.9168 18.7289 23.172H16.7289ZM16.4544 24.0591C16.2532 24.3395 15.9737 24.5766 15.5866 24.7632L16.4552 26.5648C17.1135 26.2474 17.6646 25.8032 18.0795 25.2249L16.4544 24.0591ZM15.5803 24.7663C15.2185 24.9439 14.7978 25.042 14.2989 25.042V27.042C15.0694 27.042 15.7967 26.8881 16.4616 26.5617L15.5803 24.7663ZM14.2989 25.474C14.7462 25.474 15.1822 25.3878 15.5868 25.193L14.7191 23.391C14.6196 23.4389 14.4864 23.474 14.2989 23.474V25.474ZM15.5868 25.193C15.9767 25.0053 16.3163 24.7332 16.5672 24.3653L14.9147 23.2387C14.8855 23.2814 14.8332 23.3361 14.7191 23.391L15.5868 25.193ZM16.5497 24.3902C16.8317 24.0023 16.9649 23.5552 16.9649 23.088H14.9649C14.9649 23.1621 14.9488 23.191 14.9322 23.2138L16.5497 24.3902ZM16.9649 23.088C16.9649 22.6191 16.8362 22.1693 16.5618 21.7749L14.92 22.9171C14.9444 22.952 14.9649 22.9969 14.9649 23.088H16.9649ZM16.5889 21.816C16.347 21.4289 16.0119 21.1329 15.6133 20.9262L14.6926 22.7018C14.798 22.7564 14.8549 22.8151 14.8929 22.876L16.5889 21.816ZM15.6133 20.9262C15.2029 20.7135 14.7573 20.618 14.2989 20.618V22.618C14.4752 22.618 14.5989 22.6532 14.6926 22.7018L15.6133 20.9262ZM14.2989 20.618C13.8446 20.618 13.4047 20.7157 12.9986 20.9262L13.9193 22.7018C14.0172 22.651 14.1372 22.618 14.2989 22.618V20.618ZM12.9986 20.9262C12.605 21.1303 12.2731 21.4189 12.0249 21.7913L13.689 22.9007C13.7394 22.8251 13.8089 22.759 13.9193 22.7018L12.9986 20.9262ZM12.0193 21.7997C11.7636 22.1919 11.6469 22.6327 11.6469 23.088H13.6469C13.6469 22.9833 13.6703 22.9295 13.6945 22.8923L12.0193 21.7997ZM11.6469 23.088C11.6469 23.5393 11.7712 23.9678 12.0193 24.3483L13.6945 23.2557C13.6627 23.2069 13.6469 23.1594 13.6469 23.088H11.6469ZM12.0482 24.3902C12.3043 24.7424 12.6397 25.0074 13.0251 25.193L13.8928 23.391C13.7742 23.3339 13.7082 23.2723 13.6657 23.2138L12.0482 24.3902ZM13.0251 25.193C13.4257 25.3859 13.8561 25.474 14.2989 25.474V23.474C14.1257 23.474 13.9962 23.4408 13.8928 23.391L13.0251 25.193ZM14.2989 21.092C14.7021 21.092 15.1012 21.0176 15.4724 20.8401L14.6095 19.0359C14.5513 19.0637 14.4558 19.092 14.2989 19.092V21.092ZM15.5035 20.8246C15.845 20.6464 16.145 20.3979 16.3702 20.0687L14.7196 18.9393C14.7022 18.9648 14.6662 19.0056 14.5784 19.0514L15.5035 20.8246ZM16.35 20.0972C16.6151 19.7375 16.7409 19.3213 16.7409 18.888H14.7409C14.7409 18.8996 14.7401 18.9068 14.7396 18.9104C14.7391 18.914 14.7387 18.9148 14.739 18.9138C14.7394 18.9127 14.74 18.9112 14.7406 18.9099C14.7413 18.9085 14.7414 18.9088 14.7399 18.9108L16.35 20.0972ZM16.7409 18.888C16.7409 18.4547 16.6151 18.0385 16.35 17.6788L14.7399 18.8652C14.7414 18.8672 14.7413 18.8675 14.7406 18.8661C14.74 18.8648 14.7394 18.8633 14.739 18.8622C14.7387 18.8612 14.7391 18.862 14.7396 18.8656C14.7401 18.8692 14.7409 18.8764 14.7409 18.888H16.7409ZM16.3834 17.727C16.1601 17.3836 15.857 17.1219 15.5035 16.9374L14.5784 18.7106C14.6542 18.7501 14.6871 18.7871 14.7065 18.817L16.3834 17.727ZM15.5035 16.9374C15.1252 16.74 14.7147 16.656 14.2989 16.656V18.656C14.4432 18.656 14.5274 18.684 14.5784 18.7106L15.5035 16.9374ZM14.2989 16.656C13.8858 16.656 13.4836 16.7426 13.1097 16.9296L14.0042 18.7184C14.0783 18.6814 14.1707 18.656 14.2989 18.656V16.656ZM13.0944 16.9374C12.7466 17.1189 12.4482 17.3722 12.2197 17.6985L13.8582 18.8455C13.891 18.7985 13.938 18.7531 14.0195 18.7106L13.0944 16.9374ZM12.2136 17.7073C11.9687 18.0654 11.8569 18.4713 11.8569 18.888H13.8569C13.8569 18.8587 13.8606 18.8452 13.8615 18.8423C13.8621 18.8402 13.8624 18.8394 13.8642 18.8367L12.2136 17.7073ZM11.8569 18.888C11.8569 19.3047 11.9687 19.7106 12.2136 20.0687L13.8642 18.9393C13.8624 18.9366 13.8621 18.9358 13.8615 18.9337C13.8606 18.9308 13.8569 18.9173 13.8569 18.888H11.8569ZM12.2339 20.0972C12.4636 20.4089 12.7583 20.6492 13.0944 20.8246L14.0195 19.0514C13.9263 19.0028 13.8757 18.9538 13.844 18.9108L12.2339 20.0972ZM13.1403 20.8471C13.5074 21.0153 13.8988 21.092 14.2989 21.092V19.092C14.1578 19.092 14.0545 19.066 13.9736 19.0289L13.1403 20.8471ZM20.7664 25.538L20.175 26.3445L20.1839 26.3508L20.7664 25.538ZM19.4644 23.802L18.5343 24.1694L18.5371 24.1764L18.54 24.1833L19.4644 23.802ZM19.4644 18.412L18.5383 18.0347L18.5359 18.0406L19.4644 18.412ZM20.7664 16.676L21.3489 17.4889L21.3578 17.4824L20.7664 16.676ZM24.8264 16.676L24.235 17.4824L24.2426 17.4879L24.2502 17.4933L24.8264 16.676ZM26.1284 18.412L25.1983 18.7794L25.2011 18.7864L25.204 18.7933L26.1284 18.412ZM26.1284 23.802L25.2023 23.4247L25.1999 23.4306L26.1284 23.802ZM24.8264 25.538L25.4089 26.3508L25.4114 26.349L24.8264 25.538ZM24.3084 23.648L25.1682 24.1585L25.1682 24.1585L24.3084 23.648ZM24.3084 18.538L23.4451 19.0427L23.4485 19.0485L24.3084 18.538ZM21.2704 18.538L20.4129 18.0235L20.4105 18.0275L21.2704 18.538ZM21.2704 23.648L20.4105 24.1586L20.4165 24.1684L21.2704 23.648ZM22.7964 25.14C22.1792 25.14 21.7142 24.987 21.3489 24.7252L20.1839 26.3508C20.9386 26.8917 21.8269 27.14 22.7964 27.14V25.14ZM21.3578 24.7316C20.9684 24.4461 20.6385 24.0259 20.3888 23.4207L18.54 24.1833C18.9063 25.0715 19.4444 25.8086 20.175 26.3444L21.3578 24.7316ZM20.3944 23.4346C20.1531 22.8237 20.0164 22.0539 20.0164 21.1H18.0164C18.0164 22.2368 18.1783 23.2683 18.5343 24.1694L20.3944 23.4346ZM20.0164 21.1C20.0164 20.1456 20.1533 19.3824 20.3929 18.7834L18.5359 18.0406C18.1782 18.935 18.0164 19.9638 18.0164 21.1H20.0164ZM20.3905 18.7893C20.6406 18.1753 20.9686 17.7614 21.3489 17.4888L20.1839 15.8632C19.4442 16.3933 18.9041 17.1367 18.5383 18.0347L20.3905 18.7893ZM21.3578 17.4824C21.7224 17.215 22.1842 17.06 22.7964 17.06V15.06C21.8219 15.06 20.9303 15.3157 20.175 15.8696L21.3578 17.4824ZM22.7964 17.06C23.4086 17.06 23.8703 17.215 24.235 17.4824L25.4178 15.8696C24.6624 15.3157 23.7709 15.06 22.7964 15.06V17.06ZM24.2502 17.4933C24.6351 17.7647 24.9591 18.1738 25.1983 18.7794L27.0584 18.0446C26.7004 17.1382 26.1563 16.39 25.4025 15.8587L24.2502 17.4933ZM25.204 18.7933C25.4497 19.3892 25.5904 20.1488 25.5904 21.1H27.5904C27.5904 19.9606 27.423 18.9282 27.0528 18.0307L25.204 18.7933ZM25.5904 21.1C25.5904 22.0507 25.4499 22.817 25.2023 23.4247L27.0545 24.1793C27.4229 23.275 27.5904 22.24 27.5904 21.1H25.5904ZM25.1999 23.4306C24.9612 24.0274 24.6354 24.4428 24.2414 24.727L25.4114 26.349C26.156 25.8119 26.6982 25.07 27.0569 24.1734L25.1999 23.4306ZM24.2439 24.7252C23.8786 24.987 23.4136 25.14 22.7964 25.14V27.14C23.7659 27.14 24.6542 26.8917 25.4089 26.3508L24.2439 24.7252ZM22.7964 25.544C23.829 25.544 24.6473 25.0359 25.1682 24.1585L23.4485 23.1375C23.2602 23.4547 23.0704 23.544 22.7964 23.544V25.544ZM25.1682 24.1585C25.6535 23.3413 25.8404 22.2855 25.8404 21.1H23.8404C23.8404 22.1171 23.6726 22.76 23.4485 23.1375L25.1682 24.1585ZM25.8404 21.1C25.8404 19.907 25.6541 18.8457 25.1682 18.0275L23.4485 19.0485C23.672 19.425 23.8404 20.0717 23.8404 21.1H25.8404ZM25.1717 18.0333C24.6542 17.1481 23.8366 16.628 22.7964 16.628V18.628C23.0629 18.628 23.2533 18.7145 23.4451 19.0427L25.1717 18.0333ZM22.7964 16.628C21.758 16.628 20.9395 17.1458 20.4129 18.0235L22.1279 19.0525C22.3293 18.7168 22.5281 18.628 22.7964 18.628V16.628ZM20.4105 18.0275C19.9247 18.8457 19.7384 19.907 19.7384 21.1H21.7384C21.7384 20.0717 21.9067 19.425 22.1302 19.0485L20.4105 18.0275ZM19.7384 21.1C19.7384 22.2855 19.9253 23.3413 20.4105 24.1585L22.1302 23.1375C21.9061 22.76 21.7384 22.1171 21.7384 21.1H19.7384ZM20.4165 24.1684C20.9465 25.0381 21.7654 25.544 22.7964 25.544V23.544C22.5207 23.544 22.3223 23.4525 22.1243 23.1276L20.4165 24.1684Z" fill="#537EE4" mask="url(#path-3-outside-1_954_1342)"/>
<mask id="path-5-outside-2_954_1342" maskUnits="userSpaceOnUse" x="27.0723" y="17" width="11" height="11" fill="black">
<rect fill="white" x="27.0723" y="17" width="11" height="11"/>
<path d="M29.4923 26L34.1223 19H35.3123L30.6323 26H29.4923ZM30.0823 22.71C29.7689 22.71 29.4889 22.6267 29.2423 22.46C29.0023 22.2933 28.8123 22.0667 28.6723 21.78C28.5389 21.4933 28.4723 21.1667 28.4723 20.8C28.4723 20.4267 28.5389 20.0967 28.6723 19.81C28.8123 19.5167 29.0023 19.29 29.2423 19.13C29.4889 18.9633 29.7689 18.88 30.0823 18.88C30.4023 18.88 30.6823 18.9633 30.9223 19.13C31.1623 19.29 31.3489 19.5167 31.4823 19.81C31.6156 20.0967 31.6823 20.4267 31.6823 20.8C31.6823 21.16 31.6123 21.4867 31.4723 21.78C31.3323 22.0667 31.1423 22.2933 30.9023 22.46C30.6623 22.6267 30.3889 22.71 30.0823 22.71ZM30.0823 21.86C30.2156 21.86 30.3289 21.8167 30.4223 21.73C30.5156 21.6433 30.5856 21.5233 30.6323 21.37C30.6856 21.21 30.7123 21.02 30.7123 20.8C30.7123 20.58 30.6856 20.39 30.6323 20.23C30.5856 20.07 30.5156 19.9467 30.4223 19.86C30.3289 19.7733 30.2156 19.73 30.0823 19.73C29.9489 19.73 29.8323 19.7767 29.7323 19.87C29.6389 19.9567 29.5656 20.08 29.5123 20.24C29.4589 20.3933 29.4323 20.58 29.4323 20.8C29.4323 21.1267 29.4889 21.3867 29.6023 21.58C29.7223 21.7667 29.8823 21.86 30.0823 21.86ZM34.8023 26.09C34.4889 26.09 34.2089 26.0067 33.9623 25.84C33.7223 25.6733 33.5323 25.4467 33.3923 25.16C33.2523 24.8733 33.1823 24.5467 33.1823 24.18C33.1823 23.8133 33.2489 23.4833 33.3823 23.19C33.5223 22.8967 33.7123 22.67 33.9523 22.51C34.1989 22.3433 34.4823 22.26 34.8023 22.26C35.1156 22.26 35.3923 22.3433 35.6323 22.51C35.8723 22.67 36.0589 22.8967 36.1923 23.19C36.3256 23.4833 36.3923 23.8133 36.3923 24.18C36.3923 24.54 36.3223 24.8667 36.1823 25.16C36.0489 25.4467 35.8623 25.6733 35.6223 25.84C35.3823 26.0067 35.1089 26.09 34.8023 26.09ZM34.8023 25.25C34.9289 25.25 35.0389 25.2067 35.1323 25.12C35.2323 25.0267 35.3056 24.9033 35.3523 24.75C35.4056 24.59 35.4323 24.4 35.4323 24.18C35.4323 23.86 35.3756 23.6033 35.2623 23.41C35.1489 23.21 34.9956 23.11 34.8023 23.11C34.6689 23.11 34.5523 23.1533 34.4523 23.24C34.3523 23.3267 34.2756 23.4533 34.2223 23.62C34.1756 23.78 34.1523 23.9667 34.1523 24.18C34.1523 24.5067 34.2089 24.7667 34.3223 24.96C34.4423 25.1533 34.6023 25.25 34.8023 25.25Z"/>
</mask>
<path d="M29.4923 26L34.1223 19H35.3123L30.6323 26H29.4923ZM30.0823 22.71C29.7689 22.71 29.4889 22.6267 29.2423 22.46C29.0023 22.2933 28.8123 22.0667 28.6723 21.78C28.5389 21.4933 28.4723 21.1667 28.4723 20.8C28.4723 20.4267 28.5389 20.0967 28.6723 19.81C28.8123 19.5167 29.0023 19.29 29.2423 19.13C29.4889 18.9633 29.7689 18.88 30.0823 18.88C30.4023 18.88 30.6823 18.9633 30.9223 19.13C31.1623 19.29 31.3489 19.5167 31.4823 19.81C31.6156 20.0967 31.6823 20.4267 31.6823 20.8C31.6823 21.16 31.6123 21.4867 31.4723 21.78C31.3323 22.0667 31.1423 22.2933 30.9023 22.46C30.6623 22.6267 30.3889 22.71 30.0823 22.71ZM30.0823 21.86C30.2156 21.86 30.3289 21.8167 30.4223 21.73C30.5156 21.6433 30.5856 21.5233 30.6323 21.37C30.6856 21.21 30.7123 21.02 30.7123 20.8C30.7123 20.58 30.6856 20.39 30.6323 20.23C30.5856 20.07 30.5156 19.9467 30.4223 19.86C30.3289 19.7733 30.2156 19.73 30.0823 19.73C29.9489 19.73 29.8323 19.7767 29.7323 19.87C29.6389 19.9567 29.5656 20.08 29.5123 20.24C29.4589 20.3933 29.4323 20.58 29.4323 20.8C29.4323 21.1267 29.4889 21.3867 29.6023 21.58C29.7223 21.7667 29.8823 21.86 30.0823 21.86ZM34.8023 26.09C34.4889 26.09 34.2089 26.0067 33.9623 25.84C33.7223 25.6733 33.5323 25.4467 33.3923 25.16C33.2523 24.8733 33.1823 24.5467 33.1823 24.18C33.1823 23.8133 33.2489 23.4833 33.3823 23.19C33.5223 22.8967 33.7123 22.67 33.9523 22.51C34.1989 22.3433 34.4823 22.26 34.8023 22.26C35.1156 22.26 35.3923 22.3433 35.6323 22.51C35.8723 22.67 36.0589 22.8967 36.1923 23.19C36.3256 23.4833 36.3923 23.8133 36.3923 24.18C36.3923 24.54 36.3223 24.8667 36.1823 25.16C36.0489 25.4467 35.8623 25.6733 35.6223 25.84C35.3823 26.0067 35.1089 26.09 34.8023 26.09ZM34.8023 25.25C34.9289 25.25 35.0389 25.2067 35.1323 25.12C35.2323 25.0267 35.3056 24.9033 35.3523 24.75C35.4056 24.59 35.4323 24.4 35.4323 24.18C35.4323 23.86 35.3756 23.6033 35.2623 23.41C35.1489 23.21 34.9956 23.11 34.8023 23.11C34.6689 23.11 34.5523 23.1533 34.4523 23.24C34.3523 23.3267 34.2756 23.4533 34.2223 23.62C34.1756 23.78 34.1523 23.9667 34.1523 24.18C34.1523 24.5067 34.2089 24.7667 34.3223 24.96C34.4423 25.1533 34.6023 25.25 34.8023 25.25Z" fill="white"/>
<path d="M29.4923 26L28.6582 25.4483L27.6319 27H29.4923V26ZM34.1223 19V18H33.5847L33.2882 18.4483L34.1223 19ZM35.3123 19L36.1436 19.5558L37.1837 18H35.3123V19ZM30.6323 26V27H31.1666L31.4636 26.5558L30.6323 26ZM29.2423 22.46L28.6718 23.2814L28.6824 23.2886L29.2423 22.46ZM28.6723 21.78L27.7655 22.2017L27.7695 22.2103L27.7737 22.2188L28.6723 21.78ZM28.6723 19.81L27.7697 19.3792L27.7655 19.3883L28.6723 19.81ZM29.2423 19.13L29.797 19.9621L29.8021 19.9586L29.2423 19.13ZM30.9223 19.13L30.3519 19.9514L30.3597 19.9568L30.3676 19.962L30.9223 19.13ZM31.4823 19.81L30.5719 20.2238L30.5755 20.2317L31.4823 19.81ZM31.4723 21.78L32.3709 22.2189L32.3747 22.2107L31.4723 21.78ZM30.9023 22.46L31.4727 23.2814L31.4727 23.2814L30.9023 22.46ZM30.4223 21.73L31.1027 22.4628L31.1027 22.4628L30.4223 21.73ZM30.6323 21.37L29.6836 21.0538L29.6794 21.0663L29.6756 21.0788L30.6323 21.37ZM30.6323 20.23L29.6723 20.51L29.6776 20.5282L29.6836 20.5462L30.6323 20.23ZM29.7323 19.87L30.4127 20.6028L30.4146 20.6011L29.7323 19.87ZM29.5123 20.24L30.4568 20.5685L30.4609 20.5562L29.5123 20.24ZM29.6023 21.58L28.7396 22.0857L28.75 22.1035L28.7611 22.1208L29.6023 21.58ZM33.9623 25.84L33.3918 26.6614L33.4024 26.6686L33.9623 25.84ZM33.3923 25.16L32.4937 25.5988L32.4937 25.5988L33.3923 25.16ZM33.3823 23.19L32.4798 22.7593L32.4758 22.7677L32.4719 22.7762L33.3823 23.19ZM33.9523 22.51L34.507 23.3421L34.5121 23.3386L33.9523 22.51ZM35.6323 22.51L35.0619 23.3314L35.0697 23.3368L35.0776 23.3421L35.6323 22.51ZM36.1823 25.16L35.2797 24.7292L35.2755 24.7383L36.1823 25.16ZM35.6223 25.84L36.1927 26.6614L36.1927 26.6614L35.6223 25.84ZM35.1323 25.12L35.8127 25.8528L35.8146 25.8511L35.1323 25.12ZM35.3523 24.75L34.4036 24.4338L34.3994 24.4463L34.3956 24.4588L35.3523 24.75ZM35.2623 23.41L34.3922 23.903L34.3959 23.9094L34.3996 23.9157L35.2623 23.41ZM34.4523 23.24L33.7973 22.4843L33.7973 22.4843L34.4523 23.24ZM34.2223 23.62L33.2698 23.3152L33.2659 23.3276L33.2623 23.34L34.2223 23.62ZM34.3223 24.96L33.4596 25.4657L33.466 25.4766L33.4726 25.4874L34.3223 24.96ZM30.3263 26.5517L34.9563 19.5517L33.2882 18.4483L28.6582 25.4483L30.3263 26.5517ZM34.1223 20H35.3123V18H34.1223V20ZM34.4809 18.4442L29.8009 25.4442L31.4636 26.5558L36.1436 19.5558L34.4809 18.4442ZM30.6323 25H29.4923V27H30.6323V25ZM30.0823 21.71C29.9574 21.71 29.8745 21.6803 29.8021 21.6314L28.6824 23.2886C29.1034 23.573 29.5805 23.71 30.0823 23.71V21.71ZM29.8127 21.6386C29.7256 21.5782 29.643 21.4889 29.5708 21.3412L27.7737 22.2188C27.9816 22.6445 28.279 23.0085 28.6719 23.2814L29.8127 21.6386ZM29.579 21.3583C29.5162 21.2232 29.4723 21.0441 29.4723 20.8H27.4723C27.4723 21.2892 27.5617 21.7635 27.7655 22.2017L29.579 21.3583ZM29.4723 20.8C29.4723 20.5463 29.5172 20.3645 29.579 20.2317L27.7655 19.3883C27.5606 19.8288 27.4723 20.3071 27.4723 20.8H29.4723ZM29.5747 20.2407C29.6472 20.089 29.7253 20.0098 29.797 19.9621L28.6876 18.2979C28.2793 18.5702 27.9773 18.9444 27.7698 19.3793L29.5747 20.2407ZM29.8021 19.9586C29.8745 19.9097 29.9574 19.88 30.0823 19.88V17.88C29.5805 17.88 29.1034 18.017 28.6824 18.3014L29.8021 19.9586ZM30.0823 19.88C30.2187 19.88 30.2953 19.9121 30.3519 19.9514L31.4927 18.3086C31.0692 18.0146 30.5858 17.88 30.0823 17.88V19.88ZM30.3676 19.962C30.4346 20.0067 30.5065 20.0799 30.5719 20.2238L32.3926 19.3962C32.1914 18.9535 31.8899 18.5733 31.477 18.2979L30.3676 19.962ZM30.5755 20.2317C30.6373 20.3645 30.6823 20.5463 30.6823 20.8H32.6823C32.6823 20.3071 32.5939 19.8288 32.389 19.3883L30.5755 20.2317ZM30.6823 20.8C30.6823 21.0272 30.639 21.2043 30.5698 21.3493L32.3747 22.2107C32.5856 21.769 32.6823 21.2928 32.6823 20.8H30.6823ZM30.5737 21.3412C30.5016 21.4889 30.419 21.5782 30.3319 21.6386L31.4727 23.2814C31.8656 23.0085 32.163 22.6445 32.3708 22.2188L30.5737 21.3412ZM30.3319 21.6386C30.2679 21.683 30.1957 21.71 30.0823 21.71V23.71C30.5821 23.71 31.0566 23.5703 31.4727 23.2814L30.3319 21.6386ZM30.0823 22.86C30.455 22.86 30.8151 22.7299 31.1027 22.4628L29.7418 20.9972C29.7843 20.9578 29.8412 20.9198 29.9101 20.8934C29.9782 20.8674 30.0389 20.86 30.0823 20.86V22.86ZM31.1027 22.4628C31.355 22.2286 31.5039 21.9404 31.5889 21.6612L29.6756 21.0788C29.6673 21.1062 29.6762 21.0581 29.7418 20.9972L31.1027 22.4628ZM31.5809 21.6862C31.6768 21.3986 31.7123 21.0966 31.7123 20.8H29.7123C29.7123 20.9434 29.6944 21.0214 29.6836 21.0538L31.5809 21.6862ZM31.7123 20.8C31.7123 20.5034 31.6768 20.2014 31.5809 19.9138L29.6836 20.5462C29.6944 20.5786 29.7123 20.6566 29.7123 20.8H31.7123ZM31.5923 19.95C31.5103 19.6688 31.3633 19.3692 31.1027 19.1272L29.7418 20.5928C29.6679 20.5242 29.6609 20.4712 29.6723 20.51L31.5923 19.95ZM31.1027 19.1272C30.8151 18.8601 30.455 18.73 30.0823 18.73V20.73C30.0389 20.73 29.9782 20.7226 29.9101 20.6966C29.8412 20.6702 29.7843 20.6322 29.7418 20.5928L31.1027 19.1272ZM30.0823 18.73C29.6885 18.73 29.3298 18.8777 29.0499 19.1389L30.4146 20.6011C30.3821 20.6314 30.3326 20.6669 30.2662 20.6935C30.1993 20.7202 30.1349 20.73 30.0823 20.73V18.73ZM29.0518 19.1372C28.8021 19.3691 28.6534 19.6544 28.5636 19.9238L30.4609 20.5562C30.4688 20.5327 30.4725 20.5291 30.4668 20.5386C30.4607 20.5488 30.4442 20.5735 30.4127 20.6028L29.0518 19.1372ZM28.5678 19.9115C28.4672 20.2005 28.4323 20.5052 28.4323 20.8H30.4323C30.4323 20.6548 30.4506 20.5861 30.4568 20.5685L28.5678 19.9115ZM28.4323 20.8C28.4323 21.2282 28.5043 21.6844 28.7396 22.0857L30.465 21.0743C30.4735 21.0889 30.4323 21.0251 30.4323 20.8H28.4323ZM28.7611 22.1208C29.0412 22.5565 29.5001 22.86 30.0823 22.86V20.86C30.1447 20.86 30.2311 20.8766 30.3161 20.9262C30.397 20.9734 30.4348 21.0259 30.4434 21.0392L28.7611 22.1208ZM34.8023 25.09C34.6774 25.09 34.5945 25.0603 34.5221 25.0114L33.4024 26.6686C33.8234 26.953 34.3005 27.09 34.8023 27.09V25.09ZM34.5327 25.0186C34.4456 24.9582 34.363 24.8689 34.2908 24.7212L32.4937 25.5988C32.7016 26.0245 32.999 26.3885 33.3919 26.6614L34.5327 25.0186ZM34.2908 24.7212C34.2269 24.5902 34.1823 24.4173 34.1823 24.18H32.1823C32.1823 24.676 32.2776 25.1564 32.4937 25.5988L34.2908 24.7212ZM34.1823 24.18C34.1823 23.9364 34.226 23.7504 34.2926 23.6038L32.4719 22.7762C32.2719 23.2163 32.1823 23.6903 32.1823 24.18H34.1823ZM34.2847 23.6207C34.3572 23.469 34.4353 23.3898 34.507 23.3421L33.3976 21.6779C32.9893 21.9502 32.6873 22.3244 32.4798 22.7593L34.2847 23.6207ZM34.5121 23.3386C34.5809 23.2921 34.6661 23.26 34.8023 23.26V21.26C34.2984 21.26 33.817 21.3946 33.3924 21.6814L34.5121 23.3386ZM34.8023 23.26C34.9272 23.26 35.0017 23.2896 35.0619 23.3314L36.2027 21.6886C35.7829 21.3971 35.304 21.26 34.8023 21.26V23.26ZM35.0776 23.3421C35.1446 23.3867 35.2165 23.4599 35.2819 23.6038L37.1026 22.7762C36.9014 22.3335 36.5999 21.9533 36.187 21.6779L35.0776 23.3421ZM35.2819 23.6038C35.3485 23.7504 35.3923 23.9364 35.3923 24.18H37.3923C37.3923 23.6903 37.3027 23.2163 37.1026 22.7762L35.2819 23.6038ZM35.3923 24.18C35.3923 24.4072 35.349 24.5843 35.2798 24.7293L37.0847 25.5907C37.2956 25.149 37.3923 24.6728 37.3923 24.18H35.3923ZM35.2755 24.7383C35.2106 24.8779 35.1345 24.9613 35.0519 25.0186L36.1927 26.6614C36.59 26.3854 36.8873 26.0154 37.089 25.5817L35.2755 24.7383ZM35.0519 25.0186C34.9879 25.063 34.9157 25.09 34.8023 25.09V27.09C35.3021 27.09 35.7766 26.9503 36.1927 26.6614L35.0519 25.0186ZM34.8023 26.25C35.1829 26.25 35.5356 26.1102 35.8127 25.8528L34.4518 24.3872C34.4894 24.3523 34.5435 24.3146 34.6132 24.2871C34.6831 24.2596 34.7492 24.25 34.8023 24.25V26.25ZM35.8146 25.8511C36.0637 25.6186 36.2199 25.3336 36.3089 25.0412L34.3956 24.4588C34.393 24.4674 34.3938 24.4614 34.4027 24.4464C34.4121 24.4307 34.4274 24.4099 34.4499 24.3889L35.8146 25.8511ZM36.3009 25.0662C36.3968 24.7786 36.4323 24.4766 36.4323 24.18H34.4323C34.4323 24.3234 34.4144 24.4014 34.4036 24.4338L36.3009 25.0662ZM36.4323 24.18C36.4323 23.7541 36.3587 23.3029 36.125 22.9043L34.3996 23.9157C34.3925 23.9037 34.4323 23.9659 34.4323 24.18H36.4323ZM36.1323 22.917C35.8813 22.474 35.43 22.11 34.8023 22.11V24.11C34.7164 24.11 34.6111 24.0847 34.516 24.0226C34.4289 23.9658 34.3947 23.9073 34.3922 23.903L36.1323 22.917ZM34.8023 22.11C34.4304 22.11 34.0807 22.2388 33.7973 22.4843L35.1072 23.9957C35.0724 24.0258 35.0239 24.0573 34.963 24.0799C34.9021 24.1025 34.8459 24.11 34.8023 24.11V22.11ZM33.7973 22.4843C33.5208 22.724 33.3615 23.0287 33.2698 23.3152L35.1747 23.9248C35.1897 23.878 35.1837 23.9293 35.1072 23.9957L33.7973 22.4843ZM33.2623 23.34C33.1829 23.6123 33.1523 23.897 33.1523 24.18H35.1523C35.1523 24.0363 35.1683 23.9477 35.1823 23.9L33.2623 23.34ZM33.1523 24.18C33.1523 24.6082 33.2243 25.0644 33.4596 25.4657L35.185 24.4543C35.1935 24.4689 35.1523 24.4051 35.1523 24.18H33.1523ZM33.4726 25.4874C33.7453 25.9267 34.2035 26.25 34.8023 26.25V24.25C34.8713 24.25 34.9624 24.269 35.0494 24.3216C35.1309 24.3708 35.1664 24.4238 35.1719 24.4326L33.4726 25.4874Z" fill="#537EE4" mask="url(#path-5-outside-2_954_1342)"/>
</svg>
