<svg width="736" height="262" viewBox="0 0 736 262" fill="none" xmlns="http://www.w3.org/2000/svg">
<path d="M38.918 4.27832V244.728" stroke="#F0F0F0" stroke-width="0.855693"/>
<path d="M138.785 4.27832V244.728" stroke="#F0F0F0" stroke-width="0.855693"/>
<path d="M237.182 4.27832V244.728" stroke="#F0F0F0" stroke-width="0.855693"/>
<path d="M337.047 4.27832V244.728" stroke="#F0F0F0" stroke-width="0.855693"/>
<path d="M435.445 4.27832V244.728" stroke="#F0F0F0" stroke-width="0.855693"/>
<path d="M535.309 4.27832V244.728" stroke="#F0F0F0" stroke-width="0.855693"/>
<path d="M633.705 4.27832V244.728" stroke="#F0F0F0" stroke-width="0.855693"/>
<path d="M735.041 4.27832V244.728" stroke="#F0F0F0" stroke-width="0.855693"/>
<path d="M39.6523 245.156H734.306" stroke="#F0F0F0" stroke-width="0.855693"/>
<path d="M39.6523 197.237H734.306" stroke="#F0F0F0" stroke-width="0.855693"/>
<path d="M39.6523 149.318H734.306" stroke="#F0F0F0" stroke-width="0.855693"/>
<path d="M39.6523 100.544H734.306" stroke="#F0F0F0" stroke-width="0.855693"/>
<path d="M39.6523 52.6255H734.306" stroke="#F0F0F0" stroke-width="0.855693"/>
<path d="M39.6523 3.85059H734.306" stroke="#F0F0F0" stroke-width="0.855693"/>
<path d="M39.6523 245.156H734.306" stroke="#F0F0F0" stroke-width="0.855693"/>
<path d="M38.918 4.27832V244.728" stroke="#F0F0F0" stroke-width="0.855693"/>
<path d="M34.472 253.49V259.574H33.6781V253.49H34.472ZM36.4274 253.49V254.15H31.7269V253.49H36.4274ZM38.671 259.657C38.3563 259.657 38.0708 259.604 37.8145 259.499C37.561 259.39 37.3424 259.238 37.1585 259.043C36.9775 258.848 36.8382 258.617 36.7407 258.35C36.6432 258.082 36.5945 257.79 36.5945 257.472V257.297C36.5945 256.929 36.6488 256.602 36.7574 256.315C36.8661 256.025 37.0137 255.78 37.2003 255.579C37.387 255.379 37.5986 255.227 37.8354 255.124C38.0722 255.021 38.3173 254.969 38.5708 254.969C38.8939 254.969 39.1724 255.025 39.4064 255.136C39.6432 255.248 39.8368 255.404 39.9872 255.604C40.1376 255.802 40.249 256.036 40.3214 256.306C40.3939 256.574 40.4301 256.866 40.4301 257.184V257.531H37.0541V256.9H39.6571V256.841C39.646 256.641 39.6042 256.446 39.5318 256.256C39.4621 256.067 39.3507 255.911 39.1975 255.788C39.0443 255.666 38.8354 255.604 38.5708 255.604C38.3953 255.604 38.2337 255.642 38.0861 255.717C37.9385 255.79 37.8117 255.898 37.7059 256.043C37.6 256.188 37.5179 256.365 37.4594 256.574C37.4009 256.783 37.3716 257.024 37.3716 257.297V257.472C37.3716 257.687 37.4009 257.889 37.4594 258.078C37.5207 258.265 37.6084 258.429 37.7226 258.571C37.8396 258.713 37.9803 258.824 38.1446 258.905C38.3117 258.986 38.5011 259.026 38.7128 259.026C38.9858 259.026 39.217 258.971 39.4064 258.859C39.5958 258.748 39.7616 258.599 39.9036 258.412L40.3716 258.784C40.2741 258.932 40.1501 259.072 39.9997 259.206C39.8493 259.34 39.6641 259.448 39.444 259.532C39.2267 259.616 38.9691 259.657 38.671 259.657ZM41.8548 255.053L42.8451 256.699L43.8478 255.053H44.7545L43.2754 257.284L44.8005 259.574H43.9063L42.8618 257.877L41.8172 259.574H40.9189L42.4398 257.284L40.9649 255.053H41.8548ZM47.4703 255.053V255.646H45.0261V255.053H47.4703ZM45.8534 253.954H46.6263V258.454C46.6263 258.607 46.65 258.723 46.6974 258.801C46.7447 258.879 46.806 258.93 46.8812 258.955C46.9564 258.98 47.0372 258.993 47.1235 258.993C47.1876 258.993 47.2544 258.987 47.3241 258.976C47.3965 258.962 47.4508 258.951 47.487 258.943L47.4912 259.574C47.4299 259.593 47.3492 259.611 47.2489 259.628C47.1514 259.648 47.033 259.657 46.8937 259.657C46.7043 259.657 46.5302 259.62 46.3715 259.544C46.2127 259.469 46.0859 259.344 45.9912 259.168C45.8993 258.99 45.8534 258.751 45.8534 258.45V253.954Z" fill="#A3A3A3"/>
<path d="M133.708 253.49V259.574H132.914V253.49H133.708ZM135.664 253.49V254.15H130.963V253.49H135.664ZM137.907 259.657C137.593 259.657 137.307 259.604 137.051 259.499C136.797 259.39 136.579 259.238 136.395 259.043C136.214 258.848 136.075 258.617 135.977 258.35C135.88 258.082 135.831 257.79 135.831 257.472V257.297C135.831 256.929 135.885 256.602 135.994 256.315C136.102 256.025 136.25 255.78 136.437 255.579C136.623 255.379 136.835 255.227 137.072 255.124C137.309 255.021 137.554 254.969 137.807 254.969C138.13 254.969 138.409 255.025 138.643 255.136C138.88 255.248 139.073 255.404 139.224 255.604C139.374 255.802 139.485 256.036 139.558 256.306C139.63 256.574 139.666 256.866 139.666 257.184V257.531H136.29V256.9H138.893V256.841C138.882 256.641 138.841 256.446 138.768 256.256C138.698 256.067 138.587 255.911 138.434 255.788C138.281 255.666 138.072 255.604 137.807 255.604C137.632 255.604 137.47 255.642 137.322 255.717C137.175 255.79 137.048 255.898 136.942 256.043C136.836 256.188 136.754 256.365 136.696 256.574C136.637 256.783 136.608 257.024 136.608 257.297V257.472C136.608 257.687 136.637 257.889 136.696 258.078C136.757 258.265 136.845 258.429 136.959 258.571C137.076 258.713 137.217 258.824 137.381 258.905C137.548 258.986 137.737 259.026 137.949 259.026C138.222 259.026 138.453 258.971 138.643 258.859C138.832 258.748 138.998 258.599 139.14 258.412L139.608 258.784C139.51 258.932 139.386 259.072 139.236 259.206C139.086 259.34 138.9 259.448 138.68 259.532C138.463 259.616 138.205 259.657 137.907 259.657ZM141.091 255.053L142.081 256.699L143.084 255.053H143.991L142.512 257.284L144.037 259.574H143.143L142.098 257.877L141.054 259.574H140.155L141.676 257.284L140.201 255.053H141.091ZM146.707 255.053V255.646H144.262V255.053H146.707ZM145.09 253.954H145.863V258.454C145.863 258.607 145.886 258.723 145.934 258.801C145.981 258.879 146.042 258.93 146.118 258.955C146.193 258.98 146.274 258.993 146.36 258.993C146.424 258.993 146.491 258.987 146.56 258.976C146.633 258.962 146.687 258.951 146.723 258.943L146.728 259.574C146.666 259.593 146.585 259.611 146.485 259.628C146.388 259.648 146.269 259.657 146.13 259.657C145.941 259.657 145.767 259.62 145.608 259.544C145.449 259.469 145.322 259.344 145.228 259.168C145.136 258.99 145.09 258.751 145.09 258.45V253.954Z" fill="#A3A3A3"/>
<path d="M232.947 253.49V259.574H232.153V253.49H232.947ZM234.902 253.49V254.15H230.202V253.49H234.902ZM237.146 259.657C236.831 259.657 236.545 259.604 236.289 259.499C236.036 259.39 235.817 259.238 235.633 259.043C235.452 258.848 235.313 258.617 235.215 258.35C235.118 258.082 235.069 257.79 235.069 257.472V257.297C235.069 256.929 235.123 256.602 235.232 256.315C235.341 256.025 235.488 255.78 235.675 255.579C235.862 255.379 236.073 255.227 236.31 255.124C236.547 255.021 236.792 254.969 237.045 254.969C237.368 254.969 237.647 255.025 237.881 255.136C238.118 255.248 238.311 255.404 238.462 255.604C238.612 255.802 238.724 256.036 238.796 256.306C238.868 256.574 238.905 256.866 238.905 257.184V257.531H235.529V256.9H238.132V256.841C238.121 256.641 238.079 256.446 238.006 256.256C237.937 256.067 237.825 255.911 237.672 255.788C237.519 255.666 237.31 255.604 237.045 255.604C236.87 255.604 236.708 255.642 236.561 255.717C236.413 255.79 236.286 255.898 236.18 256.043C236.075 256.188 235.992 256.365 235.934 256.574C235.875 256.783 235.846 257.024 235.846 257.297V257.472C235.846 257.687 235.875 257.889 235.934 258.078C235.995 258.265 236.083 258.429 236.197 258.571C236.314 258.713 236.455 258.824 236.619 258.905C236.786 258.986 236.976 259.026 237.187 259.026C237.46 259.026 237.692 258.971 237.881 258.859C238.07 258.748 238.236 258.599 238.378 258.412L238.846 258.784C238.749 258.932 238.625 259.072 238.474 259.206C238.324 259.34 238.139 259.448 237.919 259.532C237.701 259.616 237.444 259.657 237.146 259.657ZM240.329 255.053L241.32 256.699L242.322 255.053H243.229L241.75 257.284L243.275 259.574H242.381L241.336 257.877L240.292 259.574H239.394L240.914 257.284L239.439 255.053H240.329ZM245.945 255.053V255.646H243.501V255.053H245.945ZM244.328 253.954H245.101V258.454C245.101 258.607 245.125 258.723 245.172 258.801C245.219 258.879 245.281 258.93 245.356 258.955C245.431 258.98 245.512 258.993 245.598 258.993C245.662 258.993 245.729 258.987 245.799 258.976C245.871 258.962 245.925 258.951 245.962 258.943L245.966 259.574C245.905 259.593 245.824 259.611 245.723 259.628C245.626 259.648 245.508 259.657 245.368 259.657C245.179 259.657 245.005 259.62 244.846 259.544C244.687 259.469 244.561 259.344 244.466 259.168C244.374 258.99 244.328 258.751 244.328 258.45V253.954Z" fill="#A3A3A3"/>
<path d="M332.181 253.49V259.574H331.387V253.49H332.181ZM334.136 253.49V254.15H329.436V253.49H334.136ZM336.38 259.657C336.065 259.657 335.78 259.604 335.524 259.499C335.27 259.39 335.051 259.238 334.868 259.043C334.686 258.848 334.547 258.617 334.45 258.35C334.352 258.082 334.303 257.79 334.303 257.472V257.297C334.303 256.929 334.358 256.602 334.466 256.315C334.575 256.025 334.723 255.78 334.909 255.579C335.096 255.379 335.308 255.227 335.544 255.124C335.781 255.021 336.026 254.969 336.28 254.969C336.603 254.969 336.881 255.025 337.115 255.136C337.352 255.248 337.546 255.404 337.696 255.604C337.847 255.802 337.958 256.036 338.03 256.306C338.103 256.574 338.139 256.866 338.139 257.184V257.531H334.763V256.9H337.366V256.841C337.355 256.641 337.313 256.446 337.241 256.256C337.171 256.067 337.06 255.911 336.906 255.788C336.753 255.666 336.544 255.604 336.28 255.604C336.104 255.604 335.943 255.642 335.795 255.717C335.647 255.79 335.521 255.898 335.415 256.043C335.309 256.188 335.227 256.365 335.168 256.574C335.11 256.783 335.081 257.024 335.081 257.297V257.472C335.081 257.687 335.11 257.889 335.168 258.078C335.23 258.265 335.317 258.429 335.432 258.571C335.549 258.713 335.689 258.824 335.854 258.905C336.021 258.986 336.21 259.026 336.422 259.026C336.695 259.026 336.926 258.971 337.115 258.859C337.305 258.748 337.471 258.599 337.613 258.412L338.081 258.784C337.983 258.932 337.859 259.072 337.709 259.206C337.558 259.34 337.373 259.448 337.153 259.532C336.936 259.616 336.678 259.657 336.38 259.657ZM339.564 255.053L340.554 256.699L341.557 255.053H342.463L340.984 257.284L342.509 259.574H341.615L340.571 257.877L339.526 259.574H338.628L340.149 257.284L338.674 255.053H339.564ZM345.179 255.053V255.646H342.735V255.053H345.179ZM343.562 253.954H344.335V258.454C344.335 258.607 344.359 258.723 344.406 258.801C344.454 258.879 344.515 258.93 344.59 258.955C344.665 258.98 344.746 258.993 344.833 258.993C344.897 258.993 344.963 258.987 345.033 258.976C345.105 258.962 345.16 258.951 345.196 258.943L345.2 259.574C345.139 259.593 345.058 259.611 344.958 259.628C344.86 259.648 344.742 259.657 344.603 259.657C344.413 259.657 344.239 259.62 344.08 259.544C343.922 259.469 343.795 259.344 343.7 259.168C343.608 258.99 343.562 258.751 343.562 258.45V253.954Z" fill="#A3A3A3"/>
<path d="M431.417 253.49V259.574H430.623V253.49H431.417ZM433.373 253.49V254.15H428.672V253.49H433.373ZM435.616 259.657C435.302 259.657 435.016 259.604 434.76 259.499C434.506 259.39 434.288 259.238 434.104 259.043C433.923 258.848 433.784 258.617 433.686 258.35C433.589 258.082 433.54 257.79 433.54 257.472V257.297C433.54 256.929 433.594 256.602 433.703 256.315C433.811 256.025 433.959 255.78 434.146 255.579C434.332 255.379 434.544 255.227 434.781 255.124C435.017 255.021 435.263 254.969 435.516 254.969C435.839 254.969 436.118 255.025 436.352 255.136C436.588 255.248 436.782 255.404 436.932 255.604C437.083 255.802 437.194 256.036 437.267 256.306C437.339 256.574 437.375 256.866 437.375 257.184V257.531H433.999V256.9H436.602V256.841C436.591 256.641 436.549 256.446 436.477 256.256C436.407 256.067 436.296 255.911 436.143 255.788C435.99 255.666 435.781 255.604 435.516 255.604C435.341 255.604 435.179 255.642 435.031 255.717C434.884 255.79 434.757 255.898 434.651 256.043C434.545 256.188 434.463 256.365 434.405 256.574C434.346 256.783 434.317 257.024 434.317 257.297V257.472C434.317 257.687 434.346 257.889 434.405 258.078C434.466 258.265 434.554 258.429 434.668 258.571C434.785 258.713 434.926 258.824 435.09 258.905C435.257 258.986 435.446 259.026 435.658 259.026C435.931 259.026 436.162 258.971 436.352 258.859C436.541 258.748 436.707 258.599 436.849 258.412L437.317 258.784C437.219 258.932 437.095 259.072 436.945 259.206C436.795 259.34 436.609 259.448 436.389 259.532C436.172 259.616 435.914 259.657 435.616 259.657ZM438.8 255.053L439.79 256.699L440.793 255.053H441.7L440.221 257.284L441.746 259.574H440.852L439.807 257.877L438.763 259.574H437.864L439.385 257.284L437.91 255.053H438.8ZM444.416 255.053V255.646H441.971V255.053H444.416ZM442.799 253.954H443.572V258.454C443.572 258.607 443.595 258.723 443.643 258.801C443.69 258.879 443.751 258.93 443.827 258.955C443.902 258.98 443.982 258.993 444.069 258.993C444.133 258.993 444.2 258.987 444.269 258.976C444.342 258.962 444.396 258.951 444.432 258.943L444.437 259.574C444.375 259.593 444.294 259.611 444.194 259.628C444.097 259.648 443.978 259.657 443.839 259.657C443.65 259.657 443.476 259.62 443.317 259.544C443.158 259.469 443.031 259.344 442.937 259.168C442.845 258.99 442.799 258.751 442.799 258.45V253.954Z" fill="#A3A3A3"/>
<path d="M530.652 253.49V259.574H529.858V253.49H530.652ZM532.607 253.49V254.15H527.907V253.49H532.607ZM534.851 259.657C534.536 259.657 534.25 259.604 533.994 259.499C533.741 259.39 533.522 259.238 533.338 259.043C533.157 258.848 533.018 258.617 532.92 258.35C532.823 258.082 532.774 257.79 532.774 257.472V257.297C532.774 256.929 532.828 256.602 532.937 256.315C533.046 256.025 533.193 255.78 533.38 255.579C533.567 255.379 533.778 255.227 534.015 255.124C534.252 255.021 534.497 254.969 534.75 254.969C535.074 254.969 535.352 255.025 535.586 255.136C535.823 255.248 536.016 255.404 536.167 255.604C536.317 255.802 536.429 256.036 536.501 256.306C536.574 256.574 536.61 256.866 536.61 257.184V257.531H533.234V256.9H535.837V256.841C535.826 256.641 535.784 256.446 535.711 256.256C535.642 256.067 535.53 255.911 535.377 255.788C535.224 255.666 535.015 255.604 534.75 255.604C534.575 255.604 534.413 255.642 534.266 255.717C534.118 255.79 533.991 255.898 533.886 256.043C533.78 256.188 533.698 256.365 533.639 256.574C533.581 256.783 533.551 257.024 533.551 257.297V257.472C533.551 257.687 533.581 257.889 533.639 258.078C533.7 258.265 533.788 258.429 533.902 258.571C534.019 258.713 534.16 258.824 534.324 258.905C534.491 258.986 534.681 259.026 534.893 259.026C535.165 259.026 535.397 258.971 535.586 258.859C535.776 258.748 535.941 258.599 536.083 258.412L536.551 258.784C536.454 258.932 536.33 259.072 536.179 259.206C536.029 259.34 535.844 259.448 535.624 259.532C535.406 259.616 535.149 259.657 534.851 259.657ZM538.035 255.053L539.025 256.699L540.028 255.053H540.934L539.455 257.284L540.98 259.574H540.086L539.041 257.877L537.997 259.574H537.099L538.619 257.284L537.145 255.053H538.035ZM543.65 255.053V255.646H541.206V255.053H543.65ZM542.033 253.954H542.806V258.454C542.806 258.607 542.83 258.723 542.877 258.801C542.924 258.879 542.986 258.93 543.061 258.955C543.136 258.98 543.217 258.993 543.303 258.993C543.367 258.993 543.434 258.987 543.504 258.976C543.576 258.962 543.631 258.951 543.667 258.943L543.671 259.574C543.61 259.593 543.529 259.611 543.429 259.628C543.331 259.648 543.213 259.657 543.073 259.657C542.884 259.657 542.71 259.62 542.551 259.544C542.392 259.469 542.266 259.344 542.171 259.168C542.079 258.99 542.033 258.751 542.033 258.45V253.954Z" fill="#A3A3A3"/>
<path d="M629.89 253.49V259.574H629.096V253.49H629.89ZM631.845 253.49V254.15H627.145V253.49H631.845ZM634.089 259.657C633.774 259.657 633.489 259.604 633.232 259.499C632.979 259.39 632.76 259.238 632.577 259.043C632.395 258.848 632.256 258.617 632.159 258.35C632.061 258.082 632.012 257.79 632.012 257.472V257.297C632.012 256.929 632.067 256.602 632.175 256.315C632.284 256.025 632.432 255.78 632.618 255.579C632.805 255.379 633.017 255.227 633.253 255.124C633.49 255.021 633.735 254.969 633.989 254.969C634.312 254.969 634.59 255.025 634.824 255.136C635.061 255.248 635.255 255.404 635.405 255.604C635.556 255.802 635.667 256.036 635.739 256.306C635.812 256.574 635.848 256.866 635.848 257.184V257.531H632.472V256.9H635.075V256.841C635.064 256.641 635.022 256.446 634.95 256.256C634.88 256.067 634.769 255.911 634.615 255.788C634.462 255.666 634.253 255.604 633.989 255.604C633.813 255.604 633.652 255.642 633.504 255.717C633.356 255.79 633.23 255.898 633.124 256.043C633.018 256.188 632.936 256.365 632.877 256.574C632.819 256.783 632.79 257.024 632.79 257.297V257.472C632.79 257.687 632.819 257.889 632.877 258.078C632.939 258.265 633.026 258.429 633.141 258.571C633.258 258.713 633.398 258.824 633.563 258.905C633.73 258.986 633.919 259.026 634.131 259.026C634.404 259.026 634.635 258.971 634.824 258.859C635.014 258.748 635.18 258.599 635.322 258.412L635.79 258.784C635.692 258.932 635.568 259.072 635.418 259.206C635.267 259.34 635.082 259.448 634.862 259.532C634.645 259.616 634.387 259.657 634.089 259.657ZM637.273 255.053L638.263 256.699L639.266 255.053H640.172L638.693 257.284L640.218 259.574H639.324L638.28 257.877L637.235 259.574H636.337L637.858 257.284L636.383 255.053H637.273ZM642.888 255.053V255.646H640.444V255.053H642.888ZM641.271 253.954H642.044V258.454C642.044 258.607 642.068 258.723 642.115 258.801C642.163 258.879 642.224 258.93 642.299 258.955C642.374 258.98 642.455 258.993 642.541 258.993C642.606 258.993 642.672 258.987 642.742 258.976C642.814 258.962 642.869 258.951 642.905 258.943L642.909 259.574C642.848 259.593 642.767 259.611 642.667 259.628C642.569 259.648 642.451 259.657 642.312 259.657C642.122 259.657 641.948 259.62 641.789 259.544C641.631 259.469 641.504 259.344 641.409 259.168C641.317 258.99 641.271 258.751 641.271 258.45V253.954Z" fill="#A3A3A3"/>
<path d="M714.763 253.49V259.574H713.969V253.49H714.763ZM716.718 253.49V254.15H712.018V253.49H716.718ZM718.962 259.657C718.647 259.657 718.362 259.604 718.106 259.499C717.852 259.39 717.633 259.238 717.45 259.043C717.269 258.848 717.129 258.617 717.032 258.35C716.934 258.082 716.886 257.79 716.886 257.472V257.297C716.886 256.929 716.94 256.602 717.048 256.315C717.157 256.025 717.305 255.78 717.491 255.579C717.678 255.379 717.89 255.227 718.126 255.124C718.363 255.021 718.608 254.969 718.862 254.969C719.185 254.969 719.463 255.025 719.697 255.136C719.934 255.248 720.128 255.404 720.278 255.604C720.429 255.802 720.54 256.036 720.612 256.306C720.685 256.574 720.721 256.866 720.721 257.184V257.531H717.345V256.9H719.948V256.841C719.937 256.641 719.895 256.446 719.823 256.256C719.753 256.067 719.642 255.911 719.489 255.788C719.335 255.666 719.126 255.604 718.862 255.604C718.686 255.604 718.525 255.642 718.377 255.717C718.229 255.79 718.103 255.898 717.997 256.043C717.891 256.188 717.809 256.365 717.75 256.574C717.692 256.783 717.663 257.024 717.663 257.297V257.472C717.663 257.687 717.692 257.889 717.75 258.078C717.812 258.265 717.899 258.429 718.014 258.571C718.131 258.713 718.271 258.824 718.436 258.905C718.603 258.986 718.792 259.026 719.004 259.026C719.277 259.026 719.508 258.971 719.697 258.859C719.887 258.748 720.053 258.599 720.195 258.412L720.663 258.784C720.565 258.932 720.441 259.072 720.291 259.206C720.14 259.34 719.955 259.448 719.735 259.532C719.518 259.616 719.26 259.657 718.962 259.657ZM722.146 255.053L723.136 256.699L724.139 255.053H725.046L723.566 257.284L725.091 259.574H724.197L723.153 257.877L722.108 259.574H721.21L722.731 257.284L721.256 255.053H722.146ZM727.761 255.053V255.646H725.317V255.053H727.761ZM726.144 253.954H726.917V258.454C726.917 258.607 726.941 258.723 726.988 258.801C727.036 258.879 727.097 258.93 727.172 258.955C727.247 258.98 727.328 258.993 727.415 258.993C727.479 258.993 727.545 258.987 727.615 258.976C727.688 258.962 727.742 258.951 727.778 258.943L727.782 259.574C727.721 259.593 727.64 259.611 727.54 259.628C727.442 259.648 727.324 259.657 727.185 259.657C726.995 259.657 726.821 259.62 726.662 259.544C726.504 259.469 726.377 259.344 726.282 259.168C726.19 258.99 726.144 258.751 726.144 258.45V253.954Z" fill="#A3A3A3"/>
<path d="M24.4771 244.924V245.851C24.4771 246.35 24.4326 246.771 24.3434 247.113C24.2543 247.456 24.1262 247.732 23.959 247.94C23.7919 248.149 23.59 248.301 23.3532 248.396C23.1192 248.488 22.8546 248.534 22.5593 248.534C22.3254 248.534 22.1095 248.505 21.9117 248.446C21.7139 248.388 21.5357 248.294 21.3769 248.166C21.2209 248.035 21.0872 247.865 20.9758 247.656C20.8644 247.447 20.7794 247.194 20.7209 246.896C20.6624 246.598 20.6332 246.25 20.6332 245.851V244.924C20.6332 244.425 20.6778 244.007 20.7669 243.67C20.8588 243.333 20.9883 243.063 21.1555 242.86C21.3226 242.654 21.5231 242.506 21.7571 242.417C21.9939 242.328 22.2585 242.283 22.551 242.283C22.7877 242.283 23.005 242.312 23.2028 242.371C23.4033 242.427 23.5816 242.517 23.7376 242.643C23.8936 242.765 24.0259 242.929 24.1345 243.136C24.2459 243.339 24.3309 243.588 24.3894 243.883C24.4479 244.179 24.4771 244.525 24.4771 244.924ZM23.7 245.977V244.794C23.7 244.521 23.6833 244.282 23.6498 244.076C23.6192 243.867 23.5732 243.688 23.512 243.541C23.4507 243.393 23.3727 243.273 23.278 243.181C23.1861 243.09 23.0788 243.023 22.9563 242.981C22.8365 242.936 22.7014 242.914 22.551 242.914C22.3671 242.914 22.2042 242.949 22.0621 243.019C21.9201 243.085 21.8003 243.193 21.7028 243.34C21.6081 243.488 21.5357 243.681 21.4855 243.921C21.4354 244.161 21.4103 244.452 21.4103 244.794V245.977C21.4103 246.25 21.4257 246.491 21.4563 246.7C21.4897 246.908 21.5385 247.089 21.6025 247.243C21.6666 247.393 21.7446 247.517 21.8365 247.615C21.9284 247.712 22.0343 247.784 22.1541 247.832C22.2766 247.876 22.4117 247.899 22.5593 247.899C22.7487 247.899 22.9145 247.862 23.0565 247.79C23.1986 247.718 23.317 247.605 23.4117 247.452C23.5092 247.296 23.5816 247.096 23.629 246.854C23.6763 246.609 23.7 246.317 23.7 245.977Z" fill="#A3A3A3"/>
<path d="M19.8321 199.04V199.675H15.8503V199.12L17.8433 196.901C18.0884 196.628 18.2778 196.397 18.4115 196.207C18.548 196.015 18.6427 195.844 18.6956 195.693C18.7513 195.54 18.7792 195.384 18.7792 195.226C18.7792 195.025 18.7374 194.844 18.6539 194.682C18.5731 194.518 18.4533 194.387 18.2945 194.29C18.1358 194.192 17.9436 194.143 17.7179 194.143C17.4478 194.143 17.2221 194.196 17.0411 194.302C16.8628 194.405 16.7291 194.55 16.64 194.737C16.5508 194.923 16.5063 195.138 16.5063 195.38H15.7333C15.7333 195.038 15.8085 194.724 15.9589 194.44C16.1093 194.156 16.3322 193.93 16.6274 193.763C16.9227 193.593 17.2862 193.508 17.7179 193.508C18.1023 193.508 18.431 193.577 18.704 193.713C18.977 193.847 19.1859 194.036 19.3307 194.281C19.4784 194.524 19.5522 194.808 19.5522 195.134C19.5522 195.312 19.5215 195.493 19.4602 195.677C19.4018 195.858 19.3196 196.039 19.2137 196.22C19.1107 196.401 18.9895 196.579 18.8502 196.755C18.7137 196.93 18.5675 197.103 18.4115 197.273L16.782 199.04H19.8321ZM21.6371 196.78L21.0187 196.621L21.3237 193.592H24.4448V194.306H21.9797L21.7959 195.961C21.9073 195.897 22.0479 195.837 22.2179 195.781C22.3906 195.726 22.5883 195.698 22.8112 195.698C23.0925 195.698 23.3446 195.746 23.5674 195.844C23.7902 195.939 23.9797 196.075 24.1356 196.253C24.2944 196.432 24.4156 196.646 24.4991 196.897C24.5827 197.147 24.6245 197.427 24.6245 197.737C24.6245 198.029 24.5841 198.298 24.5033 198.543C24.4253 198.788 24.3069 199.003 24.1482 199.186C23.9894 199.367 23.7889 199.508 23.5465 199.608C23.307 199.709 23.0242 199.759 22.6983 199.759C22.4532 199.759 22.2206 199.725 22.0006 199.659C21.7833 199.589 21.5883 199.484 21.4156 199.345C21.2457 199.203 21.1065 199.028 20.9978 198.819C20.892 198.607 20.8251 198.359 20.7973 198.075H21.5326C21.5661 198.303 21.6329 198.496 21.7332 198.652C21.8335 198.808 21.9644 198.926 22.1259 199.007C22.2903 199.085 22.4811 199.124 22.6983 199.124C22.8822 199.124 23.0451 199.092 23.1872 199.028C23.3293 198.964 23.449 198.872 23.5465 198.752C23.644 198.632 23.7178 198.487 23.768 198.317C23.8209 198.147 23.8473 197.957 23.8473 197.745C23.8473 197.553 23.8209 197.375 23.768 197.21C23.715 197.046 23.6357 196.902 23.5298 196.78C23.4267 196.657 23.3 196.563 23.1496 196.496C22.9992 196.426 22.8265 196.391 22.6315 196.391C22.3724 196.391 22.1761 196.426 22.0424 196.496C21.9115 196.565 21.7764 196.66 21.6371 196.78Z" fill="#A3A3A3"/>
<path d="M16.8238 148.861L16.2054 148.703L16.5104 145.673H19.6316V146.388H17.1664L16.9826 148.042C17.094 147.978 17.2347 147.918 17.4046 147.863C17.5773 147.807 17.775 147.779 17.9979 147.779C18.2792 147.779 18.5313 147.828 18.7541 147.925C18.977 148.02 19.1664 148.157 19.3224 148.335C19.4811 148.513 19.6023 148.728 19.6859 148.978C19.7694 149.229 19.8112 149.509 19.8112 149.818C19.8112 150.111 19.7708 150.379 19.69 150.625C19.6121 150.87 19.4937 151.084 19.3349 151.268C19.1761 151.449 18.9756 151.59 18.7332 151.69C18.4937 151.79 18.211 151.84 17.8851 151.84C17.6399 151.84 17.4074 151.807 17.1873 151.74C16.97 151.67 16.7751 151.566 16.6024 151.427C16.4325 151.285 16.2932 151.109 16.1845 150.9C16.0787 150.689 16.0118 150.441 15.984 150.157H16.7194C16.7528 150.385 16.8196 150.577 16.9199 150.733C17.0202 150.889 17.1511 151.008 17.3127 151.088C17.477 151.166 17.6678 151.205 17.8851 151.205C18.0689 151.205 18.2319 151.173 18.3739 151.109C18.516 151.045 18.6358 150.953 18.7332 150.833C18.8307 150.714 18.9045 150.569 18.9547 150.399C19.0076 150.229 19.0341 150.038 19.0341 149.827C19.0341 149.634 19.0076 149.456 18.9547 149.292C18.9018 149.127 18.8224 148.984 18.7165 148.861C18.6135 148.739 18.4867 148.644 18.3363 148.577C18.1859 148.508 18.0132 148.473 17.8182 148.473C17.5592 148.473 17.3628 148.508 17.2291 148.577C17.0982 148.647 16.9631 148.742 16.8238 148.861ZM24.4783 148.23V149.158C24.4783 149.657 24.4337 150.077 24.3446 150.42C24.2554 150.762 24.1273 151.038 23.9602 151.247C23.793 151.456 23.5911 151.608 23.3543 151.703C23.1203 151.794 22.8557 151.84 22.5605 151.84C22.3265 151.84 22.1106 151.811 21.9128 151.753C21.7151 151.694 21.5368 151.601 21.378 151.473C21.2221 151.342 21.0883 151.172 20.9769 150.963C20.8655 150.754 20.7806 150.501 20.7221 150.203C20.6636 149.905 20.6343 149.556 20.6343 149.158V148.23C20.6343 147.732 20.6789 147.314 20.768 146.977C20.8599 146.64 20.9895 146.37 21.1566 146.166C21.3237 145.96 21.5243 145.813 21.7583 145.724C21.995 145.634 22.2596 145.59 22.5521 145.59C22.7889 145.59 23.0061 145.619 23.2039 145.678C23.4045 145.733 23.5827 145.824 23.7387 145.949C23.8947 146.072 24.027 146.236 24.1356 146.442C24.2471 146.646 24.332 146.895 24.3905 147.19C24.449 147.485 24.4783 147.832 24.4783 148.23ZM23.7011 149.283V148.101C23.7011 147.828 23.6844 147.588 23.651 147.382C23.6203 147.173 23.5744 146.995 23.5131 146.847C23.4518 146.7 23.3738 146.58 23.2791 146.488C23.1872 146.396 23.08 146.329 22.9574 146.288C22.8376 146.243 22.7025 146.221 22.5521 146.221C22.3683 146.221 22.2053 146.256 22.0633 146.325C21.9212 146.392 21.8014 146.499 21.7039 146.647C21.6092 146.795 21.5368 146.988 21.4867 147.228C21.4365 147.467 21.4115 147.758 21.4115 148.101V149.283C21.4115 149.556 21.4268 149.797 21.4574 150.006C21.4908 150.215 21.5396 150.396 21.6037 150.549C21.6677 150.7 21.7457 150.824 21.8376 150.921C21.9296 151.019 22.0354 151.091 22.1552 151.138C22.2777 151.183 22.4128 151.205 22.5605 151.205C22.7499 151.205 22.9156 151.169 23.0577 151.097C23.1997 151.024 23.3181 150.911 23.4128 150.758C23.5103 150.602 23.5827 150.403 23.6301 150.161C23.6774 149.916 23.7011 149.623 23.7011 149.283Z" fill="#A3A3A3"/>
<path d="M19.7778 97.7544V98.189L17.2583 103.838H16.4436L18.9589 98.3895H15.6665V97.7544H19.7778ZM21.6371 100.942L21.0187 100.784L21.3237 97.7544H24.4448V98.4689H21.9797L21.7959 100.123C21.9073 100.059 22.0479 99.9995 22.2179 99.9438C22.3906 99.8881 22.5883 99.8603 22.8112 99.8603C23.0925 99.8603 23.3446 99.909 23.5674 100.006C23.7902 100.101 23.9797 100.238 24.1356 100.416C24.2944 100.594 24.4156 100.809 24.4991 101.059C24.5827 101.31 24.6245 101.59 24.6245 101.899C24.6245 102.192 24.5841 102.46 24.5033 102.706C24.4253 102.951 24.3069 103.165 24.1482 103.349C23.9894 103.53 23.7889 103.671 23.5465 103.771C23.307 103.871 23.0242 103.921 22.6983 103.921C22.4532 103.921 22.2206 103.888 22.0006 103.821C21.7833 103.752 21.5883 103.647 21.4156 103.508C21.2457 103.366 21.1065 103.19 20.9978 102.981C20.892 102.77 20.8251 102.522 20.7973 102.238H21.5326C21.5661 102.466 21.6329 102.658 21.7332 102.814C21.8335 102.97 21.9644 103.089 22.1259 103.169C22.2903 103.247 22.4811 103.286 22.6983 103.286C22.8822 103.286 23.0451 103.254 23.1872 103.19C23.3293 103.126 23.449 103.034 23.5465 102.915C23.644 102.795 23.7178 102.65 23.768 102.48C23.8209 102.31 23.8473 102.119 23.8473 101.908C23.8473 101.715 23.8209 101.537 23.768 101.373C23.715 101.208 23.6357 101.065 23.5298 100.942C23.4267 100.82 23.3 100.725 23.1496 100.658C22.9992 100.589 22.8265 100.554 22.6315 100.554C22.3724 100.554 22.1761 100.589 22.0424 100.658C21.9115 100.728 21.7764 100.823 21.6371 100.942Z" fill="#A3A3A3"/>
<path d="M13.5725 49.8021V55.9189H12.7995V50.7672L11.2411 51.3355V50.6377L13.4513 49.8021H13.5725ZM19.6643 52.3926V53.3201C19.6643 53.8187 19.6197 54.2393 19.5306 54.5819C19.4415 54.9245 19.3133 55.2003 19.1462 55.4092C18.9791 55.6181 18.7771 55.7699 18.5404 55.8646C18.3064 55.9565 18.0418 56.0025 17.7465 56.0025C17.5125 56.0025 17.2967 55.9733 17.0989 55.9148C16.9011 55.8563 16.7228 55.763 16.5641 55.6348C16.4081 55.5039 16.2744 55.334 16.163 55.1251C16.0516 54.9162 15.9666 54.6627 15.9081 54.3647C15.8496 54.0666 15.8204 53.7184 15.8204 53.3201V52.3926C15.8204 51.894 15.8649 51.4761 15.9541 51.1391C16.046 50.8021 16.1755 50.5319 16.3426 50.3285C16.5098 50.1224 16.7103 49.9748 16.9443 49.8856C17.1811 49.7965 17.4457 49.7519 17.7381 49.7519C17.9749 49.7519 18.1922 49.7812 18.3899 49.8397C18.5905 49.8954 18.7688 49.9859 18.9248 50.1113C19.0807 50.2338 19.213 50.3982 19.3217 50.6043C19.4331 50.8076 19.5181 51.0569 19.5766 51.3522C19.635 51.6474 19.6643 51.9942 19.6643 52.3926ZM18.8872 53.4455V52.263C18.8872 51.9901 18.8704 51.7505 18.837 51.5444C18.8064 51.3355 18.7604 51.1572 18.6991 51.0096C18.6379 50.8619 18.5599 50.7422 18.4652 50.6502C18.3732 50.5583 18.266 50.4915 18.1434 50.4497C18.0237 50.4051 17.8886 50.3828 17.7381 50.3828C17.5543 50.3828 17.3914 50.4177 17.2493 50.4873C17.1072 50.5541 16.9875 50.6614 16.89 50.809C16.7953 50.9566 16.7228 51.1502 16.6727 51.3898C16.6226 51.6293 16.5975 51.9204 16.5975 52.263V53.4455C16.5975 53.7184 16.6128 53.9594 16.6435 54.1683C16.6769 54.3772 16.7256 54.5582 16.7897 54.7114C16.8538 54.8619 16.9318 54.9858 17.0237 55.0833C17.1156 55.1808 17.2214 55.2532 17.3412 55.3006C17.4638 55.3451 17.5989 55.3674 17.7465 55.3674C17.9359 55.3674 18.1017 55.3312 18.2437 55.2588C18.3858 55.1864 18.5041 55.0736 18.5989 54.9204C18.6963 54.7644 18.7688 54.5652 18.8161 54.3229C18.8635 54.0778 18.8872 53.7853 18.8872 53.4455ZM24.4776 52.3926V53.3201C24.4776 53.8187 24.433 54.2393 24.3439 54.5819C24.2547 54.9245 24.1266 55.2003 23.9595 55.4092C23.7923 55.6181 23.5904 55.7699 23.3536 55.8646C23.1197 55.9565 22.855 56.0025 22.5598 56.0025C22.3258 56.0025 22.1099 55.9733 21.9122 55.9148C21.7144 55.8563 21.5361 55.763 21.3774 55.6348C21.2214 55.5039 21.0877 55.334 20.9762 55.1251C20.8648 54.9162 20.7799 54.6627 20.7214 54.3647C20.6629 54.0666 20.6336 53.7184 20.6336 53.3201V52.3926C20.6336 51.894 20.6782 51.4761 20.7673 51.1391C20.8593 50.8021 20.9888 50.5319 21.1559 50.3285C21.323 50.1224 21.5236 49.9748 21.7576 49.8856C21.9943 49.7965 22.2589 49.7519 22.5514 49.7519C22.7882 49.7519 23.0055 49.7812 23.2032 49.8397C23.4038 49.8954 23.582 49.9859 23.738 50.1113C23.894 50.2338 24.0263 50.3982 24.135 50.6043C24.2464 50.8076 24.3313 51.0569 24.3898 51.3522C24.4483 51.6474 24.4776 51.9942 24.4776 52.3926ZM23.7004 53.4455V52.263C23.7004 51.9901 23.6837 51.7505 23.6503 51.5444C23.6196 51.3355 23.5737 51.1572 23.5124 51.0096C23.4511 50.8619 23.3731 50.7422 23.2784 50.6502C23.1865 50.5583 23.0793 50.4915 22.9567 50.4497C22.8369 50.4051 22.7018 50.3828 22.5514 50.3828C22.3676 50.3828 22.2046 50.4177 22.0626 50.4873C21.9205 50.5541 21.8007 50.6614 21.7032 50.809C21.6085 50.9566 21.5361 51.1502 21.486 51.3898C21.4358 51.6293 21.4108 51.9204 21.4108 52.263V53.4455C21.4108 53.7184 21.4261 53.9594 21.4567 54.1683C21.4902 54.3772 21.5389 54.5582 21.603 54.7114C21.667 54.8619 21.745 54.9858 21.837 55.0833C21.9289 55.1808 22.0347 55.2532 22.1545 55.3006C22.2771 55.3451 22.4121 55.3674 22.5598 55.3674C22.7492 55.3674 22.9149 55.3312 23.057 55.2588C23.199 55.1864 23.3174 55.0736 23.4121 54.9204C23.5096 54.7644 23.582 54.5652 23.6294 54.3229C23.6767 54.0778 23.7004 53.7853 23.7004 53.4455Z" fill="#A3A3A3"/>
<path d="M13.5725 1.88313V8H12.7995V2.84829L11.2411 3.41652V2.71877L13.4513 1.88313H13.5725ZM19.8314 7.36492V8H15.8496V7.4443L17.8426 5.22568C18.0877 4.95271 18.2771 4.72151 18.4108 4.5321C18.5473 4.33991 18.642 4.1686 18.695 4.01818C18.7507 3.86498 18.7785 3.709 18.7785 3.55023C18.7785 3.34967 18.7367 3.16862 18.6532 3.00706C18.5724 2.84272 18.4526 2.7118 18.2938 2.61431C18.1351 2.51682 17.9429 2.46808 17.7173 2.46808C17.4471 2.46808 17.2214 2.521 17.0404 2.62685C16.8621 2.72991 16.7284 2.87475 16.6393 3.06138C16.5501 3.248 16.5056 3.46249 16.5056 3.70482H15.7326C15.7326 3.36221 15.8078 3.04884 15.9582 2.76473C16.1087 2.48061 16.3315 2.25499 16.6267 2.08786C16.922 1.91795 17.2855 1.83299 17.7173 1.83299C18.1017 1.83299 18.4303 1.90123 18.7033 2.03772C18.9763 2.17142 19.1852 2.36084 19.33 2.60596C19.4777 2.84829 19.5515 3.13241 19.5515 3.45831C19.5515 3.63658 19.5208 3.81763 19.4596 4.00147C19.4011 4.18253 19.3189 4.36358 19.213 4.54464C19.11 4.72569 18.9888 4.90396 18.8495 5.07944C18.7131 5.25493 18.5668 5.42763 18.4108 5.59754L16.7813 7.36492H19.8314ZM21.6364 5.10451L21.018 4.94574L21.323 1.91655H24.4441V2.63103H21.979L21.7952 4.28559C21.9066 4.22152 22.0473 4.16164 22.2172 4.10593C22.3899 4.05022 22.5876 4.02236 22.8105 4.02236C23.0918 4.02236 23.3439 4.07111 23.5667 4.1686C23.7896 4.2633 23.979 4.39979 24.135 4.57806C24.2937 4.75633 24.4149 4.97081 24.4985 5.2215C24.582 5.47219 24.6238 5.75213 24.6238 6.06132C24.6238 6.35379 24.5834 6.62259 24.5026 6.86771C24.4246 7.11283 24.3063 7.32731 24.1475 7.51115C23.9887 7.69221 23.7882 7.83287 23.5458 7.93315C23.3063 8.03343 23.0236 8.08356 22.6977 8.08356C22.4525 8.08356 22.22 8.05014 21.9999 7.98329C21.7826 7.91365 21.5877 7.8092 21.415 7.66992C21.245 7.52786 21.1058 7.35238 20.9971 7.14347C20.8913 6.93178 20.8244 6.68387 20.7966 6.39975H21.5319C21.5654 6.62816 21.6322 6.82036 21.7325 6.97634C21.8328 7.13233 21.9637 7.25071 22.1252 7.33149C22.2896 7.40948 22.4804 7.44848 22.6977 7.44848C22.8815 7.44848 23.0444 7.41645 23.1865 7.35238C23.3286 7.28831 23.4483 7.19639 23.5458 7.07662C23.6433 6.95685 23.7171 6.812 23.7673 6.64209C23.8202 6.47217 23.8467 6.28137 23.8467 6.06968C23.8467 5.87748 23.8202 5.69921 23.7673 5.53487C23.7144 5.37053 23.635 5.22707 23.5291 5.10451C23.4261 4.98195 23.2993 4.88725 23.1489 4.8204C22.9985 4.75076 22.8258 4.71594 22.6308 4.71594C22.3718 4.71594 22.1754 4.75076 22.0417 4.8204C21.9108 4.89003 21.7757 4.98474 21.6364 5.10451Z" fill="#A3A3A3"/>
<path opacity="0.6" d="M39.6523 227.416C39.6523 227.416 69.4232 227.416 89.2705 202.409C109.118 177.402 119.041 83.1461 138.889 83.1461C158.736 83.1461 168.659 135.083 188.507 138.93C208.354 142.778 218.278 138.93 238.125 142.778C257.972 146.625 267.896 171.632 287.743 175.479C307.59 179.326 317.514 179.326 337.361 179.326C357.208 179.326 367.132 138.93 386.979 138.93C406.827 138.93 416.75 152.011 436.597 171.632C456.445 191.252 466.368 237.034 486.216 237.034C506.063 237.034 515.986 181.25 535.834 181.25C555.681 181.25 565.605 231.263 585.452 231.263C605.299 231.263 615.223 211.258 635.07 204.333C654.917 197.408 664.841 204.333 684.688 196.638C704.535 188.944 734.306 71.6045 734.306 71.6045V244.728C734.306 244.728 704.535 244.728 684.688 244.728C664.841 244.728 654.917 244.728 635.07 244.728C615.223 244.728 605.299 244.728 585.452 244.728C565.605 244.728 555.681 244.728 535.834 244.728C515.986 244.728 506.063 244.728 486.216 244.728C466.368 244.728 456.445 244.728 436.597 244.728C416.75 244.728 406.827 244.728 386.979 244.728C367.132 244.728 357.208 244.728 337.361 244.728C317.514 244.728 307.59 244.728 287.743 244.728C267.896 244.728 257.972 244.728 238.125 244.728C218.278 244.728 208.354 244.728 188.507 244.728C168.659 244.728 158.736 244.728 138.889 244.728C119.041 244.728 109.118 244.728 89.2705 244.728C69.4232 244.728 39.6523 244.728 39.6523 244.728V227.416Z" fill="#FAD776"/>
<path opacity="0.6" d="M39.6523 75.4517C39.6523 75.4517 69.4232 103.536 89.2705 115.847C109.118 128.158 119.041 115.847 138.889 137.007C158.736 158.166 168.659 221.645 188.507 221.645C208.354 221.645 218.278 94.6877 238.125 94.6877C257.972 94.6877 267.896 237.034 287.743 237.034C307.59 237.034 317.514 94.6877 337.361 94.6877C357.208 94.6877 367.132 200.486 386.979 206.256C406.827 212.027 416.75 212.027 436.597 212.027C456.445 212.027 466.368 212.027 486.216 198.562C506.063 185.097 515.986 123.542 535.834 123.542C555.681 123.542 565.605 131.236 585.452 131.236C605.299 131.236 615.223 118.925 635.07 106.229C654.917 93.5336 664.841 67.7573 684.688 67.7573C704.535 67.7573 734.306 154.319 734.306 154.319V244.728C734.306 244.728 704.535 244.728 684.688 244.728C664.841 244.728 654.917 244.728 635.07 244.728C615.223 244.728 605.299 244.728 585.452 244.728C565.605 244.728 555.681 244.728 535.834 244.728C515.986 244.728 506.063 244.728 486.216 244.728C466.368 244.728 456.445 244.728 436.597 244.728C416.75 244.728 406.827 244.728 386.979 244.728C367.132 244.728 357.208 244.728 337.361 244.728C317.514 244.728 307.59 244.728 287.743 244.728C267.896 244.728 257.972 244.728 238.125 244.728C218.278 244.728 208.354 244.728 188.507 244.728C168.659 244.728 158.736 244.728 138.889 244.728C119.041 244.728 109.118 244.728 89.2705 244.728C69.4232 244.728 39.6523 244.728 39.6523 244.728V75.4517Z" fill="#95C53D"/>
<path opacity="0.6" d="M39.6523 171.632C39.6523 171.632 69.4232 61.9864 89.2705 61.9864C109.118 61.9864 119.041 94.6875 138.889 94.6875C158.736 94.6875 168.659 58.1392 188.507 58.1392C208.354 58.1392 218.278 177.402 238.125 177.402C257.972 177.402 267.896 152.78 287.743 131.236C307.59 109.692 317.514 69.6808 337.361 69.6808C357.208 69.6808 367.132 206.256 386.979 206.256C406.827 206.256 416.75 163.937 436.597 163.937C456.445 163.937 466.368 185.097 486.216 190.867C506.063 196.638 515.986 196.638 535.834 196.638C555.681 196.638 565.605 131.236 585.452 131.236C605.299 131.236 615.223 242.805 635.07 242.805C654.917 242.805 664.841 188.944 684.688 188.944C704.535 188.944 734.306 235.11 734.306 235.11V244.728C734.306 244.728 704.535 244.728 684.688 244.728C664.841 244.728 654.917 244.728 635.07 244.728C615.223 244.728 605.299 244.728 585.452 244.728C565.605 244.728 555.681 244.728 535.834 244.728C515.986 244.728 506.063 244.728 486.216 244.728C466.368 244.728 456.445 244.728 436.597 244.728C416.75 244.728 406.827 244.728 386.979 244.728C367.132 244.728 357.208 244.728 337.361 244.728C317.514 244.728 307.59 244.728 287.743 244.728C267.896 244.728 257.972 244.728 238.125 244.728C218.278 244.728 208.354 244.728 188.507 244.728C168.659 244.728 158.736 244.728 138.889 244.728C119.041 244.728 109.118 244.728 89.2705 244.728C69.4232 244.728 39.6523 244.728 39.6523 244.728V171.632Z" fill="#7598E9"/>
</svg>
