<svg width="146" height="145" viewBox="0 0 146 145" fill="none" xmlns="http://www.w3.org/2000/svg">
<path d="M73 135C64.7924 135 56.6651 133.383 49.0823 130.242C41.4994 127.102 34.6095 122.498 28.8058 116.694C23.0022 110.89 18.3985 104.001 15.2575 96.4177C12.1166 88.8348 10.5 80.7076 10.5 72.5C10.5 64.2924 12.1166 56.1651 15.2575 48.5823C18.3985 40.9994 23.0022 34.1095 28.8058 28.3058C34.6095 22.5022 41.4995 17.8984 49.0823 14.7575C56.6651 11.6166 64.7924 10 73 10C81.2076 10 89.3349 11.6166 96.9177 14.7575C104.501 17.8984 111.391 22.5022 117.194 28.3058C122.998 34.1095 127.602 40.9994 130.742 48.5823C133.883 56.1651 135.5 64.2924 135.5 72.5C135.5 80.7076 133.883 88.8349 130.742 96.4177C127.602 104.001 122.998 110.891 117.194 116.694C111.391 122.498 104.501 127.102 96.9177 130.242C89.3349 133.383 81.2076 135 73 135L73 135Z" stroke="#8CA9ED" stroke-width="20"/>
<path d="M28.8058 116.694C20.065 107.953 14.1125 96.8169 11.7009 84.6931C9.28934 72.5693 10.5271 60.0027 15.2575 48.5823C19.988 37.1619 27.9988 27.4007 38.2769 20.5331C48.5549 13.6656 60.6387 10 73 10C85.3613 10 97.4451 13.6656 107.723 20.5331C118.001 27.4007 126.012 37.1619 130.742 48.5823C135.473 60.0027 136.711 72.5693 134.299 84.6931C131.887 96.8169 125.935 107.953 117.194 116.694" stroke="#537EE4" stroke-width="20" stroke-linecap="round"/>
<path d="M49.8575 82.0525C49.1058 82.0525 48.345 81.9608 47.575 81.7775C46.805 81.5942 46.0717 81.3192 45.375 80.9525C44.935 80.7325 44.6325 80.4392 44.4675 80.0725C44.3025 79.6875 44.2383 79.2933 44.275 78.89C44.33 78.4683 44.4767 78.1017 44.715 77.79C44.9533 77.46 45.265 77.2308 45.65 77.1025C46.0533 76.9742 46.5025 77.02 46.9975 77.24C47.5475 77.4967 48.0608 77.6708 48.5375 77.7625C49.0142 77.8542 49.4725 77.9 49.9125 77.9C50.8292 77.9 51.59 77.7167 52.195 77.35C52.8183 76.965 53.2767 76.3967 53.57 75.645C53.8817 74.875 54.0375 73.9217 54.0375 72.785V71.355H54.45C54.3033 72.125 54.0008 72.7942 53.5425 73.3625C53.1025 73.9308 52.5525 74.3617 51.8925 74.655C51.2508 74.9483 50.5267 75.095 49.72 75.095C48.6567 75.095 47.6942 74.8292 46.8325 74.2975C45.9892 73.7475 45.32 72.9958 44.825 72.0425C44.33 71.0708 44.0825 69.9892 44.0825 68.7975C44.0825 67.4775 44.3667 66.3133 44.935 65.305C45.5033 64.2967 46.2917 63.5083 47.3 62.94C48.3267 62.3533 49.4908 62.06 50.7925 62.06C52.4975 62.06 53.9367 62.445 55.11 63.215C56.3017 63.985 57.2092 65.1033 57.8325 66.57C58.4558 68.0183 58.7675 69.7875 58.7675 71.8775C58.7675 73.4725 58.5658 74.9025 58.1625 76.1675C57.7592 77.4325 57.1725 78.505 56.4025 79.385C55.6325 80.2467 54.6975 80.9067 53.5975 81.365C52.4975 81.8233 51.2508 82.0525 49.8575 82.0525ZM51.0675 71.245C51.5442 71.245 51.9567 71.135 52.305 70.915C52.6717 70.6767 52.9467 70.365 53.13 69.98C53.3317 69.5767 53.4325 69.1092 53.4325 68.5775C53.4325 68.0275 53.3317 67.5508 53.13 67.1475C52.9467 66.7442 52.6717 66.4417 52.305 66.24C51.9567 66.02 51.5442 65.91 51.0675 65.91C50.5908 65.91 50.1783 66.02 49.83 66.24C49.4817 66.4417 49.2067 66.7442 49.005 67.1475C48.8033 67.5508 48.7025 68.0275 48.7025 68.5775C48.7025 69.1092 48.8033 69.5767 49.005 69.98C49.2067 70.365 49.4817 70.6767 49.83 70.915C50.1783 71.135 50.5908 71.245 51.0675 71.245ZM63.3493 82.355C63.1843 82.8317 62.9368 83.18 62.6068 83.4C62.2768 83.62 61.9193 83.7208 61.5343 83.7025C61.1493 83.7025 60.7918 83.6017 60.4618 83.4C60.1501 83.2167 59.9209 82.9325 59.7743 82.5475C59.6276 82.1808 59.6276 81.75 59.7743 81.255L65.8793 62.225C66.0259 61.7483 66.2643 61.4 66.5943 61.18C66.9426 60.96 67.3001 60.8592 67.6668 60.8775C68.0518 60.8775 68.4093 60.9783 68.7393 61.18C69.0693 61.3633 69.3076 61.6383 69.4543 62.005C69.6009 62.3717 69.5918 62.8117 69.4268 63.325L63.3493 82.355ZM73.7067 81.75C73.0283 81.75 72.5058 81.5758 72.1392 81.2275C71.7908 80.8608 71.6167 80.3475 71.6167 79.6875C71.6167 79.0275 71.7908 78.5233 72.1392 78.175C72.5058 77.8267 73.0283 77.6525 73.7067 77.6525H76.1817V66.405H78.4917L74.5042 68.8525C74.0275 69.1458 73.5783 69.265 73.1567 69.21C72.735 69.1367 72.3775 68.9533 72.0842 68.66C71.7908 68.3667 71.5983 68.0092 71.5067 67.5875C71.415 67.1658 71.4517 66.7442 71.6167 66.3225C71.7817 65.9008 72.1117 65.5433 72.6067 65.25L76.4017 62.885C76.805 62.6283 77.2175 62.4358 77.6392 62.3075C78.0792 62.1792 78.5375 62.115 79.0142 62.115C79.7108 62.115 80.2517 62.2983 80.6367 62.665C81.0217 63.0133 81.2142 63.5267 81.2142 64.205V77.6525H83.4142C84.0925 77.6525 84.6058 77.8267 84.9542 78.175C85.3208 78.5233 85.5042 79.0275 85.5042 79.6875C85.5042 80.3475 85.3208 80.8608 84.9542 81.2275C84.6058 81.5758 84.0925 81.75 83.4142 81.75H73.7067ZM94.1284 82.0525C91.7451 82.0525 89.9117 81.1817 88.6284 79.44C87.3634 77.68 86.7309 75.1958 86.7309 71.9875C86.7309 69.8242 87.0151 68.0092 87.5834 66.5425C88.1517 65.0575 88.9859 63.9392 90.0859 63.1875C91.1859 62.4358 92.5334 62.06 94.1284 62.06C96.5301 62.06 98.3634 62.9033 99.6284 64.59C100.893 66.2767 101.526 68.7333 101.526 71.96C101.526 74.105 101.242 75.9292 100.673 77.4325C100.105 78.9358 99.2709 80.0817 98.1709 80.87C97.0709 81.6583 95.7234 82.0525 94.1284 82.0525ZM94.1284 78.0375C95.0084 78.0375 95.6592 77.5608 96.0809 76.6075C96.5209 75.6358 96.7409 74.0867 96.7409 71.96C96.7409 69.8517 96.5209 68.3483 96.0809 67.45C95.6592 66.5333 95.0084 66.075 94.1284 66.075C93.2484 66.075 92.5884 66.5333 92.1484 67.45C91.7267 68.3483 91.5159 69.8517 91.5159 71.96C91.5159 74.0867 91.7267 75.6358 92.1484 76.6075C92.5884 77.5608 93.2484 78.0375 94.1284 78.0375Z" fill="#2E457D"/>
</svg>
