<svg width="234" height="201" viewBox="0 0 234 201" fill="none" xmlns="http://www.w3.org/2000/svg">
<rect x="1.5" y="2" width="230.5" height="197" rx="6.5" fill="#FAFAFA"/>
<rect x="1.5" y="2" width="230.5" height="197" rx="6.5" stroke="#537EE4" stroke-width="3"/>
<path fill-rule="evenodd" clip-rule="evenodd" d="M111.693 98.6666H121.804C125.759 98.6666 128.415 95.8921 128.415 91.7637V82.2361C128.415 78.1077 125.759 75.3333 121.805 75.3333H111.693C107.738 75.3333 105.082 78.1077 105.082 82.2361V91.7637C105.082 95.8921 107.738 98.6666 111.693 98.6666ZM112.663 85.8333C111.055 85.8333 109.748 84.5246 109.748 82.9166C109.748 81.3087 111.055 80 112.663 80C114.271 80 115.579 81.3087 115.579 82.9166C115.579 84.5246 114.271 85.8333 112.663 85.8333ZM125.872 90.4229C126.263 91.4247 126.06 92.6286 125.643 93.6207C125.147 94.8006 124.2 95.694 123.005 96.0841C122.475 96.2575 121.919 96.3333 121.364 96.3333H111.532C110.553 96.3333 109.687 96.0985 108.978 95.6615C108.533 95.387 108.454 94.7537 108.784 94.3431C109.335 93.6568 109.88 92.9682 110.429 92.2735C111.475 90.9443 112.18 90.559 112.964 90.8973C113.282 91.037 113.601 91.2465 113.93 91.468C114.805 92.0628 116.021 92.8803 117.624 91.9929C118.721 91.3787 119.357 90.3251 119.911 89.4077L119.92 89.3923C119.959 89.3279 119.998 89.2636 120.037 89.1994L120.037 89.1994C120.223 88.8914 120.407 88.5875 120.614 88.3075C120.875 87.9572 121.84 86.8615 123.091 87.6417C123.887 88.1329 124.557 88.7975 125.274 89.5091C125.547 89.7812 125.742 90.0906 125.872 90.4229Z" fill="#9E9E9E"/>
<path d="M91.6904 125.12C90.9544 125.12 90.3144 124.98 89.7704 124.7C89.2344 124.42 88.7744 124.012 88.3904 123.476L89.3984 122.324C89.7904 122.876 90.1704 123.256 90.5384 123.464C90.9144 123.664 91.3384 123.764 91.8104 123.764C92.0824 123.764 92.3304 123.724 92.5544 123.644C92.7784 123.564 92.9544 123.452 93.0824 123.308C93.2104 123.156 93.2744 122.98 93.2744 122.78C93.2744 122.644 93.2464 122.52 93.1904 122.408C93.1424 122.288 93.0664 122.184 92.9624 122.096C92.8664 122 92.7424 121.912 92.5904 121.832C92.4464 121.752 92.2744 121.684 92.0744 121.628C91.8824 121.564 91.6704 121.512 91.4384 121.472C90.9904 121.384 90.6024 121.268 90.2744 121.124C89.9544 120.972 89.6824 120.788 89.4584 120.572C89.2424 120.348 89.0784 120.1 88.9664 119.828C88.8624 119.548 88.8104 119.232 88.8104 118.88C88.8104 118.408 88.9424 117.992 89.2064 117.632C89.4784 117.264 89.8384 116.976 90.2864 116.768C90.7424 116.56 91.2424 116.456 91.7864 116.456C92.4904 116.456 93.0864 116.584 93.5744 116.84C94.0704 117.096 94.4584 117.46 94.7384 117.932L93.7064 118.94C93.4664 118.572 93.1824 118.292 92.8544 118.1C92.5264 117.908 92.1704 117.812 91.7864 117.812C91.4984 117.812 91.2464 117.856 91.0304 117.944C90.8224 118.024 90.6584 118.14 90.5384 118.292C90.4184 118.436 90.3584 118.612 90.3584 118.82C90.3584 118.972 90.3904 119.112 90.4544 119.24C90.5264 119.368 90.6304 119.48 90.7664 119.576C90.9024 119.672 91.0744 119.756 91.2824 119.828C91.4904 119.9 91.7304 119.964 92.0024 120.02C92.4424 120.116 92.8344 120.236 93.1784 120.38C93.5304 120.524 93.8264 120.7 94.0664 120.908C94.3144 121.108 94.5024 121.34 94.6304 121.604C94.7584 121.86 94.8224 122.148 94.8224 122.468C94.8224 123.012 94.6944 123.484 94.4384 123.884C94.1824 124.284 93.8184 124.592 93.3464 124.808C92.8744 125.016 92.3224 125.12 91.6904 125.12ZM99.2616 125.12C98.5976 125.12 98.0096 124.984 97.4976 124.712C96.9936 124.432 96.5976 124.052 96.3096 123.572C96.0296 123.084 95.8896 122.524 95.8896 121.892C95.8896 121.396 95.9696 120.944 96.1296 120.536C96.2896 120.128 96.5136 119.776 96.8016 119.48C97.0896 119.176 97.4296 118.944 97.8216 118.784C98.2216 118.616 98.6536 118.532 99.1176 118.532C99.5416 118.532 99.9296 118.612 100.282 118.772C100.642 118.932 100.954 119.152 101.218 119.432C101.482 119.704 101.682 120.032 101.818 120.416C101.962 120.792 102.03 121.204 102.022 121.652L102.01 122.18H96.8976L96.6096 121.16H100.774L100.594 121.364V121.088C100.57 120.848 100.49 120.636 100.354 120.452C100.218 120.26 100.042 120.112 99.8256 120.008C99.6176 119.896 99.3856 119.84 99.1296 119.84C98.7376 119.84 98.4056 119.916 98.1336 120.068C97.8616 120.212 97.6536 120.428 97.5096 120.716C97.3736 121.004 97.3056 121.36 97.3056 121.784C97.3056 122.192 97.3896 122.548 97.5576 122.852C97.7336 123.156 97.9816 123.392 98.3016 123.56C98.6216 123.728 98.9936 123.812 99.4176 123.812C99.7136 123.812 99.9856 123.764 100.234 123.668C100.49 123.572 100.762 123.4 101.05 123.152L101.77 124.16C101.554 124.36 101.306 124.532 101.026 124.676C100.754 124.812 100.466 124.92 100.162 125C99.8576 125.08 99.5576 125.12 99.2616 125.12ZM103.341 125V116.12H104.805V125H103.341ZM109.398 125.12C108.734 125.12 108.146 124.984 107.634 124.712C107.13 124.432 106.734 124.052 106.446 123.572C106.166 123.084 106.026 122.524 106.026 121.892C106.026 121.396 106.106 120.944 106.266 120.536C106.426 120.128 106.65 119.776 106.938 119.48C107.226 119.176 107.566 118.944 107.958 118.784C108.358 118.616 108.79 118.532 109.254 118.532C109.678 118.532 110.066 118.612 110.418 118.772C110.778 118.932 111.09 119.152 111.354 119.432C111.618 119.704 111.818 120.032 111.954 120.416C112.098 120.792 112.166 121.204 112.158 121.652L112.146 122.18H107.034L106.746 121.16H110.91L110.73 121.364V121.088C110.706 120.848 110.626 120.636 110.49 120.452C110.354 120.26 110.178 120.112 109.962 120.008C109.754 119.896 109.522 119.84 109.266 119.84C108.874 119.84 108.542 119.916 108.27 120.068C107.998 120.212 107.79 120.428 107.646 120.716C107.51 121.004 107.442 121.36 107.442 121.784C107.442 122.192 107.526 122.548 107.694 122.852C107.87 123.156 108.118 123.392 108.438 123.56C108.758 123.728 109.13 123.812 109.554 123.812C109.85 123.812 110.122 123.764 110.37 123.668C110.626 123.572 110.898 123.4 111.186 123.152L111.906 124.16C111.69 124.36 111.442 124.532 111.162 124.676C110.89 124.812 110.602 124.92 110.298 125C109.994 125.08 109.694 125.12 109.398 125.12ZM116.178 125.12C115.586 125.12 115.054 124.976 114.582 124.688C114.11 124.4 113.738 124.008 113.466 123.512C113.194 123.016 113.058 122.456 113.058 121.832C113.058 121.208 113.194 120.648 113.466 120.152C113.738 119.656 114.11 119.264 114.582 118.976C115.054 118.688 115.586 118.544 116.178 118.544C116.738 118.544 117.25 118.656 117.714 118.88C118.186 119.096 118.546 119.392 118.794 119.768L117.99 120.752C117.87 120.584 117.718 120.432 117.534 120.296C117.35 120.16 117.15 120.052 116.934 119.972C116.726 119.892 116.522 119.852 116.322 119.852C115.962 119.852 115.642 119.94 115.362 120.116C115.09 120.284 114.874 120.52 114.714 120.824C114.554 121.12 114.474 121.456 114.474 121.832C114.474 122.208 114.554 122.544 114.714 122.84C114.882 123.136 115.106 123.372 115.386 123.548C115.666 123.724 115.978 123.812 116.322 123.812C116.538 123.812 116.742 123.78 116.934 123.716C117.126 123.644 117.31 123.544 117.486 123.416C117.67 123.288 117.838 123.128 117.99 122.936L118.794 123.92C118.53 124.272 118.158 124.56 117.678 124.784C117.198 125.008 116.698 125.12 116.178 125.12ZM120.619 125V117.068H122.083V125H120.619ZM119.371 120.044V118.676H123.463V120.044H119.371ZM128.69 125V118.1C128.69 117.724 128.774 117.388 128.942 117.092C129.11 116.788 129.342 116.552 129.638 116.384C129.934 116.208 130.274 116.12 130.658 116.12C130.93 116.12 131.182 116.168 131.414 116.264C131.654 116.36 131.85 116.488 132.002 116.648L131.546 117.74C131.442 117.66 131.33 117.596 131.21 117.548C131.098 117.492 130.99 117.464 130.886 117.464C130.726 117.464 130.59 117.492 130.478 117.548C130.374 117.596 130.294 117.672 130.238 117.776C130.19 117.88 130.166 118.008 130.166 118.16V125H129.422C129.286 125 129.154 125 129.026 125C128.906 125 128.794 125 128.69 125ZM127.706 120.104V118.808H131.594V120.104H127.706ZM132.998 125V118.676H134.462V125H132.998ZM133.718 117.332C133.422 117.332 133.19 117.26 133.022 117.116C132.862 116.964 132.782 116.752 132.782 116.48C132.782 116.224 132.866 116.02 133.034 115.868C133.202 115.708 133.43 115.628 133.718 115.628C134.014 115.628 134.242 115.704 134.402 115.856C134.57 116 134.654 116.208 134.654 116.48C134.654 116.728 134.57 116.932 134.402 117.092C134.234 117.252 134.006 117.332 133.718 117.332ZM136.341 125V116.12H137.805V125H136.341ZM142.398 125.12C141.734 125.12 141.146 124.984 140.634 124.712C140.13 124.432 139.734 124.052 139.446 123.572C139.166 123.084 139.026 122.524 139.026 121.892C139.026 121.396 139.106 120.944 139.266 120.536C139.426 120.128 139.65 119.776 139.938 119.48C140.226 119.176 140.566 118.944 140.958 118.784C141.358 118.616 141.79 118.532 142.254 118.532C142.678 118.532 143.066 118.612 143.418 118.772C143.778 118.932 144.09 119.152 144.354 119.432C144.618 119.704 144.818 120.032 144.954 120.416C145.098 120.792 145.166 121.204 145.158 121.652L145.146 122.18H140.034L139.746 121.16H143.91L143.73 121.364V121.088C143.706 120.848 143.626 120.636 143.49 120.452C143.354 120.26 143.178 120.112 142.962 120.008C142.754 119.896 142.522 119.84 142.266 119.84C141.874 119.84 141.542 119.916 141.27 120.068C140.998 120.212 140.79 120.428 140.646 120.716C140.51 121.004 140.442 121.36 140.442 121.784C140.442 122.192 140.526 122.548 140.694 122.852C140.87 123.156 141.118 123.392 141.438 123.56C141.758 123.728 142.13 123.812 142.554 123.812C142.85 123.812 143.122 123.764 143.37 123.668C143.626 123.572 143.898 123.4 144.186 123.152L144.906 124.16C144.69 124.36 144.442 124.532 144.162 124.676C143.89 124.812 143.602 124.92 143.298 125C142.994 125.08 142.694 125.12 142.398 125.12Z" fill="#9E9E9E"/>
</svg>
