<svg width="35" height="35" viewBox="0 0 35 35" fill="none" xmlns="http://www.w3.org/2000/svg">
<rect x="0.4375" y="0.4375" width="34.125" height="34.125" rx="6.5625" stroke="#537EE4" stroke-width="0.875"/>
<path fill-rule="evenodd" clip-rule="evenodd" d="M11.9902 15.7819C11.9902 13.6878 13.6878 11.9902 15.7819 11.9902C17.876 11.9902 19.5736 13.6878 19.5736 15.7819C19.5736 17.876 17.876 19.5736 15.7819 19.5736C13.6878 19.5736 11.9902 17.876 11.9902 15.7819Z" fill="#537EE4"/>
<path d="M19.8837 17.9428C19.8453 18.0154 19.8616 18.106 19.9276 18.1549C20.4176 18.5176 21.0241 18.7321 21.6805 18.7321C23.3092 18.7321 24.6296 17.4118 24.6296 15.7831C24.6296 14.1543 23.3092 12.834 21.6805 12.834C21.0241 12.834 20.4176 13.0485 19.9276 13.4113C19.8616 13.4601 19.8453 13.5507 19.8837 13.6233C20.224 14.2682 20.4166 15.0032 20.4166 15.7831C20.4166 16.563 20.224 17.2979 19.8837 17.9428Z" fill="#537EE4"/>
<path fill-rule="evenodd" clip-rule="evenodd" d="M11.6888 21.0052C12.7272 20.5545 14.0896 20.416 15.7828 20.416C17.4775 20.416 18.8409 20.5548 19.8796 21.0065C21.0111 21.4985 21.6989 22.3365 22.0593 23.5198C22.2283 24.0744 21.8117 24.629 21.2376 24.629H10.3296C9.75485 24.629 9.33739 24.0735 9.50685 23.5179C9.8678 22.3345 10.5566 21.4967 11.6888 21.0052Z" fill="#537EE4"/>
<path d="M20.2644 19.6055C19.9155 19.6272 19.895 20.0958 20.2156 20.2352C21.0939 20.6171 21.7552 21.1794 22.2295 21.897C22.6187 22.4859 23.2231 22.9452 23.929 22.9452H25.4293C26.0252 22.9452 26.4599 22.3531 26.2503 21.7747C26.2383 21.7414 26.2257 21.7084 26.2127 21.6756C25.9242 20.9471 25.4297 20.4108 24.6975 20.0689C24.01 19.748 23.1494 19.6155 22.1355 19.5755L22.1188 19.5748H22.1022C21.505 19.5748 20.8812 19.5672 20.2644 19.6055Z" fill="#537EE4"/>
</svg>
