<svg width="13" height="13" viewBox="0 0 13 13" fill="none" xmlns="http://www.w3.org/2000/svg">
<path d="M12.75 6.5C12.75 9.95175 9.95175 12.75 6.5 12.75C3.04822 12.75 0.25 9.95175 0.25 6.5C0.25 3.04822 3.04822 0.25 6.5 0.25C9.95175 0.25 12.75 3.04822 12.75 6.5Z" fill="#D1D4D7"/>
<path fill-rule="evenodd" clip-rule="evenodd" d="M6.5 3.53125C6.75888 3.53125 6.96875 3.74112 6.96875 4V6.30581L8.39394 7.73106C8.577 7.91413 8.577 8.21088 8.39394 8.39394C8.21088 8.577 7.91412 8.577 7.73106 8.39394L6.16856 6.83144C6.08062 6.74356 6.03125 6.62431 6.03125 6.5V4C6.03125 3.74112 6.24112 3.53125 6.5 3.53125Z" fill="white"/>
</svg>
