<svg width="265" height="297" viewBox="0 0 265 297" fill="none" xmlns="http://www.w3.org/2000/svg">
<path d="M211.203 124.37C196.92 161.276 182.636 198.181 168.351 235.085C164.957 243.856 161.564 252.624 158.168 261.393C157.243 263.788 160.843 265.294 161.768 262.904C176.051 225.998 190.336 189.094 204.62 152.188C208.014 143.42 211.409 134.651 214.803 125.881C215.729 123.486 212.128 121.981 211.203 124.37Z" fill="#1391F5"/>
<path d="M53.6543 124.37C67.9374 161.276 82.222 198.181 96.5066 235.085C99.9011 243.856 103.295 252.624 106.689 261.393C107.615 263.788 104.015 265.294 103.09 262.904C88.8065 225.998 74.522 189.094 60.2373 152.188C56.8436 143.42 53.4499 134.651 50.0554 125.881C49.1288 123.486 52.7293 121.981 53.6543 124.37Z" fill="#1391F5"/>
<path d="M216.457 111.202C216.457 158.81 178.869 197.405 132.5 197.405C86.1328 197.405 48.543 158.81 48.543 111.202C48.543 63.5923 86.1328 24.9982 132.5 24.9982C178.869 24.9982 216.457 63.5923 216.457 111.202Z" fill="#1391F5"/>
<mask id="mask0_67_191" style="mask-type:luminance" maskUnits="userSpaceOnUse" x="48" y="24" width="169" height="174">
<path d="M216.457 111.202C216.457 158.81 178.869 197.405 132.5 197.405C86.1328 197.405 48.543 158.81 48.543 111.202C48.543 63.5923 86.1328 24.9982 132.5 24.9982C178.869 24.9982 216.457 63.5923 216.457 111.202Z" fill="white"/>
</mask>
<g mask="url(#mask0_67_191)">
<path d="M78.2417 139.253C78.2417 139.253 78.9701 142.18 77.5787 143.768C76.1865 145.357 73.7124 147.778 74.5721 151.269C75.4318 154.761 78.3801 160.945 80.7346 162.282C83.0906 163.618 86.1097 164.289 85.7785 167.836C85.4458 171.38 83.599 179.512 83.3774 182.269C83.1559 185.023 80.3653 197.07 81.2476 202.31C82.1306 207.551 86.398 209.394 87.7576 209.147C89.1163 208.901 86.3312 202.245 87.7576 200.047C89.1831 197.852 90.625 197.036 91.7895 193.575C92.9523 190.113 95.0767 188.806 97.2734 188.309C99.4716 187.81 98.8871 185.064 101.305 183C103.723 180.938 107.105 177.577 107.436 175.309C107.766 173.041 108.357 170.322 111.657 170.543C114.956 170.764 116.993 168.67 117.501 164.697C118.01 160.723 118.7 158.722 119.833 157.291C120.967 155.864 121.923 153.524 119.148 151.484C116.376 149.443 112.969 150.773 110.677 148.904C108.385 147.035 105.863 146.841 104.806 146.774C103.75 146.708 105.227 141.139 101.668 140.264C98.1098 139.388 96.9236 139.074 95.5804 137.54C94.2364 136.006 89.3876 134.624 86.6367 135.249C83.8858 135.874 82.2068 136.655 79.9433 136.712C77.6797 136.767 77.2452 136.083 75.0245 136.053C72.8029 136.021 71.0454 134.993 71.3532 133.006C71.6618 131.019 69.8142 130.284 67.4791 129.292C65.1441 128.299 66.0636 126.319 63.7216 126.841C61.3796 127.362 58.0371 124.066 58.2291 122.079C58.4211 120.093 58.3955 113.611 62.5277 114.587C66.6606 115.563 71.2405 116.701 73.7434 118.369C76.2464 120.037 73.3898 113.642 74.9211 112.301C76.4516 110.957 81.2445 110.206 81.3945 108.114C81.543 106.023 83.0976 101.071 86.6367 99.0137C90.175 96.957 93.8159 96.9538 95.421 95.5787C97.027 94.2028 100.848 88.4939 99.7887 86.4052C98.7285 84.3174 95.2998 80.0036 93.6651 77.9397C92.0312 75.8758 89.4638 77.6205 87.2352 77.2829C85.0067 76.9461 85.2787 73.369 83.2585 73.0657C81.2383 72.7624 78.0412 73.9572 78.1306 76.1033C78.2215 78.2502 80.1135 81.8193 78.4034 83.0125C76.6941 84.2041 75.6712 85.8657 73.005 83.6023C70.3381 81.3389 65.1441 80.1888 63.6151 77.9397C62.0869 75.6907 61.5319 73.3107 65.5226 70.8493C69.5126 68.388 74.3808 65.3655 74.3972 63.7821C74.4135 62.1979 72.1624 59.8051 70.6389 60.0613C69.1169 60.3159 69.5553 62.8866 67.6548 62.6991C65.7543 62.5123 63.989 57.2241 62.0869 56.4299C60.1856 55.6358 61.6563 62.1548 59.172 62.6991C56.6893 63.2442 54.1708 63.5139 50.3363 62.6991C46.5027 61.885 45.5349 62.2593 42.8602 62.6991C40.1863 63.1396 39.6997 62.4868 36.7847 61.4014C33.8714 60.3159 32.8531 59.7596 27.0458 60.1946C21.2401 60.6304 18.2957 61.6448 15.2297 60.1946C12.1629 58.7445 6.34743 60.6272 2.19061 60.4676C-1.96737 60.3079 -7.32987 62.7262 -7.33593 65.8229C-7.34751 72.448 6.25392 74.3818 10.9047 75.2182C15.5555 76.0538 21.1725 79.5519 22.6828 83.4786C24.1939 87.4045 29.4905 88.3454 30.4077 92.8436C31.3241 97.3409 31.8341 104.871 33.2597 107.173C34.6852 109.474 44.0573 114.703 45.8909 118.468C47.7246 122.234 51.7176 125.773 54.6108 127.976C57.5031 130.183 64.3271 130.949 66.8044 132.485C69.2825 134.019 72.904 140.479 78.2417 139.253Z" fill="#86EAC6"/>
</g>
<mask id="mask1_67_191" style="mask-type:luminance" maskUnits="userSpaceOnUse" x="48" y="24" width="169" height="174">
<path d="M216.457 111.202C216.457 158.81 178.869 197.405 132.5 197.405C86.1328 197.405 48.543 158.81 48.543 111.202C48.543 63.5923 86.1328 24.9982 132.5 24.9982C178.869 24.9982 216.457 63.5923 216.457 111.202Z" fill="white"/>
</mask>
<g mask="url(#mask1_67_191)">
<path d="M33.5645 49.7395C31.4129 50.3716 30.0161 52.2703 30.2625 54.4109C30.5089 56.5506 32.5462 57.1571 34.3799 56.9065C36.2135 56.6551 39.5412 57.3207 40.4926 59.2123C41.4448 61.1046 45.6376 60.3751 48.8705 60.0838C52.1041 59.7933 55.1752 58.9641 53.2475 57.5873C51.319 56.2106 51.5219 54.1834 50.2844 53.0948C49.0469 52.0046 47.9105 53.1131 45.4744 53.3677C43.0383 53.6223 39.5 52.3126 37.5513 51.3461C35.6018 50.3804 35.7168 49.1074 33.5645 49.7395Z" fill="#86EAC6"/>
</g>
<mask id="mask2_67_191" style="mask-type:luminance" maskUnits="userSpaceOnUse" x="48" y="24" width="169" height="174">
<path d="M216.457 111.202C216.457 158.81 178.869 197.405 132.5 197.405C86.1328 197.405 48.543 158.81 48.543 111.202C48.543 63.5923 86.1328 24.9982 132.5 24.9982C178.869 24.9982 216.457 63.5923 216.457 111.202Z" fill="white"/>
</mask>
<g mask="url(#mask2_67_191)">
<path d="M41.0099 46.7122C40.074 47.1959 38.4572 49.2231 40.4922 50.01C42.528 50.7978 47.0364 50.8353 48.64 49.5703C50.2436 48.3045 49.1499 46.1073 47.9272 45.4201C46.7053 44.7322 41.9458 46.2302 41.0099 46.7122Z" fill="#86EAC6"/>
</g>
<mask id="mask3_67_191" style="mask-type:luminance" maskUnits="userSpaceOnUse" x="48" y="24" width="169" height="174">
<path d="M216.457 111.202C216.457 158.81 178.869 197.405 132.5 197.405C86.1328 197.405 48.543 158.81 48.543 111.202C48.543 63.5923 86.1328 24.9982 132.5 24.9982C178.869 24.9982 216.457 63.5923 216.457 111.202Z" fill="white"/>
</mask>
<g mask="url(#mask3_67_191)">
<path d="M92.6289 31.2201C89.2235 30.2792 87.2437 29.5425 82.1547 30.0621C77.0664 30.58 71.2716 32.9927 67.7612 33.3319C64.2517 33.6703 60.7281 35.1093 59.6764 37.2011C58.624 39.293 65.4316 41.2419 66.8743 42.8565C68.3186 44.4711 73.6975 46.0896 76.8052 44.835C79.9137 43.5812 81.19 39.7295 84.0902 38.1804C86.9895 36.6289 93.777 31.537 92.6289 31.2201Z" fill="#86EAC6"/>
</g>
<mask id="mask4_67_191" style="mask-type:luminance" maskUnits="userSpaceOnUse" x="48" y="24" width="169" height="174">
<path d="M216.457 111.202C216.457 158.81 178.869 197.405 132.5 197.405C86.1328 197.405 48.543 158.81 48.543 111.202C48.543 63.5923 86.1328 24.9982 132.5 24.9982C178.869 24.9982 216.457 63.5923 216.457 111.202Z" fill="white"/>
</mask>
<g mask="url(#mask4_67_191)">
<path d="M57.299 39.3531C55.023 38.7481 52.8131 39.4624 51.8158 40.0251C50.817 40.5886 51.571 42.9996 51.5212 44.3804C51.4723 45.7627 50.8916 48.4515 52.3351 50.6591C53.777 52.8682 53.4482 56.0224 56.5628 56.0902C59.6767 56.1572 62.2193 54.1077 64.4448 52.8714C66.671 51.6352 74.0111 51.8251 75.4344 49.6918C76.8568 47.556 74.5366 47.8465 70.7044 47.6486C66.8739 47.4515 64.7075 45.5336 62.3134 43.4594C59.9201 41.3859 58.716 39.7306 57.299 39.3531Z" fill="#86EAC6"/>
</g>
<mask id="mask5_67_191" style="mask-type:luminance" maskUnits="userSpaceOnUse" x="48" y="24" width="169" height="174">
<path d="M216.457 111.202C216.457 158.81 178.869 197.405 132.5 197.405C86.1328 197.405 48.543 158.81 48.543 111.202C48.543 63.5923 86.1328 24.9982 132.5 24.9982C178.869 24.9982 216.457 63.5923 216.457 111.202Z" fill="white"/>
</mask>
<g mask="url(#mask5_67_191)">
<path d="M70.4384 52.6861C66.4516 53.1985 66.1189 55.525 66.7517 57.5027C67.3828 59.4788 72.3638 56.3566 73.9356 57.5027C75.5088 58.648 78.5893 61.431 77.2632 63.6968C75.9395 65.9634 78.859 67.8206 82.594 68.2516C86.3297 68.6826 89.7965 70.4113 91.6092 68.2875C93.4227 66.1645 94.0717 63.8317 90.5054 62.0224C86.9415 60.2115 86.7192 57.5115 84.5388 56.09C82.3569 54.6678 79.5438 51.552 77.0238 51.6877C74.5053 51.8233 70.4384 52.6861 70.4384 52.6861Z" fill="#86EAC6"/>
</g>
<mask id="mask6_67_191" style="mask-type:luminance" maskUnits="userSpaceOnUse" x="48" y="24" width="169" height="174">
<path d="M216.457 111.202C216.457 158.81 178.869 197.405 132.5 197.405C86.1328 197.405 48.543 158.81 48.543 111.202C48.543 63.5923 86.1328 24.9982 132.5 24.9982C178.869 24.9982 216.457 63.5923 216.457 111.202Z" fill="white"/>
</mask>
<g mask="url(#mask6_67_191)">
<path d="M101.823 32.0822C98.8762 32.9808 91.8322 36.016 91.0075 37.8916C90.1835 39.7679 86.5271 40.2692 86.0249 42.2987C85.5236 44.3275 88.9795 44.5638 93.5633 45.5901C98.1479 46.6149 99.8237 48.2662 100.243 51.6837C100.66 55.1004 106.863 55.8698 105.357 59.7661C103.852 63.6625 102.881 65.9067 104.621 69.0529C106.361 72.2006 111.142 76.0882 112.488 75.6804C113.834 75.2717 116.047 66.6905 119.64 64.9235C123.234 63.1573 133.321 60.0694 133.792 58.98C134.265 57.8898 136.165 45.8351 135.797 43.61C135.431 41.3849 141.833 37.8756 142.042 35.2906C142.184 33.5635 139.129 33.6545 136.118 33.7446C134.62 33.7901 133.132 33.8356 132.055 33.6568C128.809 33.1189 126.16 30.3487 121.4 30.0622C116.644 29.7756 104.938 31.1316 101.823 32.0822Z" fill="#86EAC6"/>
</g>
<mask id="mask7_67_191" style="mask-type:luminance" maskUnits="userSpaceOnUse" x="48" y="24" width="169" height="174">
<path d="M216.457 111.202C216.457 158.81 178.869 197.405 132.5 197.405C86.1328 197.405 48.543 158.81 48.543 111.202C48.543 63.5923 86.1328 24.9982 132.5 24.9982C178.869 24.9982 216.457 63.5923 216.457 111.202Z" fill="white"/>
</mask>
<g mask="url(#mask7_67_191)">
<path d="M154.626 98.6245C154.626 98.6245 148.758 97.8942 148.06 98.6245C147.359 99.354 147.652 102.514 147.244 103.535C146.837 104.558 146.888 106.515 147.702 106.661C148.517 106.807 149.912 108.021 150.514 107.78C151.115 107.539 153.252 106.535 154.476 106.253C155.7 105.969 155.75 104.377 156.668 103.056C157.583 101.734 157.58 99.3723 160.868 98.4872C164.154 97.6029 166.285 98.2334 167.047 99.006C167.81 99.777 171.754 101.393 171.749 103.202C171.744 105.011 174.356 102.659 174.17 102.039C173.984 101.419 170.768 98.9549 169.775 98.1409C168.784 97.326 168.484 95.6675 169.35 95.4057C170.215 95.1456 173.064 98.7091 173.78 99.006C174.498 99.3021 175.772 100.438 175.615 101.387C175.457 102.334 177.329 106.525 178.11 106.661C178.89 106.796 180.348 105.875 180.024 105.042C179.699 104.21 178.305 102.82 179.286 102.204C180.268 101.589 182.846 102.084 184.017 101.387C185.19 100.688 183.413 99.7834 184.43 98.061C185.445 96.3387 186.111 93.7545 187.408 94.1096C188.704 94.4648 188.704 97.8112 189.621 97.6548C190.537 97.4976 193.361 96.314 195.436 98.3627C197.512 100.412 196.904 101.143 194.765 101.387C193.938 101.48 192.822 101.436 191.706 101.392C189.933 101.322 188.157 101.253 187.532 101.734C186.513 102.518 182.722 103.016 182.699 103.9C182.676 104.784 183.663 107.325 184.945 107.084C186.226 106.843 191.398 106.204 191.884 106.479C192.371 106.755 190.561 112.727 189.199 112.982C187.838 113.239 186.717 113.3 185.444 113.531C184.17 113.761 180.963 113.239 179.587 112.297C178.212 111.356 176.074 112.388 173.807 113.18C171.54 113.971 168.738 112.14 167.72 111.356C166.701 110.572 167.873 108.721 167.72 107.895C167.566 107.068 163.746 105.993 162.218 106.661C160.691 107.329 156.133 108.166 154.668 108.506C153.847 108.697 152.844 108.56 152.069 108.424C151.463 108.318 150.995 108.211 150.861 108.261C150.556 108.376 149.984 110.493 148.57 110.99C147.154 111.486 147.143 113.342 146.327 115.278C145.513 117.212 141.693 119.985 141.132 124.064C140.574 128.143 141.132 132.17 143.171 135.412C145.207 138.654 148.06 140.014 151.625 139.911C155.189 139.805 161.658 138.666 163.644 139.915C165.631 141.164 165.835 143.989 165.275 146.133C164.714 148.276 165.886 149.95 168.076 153.454C170.266 156.957 171.336 158.632 170.012 161.298C168.687 163.965 168.533 165.519 169.808 168.402C171.081 171.286 170.775 172.436 170.98 175.105C171.183 177.77 172.915 184.099 175.105 184.412C177.294 184.727 181.623 182.636 183.356 180.384C185.087 178.137 187.685 173.535 189.621 172.123C191.556 170.712 190.604 167.046 191.649 165.867C192.693 164.69 196.222 162.657 195.978 159.467C195.732 156.277 194.459 152.094 195.987 149.323C197.515 146.551 203.762 142.097 204.56 139.958C205.358 137.817 206.989 134.993 205.511 135.099C204.034 135.203 202.864 135.866 200.063 135.614C197.26 135.359 195.624 130.2 194.762 129.224C193.898 128.247 190.717 123.162 190.742 121.711C190.764 120.26 188.45 115.958 189.621 115.905C190.792 115.853 193.768 121.186 194.725 122.809C195.682 124.43 197.609 127.862 198.352 129.912C199.094 131.961 200.216 132.744 201.319 132.55C202.422 132.355 211.849 127.798 213.151 126.261C214.454 124.723 215.124 122.06 213.73 121.415C212.336 120.77 211.613 118.88 211.245 119.457C210.875 120.032 209.636 121.282 208.618 121.24C207.599 121.198 204.717 117.394 204.238 116.104C203.759 114.813 205.052 113.761 205.613 113.814C206.173 113.867 207.88 117.872 210.113 117.841C212.349 117.809 212.574 118.679 214.161 119.462C214.817 119.786 216.332 119.704 217.936 119.622C220.221 119.505 222.688 119.388 223.118 120.442C223.847 122.234 225.919 125.215 227.31 124.749C228.702 124.284 228.413 126.5 229.44 129.231C230.468 131.962 232.353 138.262 233.218 138.484C234.085 138.707 236.624 135.099 236.678 133.111C236.733 131.124 236.713 129.833 238.71 128.36C240.705 126.888 243.175 123.978 244.882 123.276C246.588 122.574 249.02 125.99 249.109 127.777C249.199 129.564 251.343 129.032 251.856 130.862C252.369 132.693 253.743 138.845 254.661 140.706C255.58 142.568 258.886 143.115 257.869 141.583C256.854 140.051 254.305 134.418 255.324 133.214C255.849 132.594 256.98 133.715 258.194 134.836C259.33 135.884 260.54 136.933 261.395 136.557C263.166 135.778 263.167 130.882 261.859 128.913C260.549 126.944 261.384 123.795 263.065 123.276C264.746 122.757 270.909 122.13 272.436 120.247C273.964 118.363 277.048 114.703 276.175 112.594C275.302 110.484 271.608 105.955 273.404 104.349C275.2 102.743 279.354 103.57 280.045 105.737C280.739 107.905 282.796 109.458 283.627 108.509C284.455 107.559 283.315 102.543 285.424 100.898C287.532 99.2502 293.624 94.7258 294.388 92.4256C295.152 90.1247 295.067 85.7056 293.443 84.7694C291.819 83.8332 290.873 82.7502 291.587 81.8619C292.3 80.9728 295.713 76.0046 300.5 76.5273C305.288 77.0509 306.408 77.8953 308.496 77.2376C310.584 76.58 310.788 73.39 313.641 73.4945C314.859 73.5392 316.159 73.0763 317.271 72.6126C318.761 71.9925 319.912 71.3724 320.076 71.9741C320.364 73.0236 317.602 74.9223 315.942 76.5545C314.283 78.1858 311.288 81.1699 311.399 84.3097C311.511 87.4494 312.468 87.7623 313.463 87.479C314.455 87.1956 317.741 80.8938 318.161 79.1292C318.58 77.3645 320.754 74.9327 322.95 75.1833C325.148 75.4323 332.739 73.0484 333.912 71.7291C335.083 70.4082 332.507 67.9557 334.116 67.7944C334.831 67.7226 336.149 68.1911 337.568 68.6588C339.338 69.243 341.264 69.8272 342.366 69.3627C344.352 68.5263 340.583 65.1798 338.801 64.7608C337.017 64.3434 329.837 61.6243 328.462 62.1462C327.087 62.669 323.673 61.9898 322.197 61.1526C320.72 60.3162 316.187 59.218 313.233 59.5324C310.279 59.8453 309.057 57.6489 306.917 57.178C304.779 56.7079 298.209 55.1389 295.687 56.1325C293.166 57.127 289.142 57.5443 287.615 57.336C286.086 57.1269 283.997 55.0862 282.673 53.9361C281.35 52.7852 275.592 52.9481 273.887 52.9975C273.242 53.0167 272.235 52.901 271.109 52.7845C269.259 52.5945 267.087 52.4046 265.663 52.8116C263.37 53.466 258.631 53.4956 260.264 52.8116C261.896 52.126 267.915 49.9352 268.005 48.2887C268.093 46.6414 265.918 45.726 263.319 45.7779C262.363 45.797 261.303 45.6015 260.273 45.4059C258.503 45.0699 256.824 44.7339 255.923 45.4882C254.5 46.6813 248.703 47.1761 245.952 48.7596C243.199 50.3414 244.12 51.7238 241.929 52.2026C239.737 52.6815 236.326 53.8316 236.632 55.9234C236.937 58.0152 233.586 56.8508 231.844 58.1198C230.101 59.3888 231.639 62.3562 229.857 63.7153C228.074 65.0753 225.517 64.9181 226.337 64.1862C227.157 63.4543 229.313 61.6562 229.075 59.3385C228.838 57.0216 229.959 53.9489 227.718 53.6025C225.477 53.2561 223.847 55.6098 223.948 57.127C224.05 58.6426 225.354 61.5189 224.754 61.9898C224.152 62.4607 222.518 60.4016 218.906 59.6745C215.295 58.949 215.648 61.4144 214.018 61.6754C212.387 61.9371 208.415 61.6243 205.613 63.1934C202.811 64.7608 201.961 64.6076 200.272 65.1024C198.585 65.5981 197.096 67.6236 195.397 68.0889C193.696 68.555 192.373 69.4114 191.556 67.8471C190.739 66.282 187.856 63.9093 189.189 64.2876C190.52 64.6659 196.745 65.3466 197.129 64.2429C197.515 63.1399 191.106 60.2005 190.08 59.6961C189.054 59.1925 185.706 56.5324 182.349 57.0376C178.994 57.5412 173.189 59.9786 171.509 62.3234C169.828 64.6667 166.585 69.401 164.789 70.4106C162.995 71.4202 161.326 73.6374 161.708 75.5967C162.089 77.5553 163.798 78.9137 164.714 78.4795C165.631 78.0437 167.223 75.8481 167.597 76.4747C167.974 77.1028 168.589 79.6168 169.198 80.818C169.808 82.0183 170.453 82.0798 171.716 81.3208C172.977 80.5633 173.554 77.3079 173.475 75.6837C173.395 74.0604 173.383 70.6541 175.461 69.4154C177.54 68.1767 178.655 65.3642 180.062 65.978C181.472 66.5917 179.717 68.4744 178.914 70.1999C178.11 71.9255 177.409 74.9798 178.549 75.0221C178.944 75.0365 179.778 74.9223 180.705 74.809C182.452 74.5943 184.529 74.3796 184.628 75.0221C184.782 76.0046 179.505 76.015 179.714 77.94C179.925 79.865 178.222 80.4389 177.147 81.4636C176.072 82.4892 171.234 85.3656 168.687 84.9466C166.139 84.5292 162.498 84.7343 160.87 86.5396C159.241 88.3449 158.144 90.4383 156.005 91.6411C153.866 92.8438 154.926 97.8152 154.626 98.6245Z" fill="#86EAC6"/>
</g>
<mask id="mask8_67_191" style="mask-type:luminance" maskUnits="userSpaceOnUse" x="48" y="24" width="169" height="174">
<path d="M216.457 111.202C216.457 158.81 178.869 197.405 132.5 197.405C86.1328 197.405 48.543 158.81 48.543 111.202C48.543 63.5923 86.1328 24.9982 132.5 24.9982C178.869 24.9982 216.457 63.5923 216.457 111.202Z" fill="white"/>
</mask>
<g mask="url(#mask8_67_191)">
<path d="M151.726 89.9689C153.708 90.6082 157.533 87.6663 157.635 86.359C157.737 85.0509 155.354 83.6303 154.89 82.2759C154.427 80.9199 154.667 79.1194 153.916 78.2008C153.165 77.283 149.674 78.2535 149.733 79.3245C149.791 80.3972 150.413 81.3453 151.375 82.7803C152.337 84.2145 150.759 89.6568 151.726 89.9689Z" fill="#86EAC6"/>
</g>
<mask id="mask9_67_191" style="mask-type:luminance" maskUnits="userSpaceOnUse" x="48" y="24" width="169" height="174">
<path d="M216.457 111.202C216.457 158.81 178.869 197.405 132.5 197.405C86.1328 197.405 48.543 158.81 48.543 111.202C48.543 63.5923 86.1328 24.9982 132.5 24.9982C178.869 24.9982 216.457 63.5923 216.457 111.202Z" fill="white"/>
</mask>
<g mask="url(#mask9_67_191)">
<path d="M146.685 88.242C148.38 89.2029 150.115 87.0695 150.132 85.4334C150.15 83.7965 150.251 82.1229 148.876 82.1755C147.5 82.2282 144.75 87.143 146.685 88.242Z" fill="#86EAC6"/>
</g>
<path d="M132.5 197.405C148.912 197.405 164.226 192.569 177.161 184.21C179.645 182.604 182.037 180.872 184.338 179.016C187.512 176.455 190.505 173.66 193.286 170.663C177.995 187.138 156.415 197.405 132.5 197.405ZM201.433 160.426C209.421 148.654 214.622 134.744 216.054 119.695C216.32 116.902 216.457 114.067 216.457 111.202C216.457 129.502 210.904 146.469 201.433 160.426Z" fill="#9CC6DF"/>
<path d="M132.5 197.405V59.8388C133.225 59.4916 133.698 59.1963 133.791 58.98C134.264 57.8898 136.164 45.8352 135.796 43.6101C135.43 41.385 141.832 37.8757 142.041 35.2906C142.152 33.949 140.334 33.704 138.106 33.704C137.465 33.704 136.79 33.7247 136.117 33.7447C135.444 33.7654 134.773 33.7854 134.141 33.7854C133.551 33.7854 132.994 33.7679 132.5 33.716V24.9982C162.063 24.9982 188.057 40.6866 203.017 64.3976C202.001 64.7415 201.289 64.8046 200.273 65.1023C198.585 65.5979 197.097 67.6235 195.397 68.0888C194.43 68.3546 193.584 68.7457 192.885 68.7457C192.355 68.7457 191.909 68.5214 191.557 67.847C190.798 66.3945 188.262 64.2467 188.964 64.2467C189.019 64.2467 189.093 64.2595 189.189 64.2874C189.981 64.5125 192.504 64.8445 194.498 64.8445C195.858 64.8445 196.974 64.6897 197.129 64.2427C197.516 63.1398 191.106 60.2003 190.081 59.6959C189.142 59.2354 186.265 56.9736 183.214 56.9736C182.926 56.9736 182.639 56.9935 182.35 57.0374C178.994 57.541 173.189 59.9785 171.509 62.3233C169.829 64.6665 166.585 69.4009 164.789 70.4105C162.995 71.4201 161.326 73.6373 161.708 75.5966C162.041 77.307 163.387 78.56 164.334 78.56C164.471 78.56 164.599 78.5345 164.715 78.4794C165.519 78.0971 166.841 76.3628 167.407 76.3628C167.487 76.3628 167.552 76.3971 167.598 76.4745C167.975 77.1026 168.589 79.6167 169.198 80.8178C169.548 81.5058 169.909 81.8195 170.391 81.8195C170.75 81.8195 171.177 81.6447 171.716 81.3206C172.978 80.5632 173.554 77.3078 173.475 75.6836C173.396 74.0603 173.383 70.6539 175.462 69.4153C177.341 68.2955 178.431 65.8916 179.662 65.8916C179.794 65.8916 179.927 65.9188 180.063 65.9778C181.472 66.5916 179.718 68.4743 178.914 70.1998C178.11 71.9253 177.41 74.9797 178.549 75.022C178.572 75.0228 178.596 75.0228 178.622 75.0228C179.041 75.0228 179.832 74.9158 180.706 74.8089C181.579 74.7011 182.536 74.5942 183.286 74.5942C184.036 74.5942 184.579 74.7011 184.629 75.022C184.783 76.0044 179.505 76.0148 179.715 77.9399C179.925 79.8649 178.223 80.4387 177.148 81.4635C176.144 82.4204 171.866 84.9879 169.229 84.9879C169.039 84.9879 168.859 84.9752 168.688 84.9464C167.985 84.8315 167.199 84.7637 166.396 84.7637C164.285 84.7637 162.049 85.2322 160.87 86.5395C159.241 88.3448 158.144 90.4382 156.006 91.641C153.866 92.8437 154.926 97.8151 154.626 98.6244C154.626 98.6244 152.018 98.2996 150.073 98.2996C149.1 98.2996 148.293 98.381 148.06 98.6244C147.36 99.3539 147.653 102.514 147.245 103.535C146.837 104.558 146.889 106.515 147.703 106.661C148.444 106.794 149.666 107.811 150.333 107.811C150.399 107.811 150.46 107.801 150.514 107.779C151.116 107.538 153.253 106.535 154.477 106.253C155.7 105.969 155.751 104.377 156.668 103.055C157.583 101.734 157.58 99.3722 160.868 98.4871C162.006 98.1806 163.005 98.0561 163.857 98.0561C165.466 98.0561 166.549 98.5007 167.047 99.0059C167.81 99.7769 171.754 101.393 171.749 103.202C171.748 103.688 171.935 103.873 172.206 103.873C172.945 103.873 174.307 102.492 174.171 102.039C173.984 101.419 170.768 98.9548 169.776 98.1407C168.784 97.3259 168.484 95.6674 169.35 95.4056C169.38 95.396 169.414 95.3921 169.449 95.3921C170.413 95.3921 173.09 98.7194 173.781 99.0059C174.498 99.302 175.772 100.438 175.615 101.387C175.457 102.334 177.33 106.525 178.11 106.661C178.161 106.67 178.217 106.674 178.274 106.674C179.076 106.674 180.327 105.819 180.025 105.042C179.7 104.21 178.305 102.82 179.286 102.204C180.268 101.589 182.846 102.084 184.018 101.387C185.19 100.688 183.413 99.7832 184.43 98.0609C185.382 96.4472 186.026 94.076 187.17 94.076C187.247 94.076 187.326 94.0871 187.408 94.1095C188.674 94.4567 188.703 97.6603 189.56 97.6603C189.58 97.6603 189.6 97.6587 189.621 97.6547C190.125 97.5685 191.204 97.1718 192.417 97.1718C193.414 97.1718 194.501 97.4392 195.436 98.3626C197.513 100.412 196.904 101.143 194.766 101.387C194.406 101.427 193.992 101.442 193.548 101.442C192.969 101.442 192.337 101.417 191.706 101.392C191.075 101.367 190.443 101.343 189.863 101.343C188.814 101.343 187.935 101.423 187.533 101.734C186.514 102.518 182.723 103.016 182.699 103.9C182.677 104.744 183.577 107.1 184.774 107.1C184.831 107.1 184.888 107.095 184.946 107.084C186.006 106.884 189.736 106.412 191.263 106.412C191.579 106.412 191.801 106.432 191.884 106.479C192.371 106.755 190.561 112.727 189.199 112.982C187.838 113.239 186.717 113.3 185.444 113.531C185.242 113.567 184.992 113.585 184.707 113.585C183.199 113.585 180.744 113.088 179.587 112.297C179.198 112.03 178.746 111.922 178.249 111.922C176.989 111.922 175.432 112.612 173.808 113.179C173.419 113.315 173.014 113.374 172.606 113.374C170.632 113.374 168.564 112.005 167.72 111.356C166.702 110.572 167.873 108.72 167.72 107.894C167.6 107.249 165.244 106.452 163.491 106.452C162.998 106.452 162.554 106.514 162.219 106.661C160.691 107.329 156.133 108.166 154.669 108.506C154.377 108.574 154.063 108.6 153.745 108.6C153.165 108.6 152.57 108.512 152.07 108.424C151.569 108.337 151.163 108.248 150.962 108.248C150.918 108.248 150.885 108.252 150.862 108.261C150.556 108.376 149.984 110.493 148.57 110.989C147.155 111.486 147.144 113.342 146.328 115.278C145.513 117.212 141.693 119.985 141.132 124.064C140.574 128.143 141.132 132.17 143.171 135.412C145.135 138.539 147.86 139.916 151.249 139.916C151.374 139.916 151.499 139.914 151.625 139.91C153.948 139.842 157.502 139.334 160.247 139.334C161.716 139.334 162.953 139.479 163.644 139.914C165.631 141.164 165.836 143.989 165.275 146.132C164.715 148.276 165.886 149.95 168.077 153.454C170.266 156.957 171.337 158.632 170.012 161.298C168.688 163.965 168.534 165.519 169.808 168.402C171.082 171.286 170.775 172.436 170.98 175.105C171.184 177.77 172.915 184.099 175.105 184.412C175.253 184.434 175.411 184.444 175.576 184.444C176.049 184.444 176.588 184.36 177.161 184.21C164.226 192.569 148.912 197.405 132.5 197.405ZM152.778 77.8345C151.487 77.8345 149.691 78.5536 149.734 79.3246C149.791 80.3972 150.414 81.3454 151.375 82.7804C152.338 84.2146 150.76 89.6569 151.727 89.9689C151.917 90.0304 152.124 90.0591 152.343 90.0591C154.408 90.0591 157.543 87.5411 157.636 86.3591C157.738 85.051 155.354 83.6303 154.89 82.276C154.427 80.92 154.667 79.1195 153.916 78.2008C153.706 77.9439 153.28 77.8345 152.778 77.8345ZM148.937 82.1738C148.917 82.1738 148.897 82.1746 148.875 82.1754C147.5 82.2281 144.75 87.1428 146.684 88.2418C146.977 88.4078 147.27 88.4812 147.556 88.4812C148.926 88.482 150.117 86.7869 150.131 85.4333C150.149 83.8211 150.247 82.1738 148.937 82.1738ZM184.338 179.016C185.977 176.622 188.024 173.287 189.621 172.123C191.557 170.712 190.605 167.046 191.649 165.867C192.693 164.69 196.222 162.657 195.978 159.467C195.733 156.277 194.459 152.094 195.987 149.323C197.516 146.551 203.762 142.097 204.56 139.958C205.344 137.856 206.93 135.096 205.589 135.096C205.564 135.096 205.538 135.097 205.512 135.099C204.268 135.186 203.242 135.67 201.277 135.67C200.908 135.67 200.506 135.653 200.063 135.613C197.261 135.359 195.624 130.2 194.762 129.224C193.899 128.247 190.717 123.161 190.742 121.71C190.765 120.259 188.45 115.958 189.621 115.905C189.628 115.905 189.633 115.905 189.639 115.905C190.821 115.905 193.773 121.193 194.725 122.809C195.682 124.43 197.609 127.862 198.352 129.912C199.021 131.759 200 132.578 200.994 132.578C201.103 132.578 201.211 132.569 201.319 132.55C202.423 132.355 211.849 127.798 213.151 126.26C214.455 124.723 215.124 122.06 213.73 121.415C212.517 120.853 211.813 119.348 211.407 119.348C211.346 119.348 211.293 119.382 211.245 119.457C210.882 120.022 209.677 121.24 208.669 121.24C208.652 121.24 208.635 121.24 208.619 121.24C207.599 121.198 204.717 117.394 204.239 116.104C203.771 114.844 204.991 113.812 205.572 113.812C205.586 113.812 205.6 113.813 205.614 113.814C206.171 113.866 207.866 117.84 210.086 117.84C210.096 117.84 210.104 117.84 210.114 117.84C210.153 117.84 210.193 117.84 210.231 117.84C212.358 117.84 212.602 118.693 214.162 119.462C214.522 119.64 215.143 119.696 215.895 119.696C215.947 119.696 216.001 119.695 216.054 119.695C214.622 134.744 209.421 148.654 201.433 160.426C198.972 164.052 196.247 167.474 193.286 170.663C190.505 173.66 187.512 176.455 184.338 179.016Z" fill="#107CE1"/>
<path d="M132.5 59.8389V33.716C132.994 33.7679 133.551 33.7855 134.141 33.7855C134.773 33.7855 135.444 33.7655 136.117 33.7448C136.79 33.7248 137.465 33.704 138.106 33.704C140.334 33.704 142.152 33.9491 142.041 35.2907C141.832 37.8758 135.43 41.385 135.796 43.6102C136.164 45.8353 134.264 57.8899 133.791 58.9801C133.698 59.1964 133.225 59.4917 132.5 59.8389Z" fill="#6CC3BB"/>
<path d="M175.576 184.444C175.41 184.444 175.252 184.434 175.105 184.412C172.915 184.1 171.183 177.771 170.98 175.105C170.775 172.436 171.081 171.286 169.808 168.402C168.533 165.52 168.687 163.965 170.012 161.298C171.336 158.632 170.266 156.958 168.076 153.454C165.886 149.95 164.714 148.277 165.275 146.133C165.835 143.989 165.631 141.165 163.644 139.915C162.952 139.48 161.716 139.335 160.246 139.335C157.502 139.335 153.947 139.842 151.625 139.911C151.499 139.914 151.373 139.916 151.248 139.916C147.859 139.916 145.135 138.54 143.171 135.412C141.132 132.17 140.574 128.143 141.132 124.064C141.693 119.985 145.513 117.213 146.327 115.278C147.143 113.343 147.154 111.486 148.57 110.99C149.984 110.493 150.556 108.376 150.861 108.261C150.885 108.252 150.918 108.248 150.961 108.248C151.163 108.248 151.569 108.337 152.069 108.425C152.57 108.512 153.164 108.6 153.744 108.6C154.063 108.6 154.377 108.574 154.668 108.506C156.133 108.166 160.691 107.33 162.218 106.661C162.554 106.515 162.998 106.453 163.49 106.453C165.244 106.453 167.6 107.249 167.72 107.895C167.873 108.721 166.701 110.572 167.72 111.356C168.564 112.006 170.631 113.375 172.606 113.375C173.014 113.375 173.419 113.315 173.807 113.18C175.431 112.612 176.989 111.922 178.248 111.922C178.746 111.922 179.197 112.031 179.587 112.297C180.744 113.089 183.199 113.585 184.707 113.585C184.991 113.585 185.242 113.568 185.444 113.531C186.717 113.3 187.838 113.239 189.199 112.983C190.561 112.727 192.371 106.755 191.884 106.48C191.801 106.433 191.579 106.412 191.263 106.412C189.736 106.412 186.006 106.884 184.945 107.085C184.887 107.095 184.83 107.101 184.774 107.101C183.577 107.101 182.676 104.745 182.699 103.9C182.722 103.016 186.513 102.519 187.532 101.734C187.935 101.424 188.814 101.343 189.863 101.343C190.443 101.343 191.075 101.368 191.706 101.393C192.337 101.417 192.969 101.442 193.547 101.442C193.992 101.442 194.406 101.428 194.765 101.387C196.904 101.144 197.512 100.412 195.436 98.3629C194.501 97.4395 193.413 97.1722 192.417 97.1722C191.204 97.1722 190.125 97.5688 189.621 97.655C189.6 97.659 189.58 97.6606 189.56 97.6606C188.703 97.6606 188.673 94.457 187.408 94.1098C187.326 94.0875 187.247 94.0763 187.17 94.0763C186.026 94.0763 185.382 96.4475 184.43 98.0612C183.413 99.7836 185.19 100.688 184.017 101.387C182.846 102.085 180.268 101.589 179.286 102.204C178.305 102.82 179.699 104.21 180.024 105.042C180.327 105.82 179.076 106.674 178.274 106.674C178.216 106.674 178.161 106.67 178.11 106.661C177.329 106.525 175.457 102.334 175.615 101.387C175.772 100.438 174.498 99.3023 173.78 99.0062C173.089 98.7197 170.413 95.3924 169.448 95.3924C169.413 95.3924 169.38 95.3964 169.35 95.4059C168.484 95.6677 168.784 97.3262 169.775 98.1411C170.768 98.9551 173.984 101.42 174.17 102.039C174.306 102.492 172.945 103.873 172.205 103.873C171.935 103.873 171.748 103.688 171.749 103.202C171.754 101.393 167.81 99.7772 167.047 99.0062C166.549 98.501 165.466 98.0565 163.857 98.0565C163.005 98.0565 162.005 98.181 160.868 98.4874C157.58 99.3725 157.583 101.734 156.668 103.056C155.75 104.377 155.7 105.97 154.476 106.253C153.252 106.536 151.115 107.539 150.514 107.78C150.459 107.801 150.399 107.812 150.333 107.812C149.666 107.812 148.444 106.794 147.702 106.661C146.888 106.516 146.837 104.559 147.244 103.535C147.652 102.514 147.359 99.3542 148.06 98.6247C148.293 98.3813 149.1 98.2999 150.072 98.2999C152.018 98.2999 154.626 98.6247 154.626 98.6247C154.926 97.8154 153.866 92.844 156.005 91.6413C158.144 90.4385 159.241 88.3451 160.87 86.5398C162.049 85.2325 164.285 84.764 166.396 84.764C167.199 84.764 167.985 84.8318 168.687 84.9468C168.858 84.9755 169.039 84.9883 169.228 84.9883C171.866 84.9883 176.144 82.4207 177.147 81.4638C178.222 80.439 179.925 79.8652 179.714 77.9402C179.505 76.0151 184.782 76.0048 184.628 75.0223C184.579 74.7015 184.035 74.5945 183.286 74.5945C182.536 74.5945 181.579 74.7015 180.705 74.8092C179.832 74.9162 179.04 75.0231 178.621 75.0231C178.596 75.0231 178.572 75.0231 178.549 75.0223C177.409 74.98 178.11 71.9257 178.914 70.2001C179.717 68.4746 181.472 66.5919 180.062 65.9781C179.926 65.9191 179.793 65.892 179.662 65.892C178.431 65.892 177.34 68.2959 175.461 69.4156C173.383 70.6543 173.395 74.0606 173.475 75.6839C173.554 77.3081 172.977 80.5635 171.716 81.321C171.176 81.645 170.749 81.8198 170.39 81.8198C169.908 81.8198 169.548 81.5061 169.198 80.8182C168.589 79.617 167.974 77.103 167.597 76.4748C167.552 76.3974 167.486 76.3631 167.407 76.3631C166.84 76.3631 165.518 78.0974 164.714 78.4797C164.599 78.5348 164.47 78.5603 164.334 78.5603C163.387 78.5603 162.04 77.3073 161.708 75.5969C161.326 73.6376 162.995 71.4204 164.789 70.4108C166.585 69.4012 169.828 64.6669 171.509 62.3236C173.189 59.9788 178.994 57.5414 182.349 57.0378C182.638 56.9939 182.926 56.9739 183.214 56.9739C186.265 56.9739 189.142 59.2357 190.08 59.6963C191.106 60.2007 197.515 63.1401 197.129 64.2431C196.974 64.69 195.858 64.8448 194.498 64.8448C192.503 64.8448 189.981 64.5128 189.189 64.2878C189.092 64.2598 189.019 64.2471 188.964 64.2471C188.261 64.2471 190.798 66.3948 191.556 67.8473C191.909 68.5217 192.355 68.746 192.885 68.746C193.584 68.746 194.429 68.3549 195.397 68.0891C197.096 67.6238 198.585 65.5983 200.272 65.1026C201.288 64.8049 202 64.7419 203.016 64.3979C211.519 77.8763 216.457 93.947 216.457 111.202C216.457 114.067 216.32 116.902 216.054 119.696C216 119.696 215.947 119.696 215.895 119.696C215.142 119.696 214.521 119.64 214.161 119.462C212.602 118.693 212.357 117.84 210.231 117.84C210.192 117.84 210.153 117.84 210.113 117.841C210.104 117.841 210.095 117.841 210.086 117.841C207.866 117.841 206.171 113.866 205.613 113.814C205.599 113.813 205.585 113.813 205.571 113.813C204.991 113.813 203.771 114.845 204.238 116.104C204.717 117.395 207.599 121.198 208.618 121.24C208.635 121.241 208.652 121.241 208.669 121.241C209.677 121.241 210.881 120.023 211.245 119.457C211.292 119.382 211.346 119.348 211.407 119.348C211.812 119.348 212.517 120.854 213.73 121.415C215.124 122.06 214.454 124.724 213.151 126.261C211.849 127.798 202.422 132.355 201.319 132.55C201.211 132.569 201.103 132.579 200.994 132.579C200 132.579 199.021 131.76 198.352 129.912C197.609 127.863 195.682 124.431 194.725 122.809C193.773 121.194 190.821 115.905 189.639 115.905C189.633 115.905 189.627 115.905 189.621 115.905C188.45 115.958 190.764 120.26 190.742 121.711C190.717 123.162 193.898 128.247 194.762 129.224C195.624 130.2 197.26 135.359 200.063 135.614C200.506 135.654 200.907 135.67 201.277 135.67C203.242 135.67 204.268 135.187 205.511 135.099C205.538 135.097 205.564 135.097 205.588 135.097C206.93 135.097 205.344 137.856 204.56 139.958C203.762 142.098 197.515 146.551 195.987 149.323C194.459 152.094 195.732 156.278 195.978 159.468C196.222 162.658 192.693 164.69 191.649 165.868C190.604 167.046 191.556 170.712 189.621 172.123C188.024 173.288 185.977 176.622 184.338 179.016C182.037 180.873 179.645 182.605 177.161 184.21C176.588 184.361 176.048 184.444 175.576 184.444Z" fill="#6CC3BB"/>
<path d="M152.343 90.0591C152.123 90.0591 151.917 90.0304 151.726 89.9689C150.759 89.6568 152.337 84.2146 151.375 82.7804C150.413 81.3454 149.791 80.3972 149.733 79.3245C149.69 78.5536 151.487 77.8345 152.777 77.8345C153.279 77.8345 153.705 77.9438 153.916 78.2008C154.667 79.1194 154.427 80.92 154.89 82.2759C155.354 83.6303 157.737 85.051 157.635 86.3591C157.543 87.5411 154.407 90.0591 152.343 90.0591Z" fill="#6CC3BB"/>
<path d="M147.556 88.4814C147.271 88.4814 146.977 88.408 146.685 88.242C144.75 87.143 147.5 82.2283 148.876 82.1756C148.897 82.1748 148.918 82.174 148.938 82.174C150.248 82.174 150.15 83.8213 150.132 85.4335C150.118 86.7871 148.927 88.4822 147.556 88.4814Z" fill="#6CC3BB"/>
<path d="M145.906 210.435C138.798 210.435 132.984 216.116 132.532 223.298L132.5 223.292L132.468 223.298C132.016 216.116 126.202 210.435 119.095 210.435C111.691 210.435 105.688 216.598 105.688 224.2C105.688 227.145 106.593 229.873 108.128 232.114C108.128 232.114 113.41 240.957 132.5 255.468C151.588 240.957 156.872 232.114 156.872 232.114C158.407 229.873 159.311 227.145 159.311 224.2C159.311 216.598 153.309 210.435 145.906 210.435Z" fill="#86EAC6"/>
<path d="M142.998 246.911H132.5V223.292L132.532 223.298C132.984 216.115 138.798 210.435 145.906 210.435C153.309 210.435 159.311 216.597 159.311 224.199C159.311 227.144 158.407 229.873 156.872 232.113C156.872 232.113 153.619 237.557 142.998 246.911Z" fill="#6CC3BB"/>
<path d="M159.878 290.955C159.355 293.981 156.479 296.457 153.487 296.457H110.113C107.12 296.457 104.282 293.974 103.806 290.941L97.7637 252.427C97.2879 249.393 99.347 246.911 102.34 246.911H162.037C165.03 246.911 167.051 249.386 166.528 252.411L159.878 290.955Z" fill="#1391F5"/>
<path d="M153.487 296.457H132.5V246.911H162.037C164.714 246.911 166.614 248.892 166.611 251.475C166.611 251.779 166.583 252.093 166.528 252.411L159.878 290.955C159.355 293.981 156.479 296.457 153.487 296.457Z" fill="#107CE1"/>
<path d="M261.323 162.109C260.849 153.068 253.58 145.882 244.657 145.882C243.595 145.882 242.559 145.994 241.552 146.189C241.558 145.954 241.569 145.718 241.569 145.481C241.569 131.304 230.375 119.809 216.565 119.809C202.757 119.809 191.562 131.304 191.562 145.481C191.562 147.535 191.804 149.531 192.248 151.447C191.429 151.294 190.589 151.202 189.727 151.202C183.139 151.202 177.62 155.842 176.061 162.109H261.323Z" fill="white"/>
<path d="M98.9191 139.924C97.314 135.235 92.9751 131.868 87.8604 131.868C86.4884 131.868 85.1779 132.122 83.9544 132.566C82.8156 122.994 74.8785 115.577 65.2469 115.577C61.5609 115.577 58.1252 116.668 55.2196 118.547C51.7124 111.348 44.4686 106.403 36.0963 106.403C24.2913 106.403 14.7203 116.23 14.7203 128.351C14.7203 128.619 14.731 128.884 14.7401 129.149H14.7203C8.12751 129.149 2.58397 133.711 0.886719 139.924H98.9191Z" fill="white"/>
<path d="M200.361 42.915C199.901 38.4943 196.26 35.0513 191.833 35.0513C189.971 35.0513 188.252 35.6674 186.845 36.7026C186.901 36.1072 186.931 35.5046 186.931 34.8941C186.931 24.557 178.771 16.1785 168.704 16.1785C158.636 16.1785 150.476 24.557 150.476 34.8941C150.476 35.072 150.485 35.2484 150.489 35.4248C149.708 35.1846 148.882 35.0513 148.025 35.0513C143.598 35.0513 139.957 38.4943 139.498 42.915H200.361Z" fill="white"/>
<path d="M131.544 12.9971C126.034 8.8094 124.509 6.25704 124.509 6.25704C124.066 5.61058 123.805 4.82363 123.805 3.97285C123.805 1.77885 125.537 -0.000108719 127.675 -0.000108719C129.727 -0.000108719 131.404 1.6392 131.533 3.71269L131.544 3.71109L131.552 3.71269C131.684 1.6392 133.361 -0.000108719 135.413 -0.000108719C137.551 -0.000108719 139.283 1.77885 139.283 3.97285C139.283 4.82363 139.022 5.61058 138.577 6.25704C138.577 6.25704 137.052 8.8094 131.544 12.9971Z" fill="#A6DFF2"/>
<path d="M245.39 104.119C234.496 95.8383 231.481 90.7911 231.481 90.7911C230.606 89.5133 230.09 87.957 230.09 86.2754C230.09 81.9377 233.515 78.4204 237.741 78.4204C241.798 78.4204 245.114 81.6615 245.37 85.7614L245.39 85.7574L245.408 85.7614C245.668 81.6615 248.983 78.4204 253.041 78.4204C257.267 78.4204 260.692 81.9377 260.692 86.2754C260.692 87.957 260.176 89.5133 259.297 90.7911C259.297 90.7911 256.282 95.8383 245.39 104.119Z" fill="#A6DFF2"/>
<path d="M257.26 140.959C251.75 136.772 250.225 134.219 250.225 134.219C249.783 133.572 249.521 132.785 249.521 131.934C249.521 129.74 251.253 127.962 253.391 127.962C255.443 127.962 257.12 129.601 257.249 131.674L257.26 131.673L257.269 131.674C257.4 129.601 259.078 127.962 261.129 127.962C263.267 127.962 264.999 129.74 264.999 131.934C264.999 132.785 264.738 133.572 264.293 134.219C264.293 134.219 262.769 136.772 257.26 140.959Z" fill="#A6DFF2"/>
<path d="M221.087 267.938C215.576 263.75 214.051 261.196 214.051 261.196C213.609 260.552 213.348 259.764 213.348 258.913C213.348 256.72 215.079 254.94 217.217 254.94C219.269 254.94 220.946 256.579 221.076 258.653L221.087 258.651L221.095 258.653C221.226 256.579 222.904 254.94 224.955 254.94C227.093 254.94 228.825 256.72 228.825 258.913C228.825 259.764 228.564 260.552 228.12 261.196C228.12 261.196 226.595 263.75 221.087 267.938Z" fill="#A6DFF2"/>
<path d="M210.94 213.012C206.103 209.335 204.764 207.093 204.764 207.093C204.374 206.526 204.146 205.835 204.146 205.089C204.146 203.161 205.668 201.599 207.544 201.599C209.344 201.599 210.819 203.039 210.932 204.86L210.94 204.858L210.949 204.86C211.063 203.039 212.538 201.599 214.338 201.599C216.214 201.599 217.735 203.161 217.735 205.089C217.735 205.835 217.506 206.526 217.117 207.093C217.117 207.093 215.779 209.335 210.94 213.012Z" fill="#7CC9F3"/>
<path d="M249.521 197.418C246.316 194.981 245.429 193.496 245.429 193.496C245.171 193.12 245.02 192.662 245.02 192.167C245.02 190.891 246.028 189.858 247.271 189.858C248.465 189.858 249.44 190.81 249.516 192.017L249.521 192.016L249.527 192.017C249.603 190.81 250.579 189.858 251.772 189.858C253.016 189.858 254.024 190.891 254.024 192.167C254.024 192.662 253.872 193.12 253.613 193.496C253.613 193.496 252.726 194.981 249.521 197.418Z" fill="#7CC9F3"/>
<path d="M199.403 25.4668C194.565 21.7899 193.225 19.5481 193.225 19.5481C192.837 18.9806 192.607 18.2894 192.607 17.5424C192.607 15.6158 194.129 14.0539 196.005 14.0539C197.808 14.0539 199.28 15.4937 199.393 17.3141L199.403 17.3125L199.41 17.3141C199.525 15.4937 200.998 14.0539 202.8 14.0539C204.677 14.0539 206.198 15.6158 206.198 17.5424C206.198 18.2894 205.969 18.9806 205.579 19.5481C205.579 19.5481 204.24 21.7899 199.403 25.4668Z" fill="#7CC9F3"/>
<path d="M225.587 60.9624C222.383 58.5258 221.496 57.0405 221.496 57.0405C221.238 56.6646 221.086 56.2065 221.086 55.7109C221.086 54.4355 222.094 53.4011 223.335 53.4011C224.53 53.4011 225.506 54.3541 225.581 55.5608L225.587 55.56L225.594 55.5608C225.669 54.3541 226.644 53.4011 227.838 53.4011C229.082 53.4011 230.089 54.4355 230.089 55.7109C230.089 56.2065 229.937 56.6646 229.678 57.0405C229.678 57.0405 228.792 58.5258 225.587 60.9624Z" fill="#7CC9F3"/>
<path d="M16.3727 104.119C5.48171 95.8383 2.46661 90.7911 2.46661 90.7911C1.58817 89.5133 1.07227 87.957 1.07227 86.2754C1.07227 81.9377 4.49732 78.4204 8.72239 78.4204C12.7802 78.4204 16.096 81.6615 16.3556 85.7614L16.3727 85.7574L16.3937 85.7614C16.6502 81.6615 19.9662 78.4204 24.023 78.4204C28.2492 78.4204 31.6741 81.9377 31.6741 86.2754C31.6741 87.957 31.1579 89.5133 30.2827 90.7911C30.2827 90.7911 27.2675 95.8383 16.3727 104.119Z" fill="#A6DFF2"/>
<path d="M7.73881 168.608C2.23026 164.419 0.705641 161.866 0.705641 161.866C0.261176 161.221 0 160.433 0 159.583C0 157.389 1.732 155.61 3.86991 155.61C5.92154 155.61 7.59913 157.249 7.73034 159.323L7.73881 159.321L7.74946 159.323C7.87912 157.249 9.55608 155.61 11.608 155.61C13.7453 155.61 15.4779 157.389 15.4779 159.583C15.4779 160.433 15.2168 161.221 14.7741 161.866C14.7741 161.866 13.2492 164.419 7.73881 168.608Z" fill="#A6DFF2"/>
<path d="M40.6764 267.938C35.1676 263.75 33.6433 261.196 33.6433 261.196C33.1987 260.552 32.9375 259.764 32.9375 258.913C32.9375 256.72 34.6701 254.94 36.8077 254.94C38.859 254.94 40.5365 256.579 40.6678 258.653L40.6764 258.651L40.6873 258.653C40.8171 256.579 42.4937 254.94 44.5458 254.94C46.6834 254.94 48.4153 256.72 48.4153 258.913C48.4153 259.764 48.1541 260.552 47.7118 261.196C47.7118 261.196 46.1867 263.75 40.6764 267.938Z" fill="#A6DFF2"/>
<path d="M47.589 195.564C42.7502 191.886 41.4109 189.645 41.4109 189.645C41.0223 189.078 40.793 188.387 40.793 187.64C40.793 185.713 42.3149 184.151 44.1914 184.151C45.9916 184.151 47.4662 185.591 47.5797 187.411L47.589 187.41L47.596 187.411C47.7102 185.591 49.184 184.151 50.9851 184.151C52.8615 184.151 54.3827 185.713 54.3827 187.64C54.3827 188.387 54.1549 189.078 53.7647 189.645C53.7647 189.645 52.4254 191.886 47.589 195.564Z" fill="#7CC9F3"/>
<path d="M16.743 218.126C13.538 215.689 12.6498 214.203 12.6498 214.203C12.392 213.828 12.2402 213.37 12.2402 212.874C12.2402 211.599 13.2483 210.565 14.4917 210.565C15.6846 210.565 16.6613 211.518 16.7367 212.724L16.743 212.724L16.7476 212.724C16.8238 211.518 17.7993 210.565 18.9933 210.565C20.2362 210.565 21.2443 211.599 21.2443 212.874C21.2443 213.37 21.0928 213.828 20.8347 214.203C20.8347 214.203 19.9478 215.689 16.743 218.126Z" fill="#7CC9F3"/>
<path d="M62.3585 25.4668C57.5213 21.7899 56.182 19.5481 56.182 19.5481C55.7918 18.9806 55.5625 18.2894 55.5625 17.5424C55.5625 15.6158 57.0845 14.0539 58.9609 14.0539C60.7627 14.0539 62.2349 15.4937 62.3507 17.3141L62.3585 17.3125L62.3671 17.3141C62.4813 15.4937 63.9536 14.0539 65.7561 14.0539C67.6326 14.0539 69.1537 15.6158 69.1537 17.5424C69.1537 18.2894 68.9244 18.9806 68.5358 19.5481C68.5358 19.5481 67.1965 21.7899 62.3585 25.4668Z" fill="#7CC9F3"/>
<path d="M36.1752 60.9624C32.9704 58.5258 32.0835 57.0405 32.0835 57.0405C31.8254 56.6646 31.6738 56.2065 31.6738 55.7109C31.6738 54.4355 32.6804 53.4011 33.9241 53.4011C35.1189 53.4011 36.0936 54.3541 36.169 55.5608L36.1752 55.56L36.1814 55.5608C36.2561 54.3541 37.2324 53.4011 38.4271 53.4011C39.6684 53.4011 40.6766 54.4355 40.6766 55.7109C40.6766 56.2065 40.525 56.6646 40.267 57.0405C40.267 57.0405 39.3801 58.5258 36.1752 60.9624Z" fill="#7CC9F3"/>
</svg>
