<svg width="45" height="45" viewBox="0 0 45 45" fill="none" xmlns="http://www.w3.org/2000/svg">
<rect x="0.5625" y="0.5625" width="43.875" height="43.875" rx="8.4375" stroke="#537EE4" stroke-width="1.125"/>
<path d="M21.6439 14.9001L16.778 12.4947C14.1528 11.2095 12 12.5166 12 15.3944V31.6945C12 32.9466 13.0435 33.9681 14.3176 33.9681H22.4677C23.0718 33.9681 23.5661 33.4739 23.5661 32.8698V17.9427C23.5661 16.7894 22.6983 15.4164 21.6439 14.9001ZM19.6887 24.9064H15.8773C15.427 24.9064 15.0535 24.533 15.0535 24.0826C15.0535 23.6323 15.427 23.2588 15.8773 23.2588H19.6887C20.1391 23.2588 20.5125 23.6323 20.5125 24.0826C20.5125 24.533 20.1501 24.9064 19.6887 24.9064ZM19.6887 20.5129H15.8773C15.427 20.5129 15.0535 20.1395 15.0535 19.6891C15.0535 19.2388 15.427 18.8653 15.8773 18.8653H19.6887C20.1391 18.8653 20.5125 19.2388 20.5125 19.6891C20.5125 20.1395 20.1501 20.5129 19.6887 20.5129Z" fill="#537EE4"/>
<path d="M34 29.6172V31.2208C34 32.7366 32.7698 33.9668 31.254 33.9668H26.2783C25.6852 33.9668 25.2129 33.4945 25.2129 32.9014V30.5289C26.3882 30.6716 27.6294 30.3311 28.519 29.6172C29.266 30.2213 30.2216 30.5838 31.265 30.5838C32.2865 30.5838 33.2421 30.2213 34 29.6172Z" fill="#537EE4"/>
<path d="M34 26.3346V26.3455C33.9121 27.7844 32.7369 28.9377 31.265 28.9377C29.7383 28.9377 28.519 27.6966 28.519 26.1918C28.519 27.8723 26.9703 29.2233 25.2129 28.8828V22.9845C25.2129 22.2815 25.8609 21.7543 26.5529 21.908L28.519 22.3474L29.0463 22.4682L31.287 22.9735C31.8252 23.0833 32.3195 23.27 32.7479 23.5446C32.7479 23.5556 32.7588 23.5556 32.7588 23.5556C32.8687 23.6325 32.9785 23.7204 33.0774 23.8192C33.5826 24.3245 33.9121 25.0604 33.989 26.1368C33.989 26.2028 34 26.2687 34 26.3346Z" fill="#537EE4"/>
</svg>
