<svg width="45" height="45" viewBox="0 0 45 45" fill="none" xmlns="http://www.w3.org/2000/svg">
<path fill-rule="evenodd" clip-rule="evenodd" d="M23 12C20.9367 12 19.2037 12.1091 17.7751 12.4266C16.334 12.7469 15.1363 13.2936 14.2149 14.2149C13.2936 15.1363 12.7469 16.334 12.4266 17.7751C12.1091 19.2037 12 20.9367 12 23C12 25.0633 12.1091 26.7963 12.4266 28.2249C12.7469 29.666 13.2936 30.8637 14.2149 31.785C15.1363 32.7064 16.334 33.2531 17.7751 33.5734C19.2037 33.8909 20.9367 34 23 34C25.0633 34 26.7963 33.8909 28.2249 33.5734C29.666 33.2531 30.8637 32.7064 31.785 31.785C32.7064 30.8637 33.2531 29.666 33.5734 28.2249C33.8909 26.7963 34 25.0633 34 23C34 20.9367 33.8909 19.2037 33.5734 17.7751C33.2531 16.334 32.7064 15.1363 31.785 14.2149C30.8637 13.2936 29.666 12.7469 28.2249 12.4266C26.7963 12.1091 25.0633 12 23 12ZM23 16.4C23.6075 16.4 24.1 16.8925 24.1 17.5V17.6044C24.7544 17.7335 25.2787 17.9666 25.6793 18.214C25.9777 18.3983 26.2019 18.5868 26.358 18.7379C26.4899 18.8657 26.5636 18.9505 26.6339 19.0452L26.6346 19.0462C26.9958 19.5347 26.8924 20.2235 26.4038 20.5846C25.9218 20.9409 25.2441 20.8442 24.8794 20.3723C24.8508 20.3393 24.62 20.0729 24.1 19.8814V22.0115C25.8549 22.3832 26.9875 23.6445 26.9875 25.2C26.9875 26.7555 25.8549 28.0168 24.1 28.3885V28.5C24.1 29.1075 23.6075 29.6 23 29.6C22.3925 29.6 21.9 29.1075 21.9 28.5V28.3736C21.322 28.2398 20.8347 28.0189 20.4605 27.805C20.1081 27.6037 19.7607 27.3659 19.4722 27.0778C19.0426 26.6483 19.0426 25.9517 19.4722 25.5222C19.8997 25.0946 20.5916 25.0926 21.0217 25.516C21.0409 25.5343 21.3979 25.8545 21.9 26.0679V23.9885C20.1451 23.6168 19.0125 22.3555 19.0125 20.8C19.0125 19.2445 20.1451 17.9832 21.9 17.6115V17.5C21.9 16.8925 22.3925 16.4 23 16.4Z" fill="#537EE4"/>
<rect x="0.5625" y="0.5625" width="43.875" height="43.875" rx="8.4375" stroke="#537EE4" stroke-width="1.125"/>
<path fill-rule="evenodd" clip-rule="evenodd" d="M24.2373 24.3704C24.1746 24.334 24.0996 24.3819 24.0996 24.4545V25.9458C24.0996 26.0184 24.1746 26.0664 24.2373 26.0298C24.6716 25.7774 24.787 25.4091 24.787 25.2001C24.787 24.9912 24.6716 24.6228 24.2373 24.3704Z" fill="#537EE4"/>
<path fill-rule="evenodd" clip-rule="evenodd" d="M21.9004 20.074C21.9004 19.9924 21.816 19.9384 21.7461 19.9804C21.3254 20.2325 21.2129 20.5941 21.2129 20.8003C21.2129 21.0066 21.3254 21.3681 21.7461 21.6203C21.816 21.6622 21.9004 21.6083 21.9004 21.5267V20.074Z" fill="#537EE4"/>
</svg>
