<svg width="45" height="45" viewBox="0 0 45 45" fill="none" xmlns="http://www.w3.org/2000/svg">
<rect width="45" height="45" rx="9" fill="#537EE4"/>
<path d="M18.7169 30.3823C15.628 27.8688 12 24.9166 12 19.7989C12 14.1493 18.0502 10.1427 23 15.5742L25.2 17.8961C25.5222 18.2363 26.0446 18.2362 26.3668 17.8959C26.6889 17.5556 26.6887 17.0039 26.3666 16.6637L24.2414 14.4199C28.9053 10.8138 34 14.6146 34 19.7989C34 24.9166 30.372 27.8688 27.2831 30.3823C26.9621 30.6436 26.6468 30.9001 26.3421 31.1538C25.2 32.1047 24.1 33 23 33C21.9 33 20.8 32.1047 19.6579 31.1538C19.3532 30.9001 19.038 30.6436 18.7169 30.3823Z" fill="white"/>
</svg>
