<svg width="18" height="17" viewBox="0 0 18 17" fill="none" xmlns="http://www.w3.org/2000/svg">
<g id="SVGRepo_iconCarrier">
<path id="Vector" d="M1.26607 0.765584C1.55908 0.472661 1.95644 0.308105 2.37076 0.308105C2.78508 0.308105 3.18244 0.472661 3.47545 0.765584L9.00045 6.29058L14.5254 0.765584C14.8201 0.480962 15.2148 0.323471 15.6245 0.327031C16.0342 0.330591 16.4261 0.494918 16.7158 0.784618C17.0055 1.07432 17.1698 1.46621 17.1734 1.8759C17.1769 2.28558 17.0194 2.68027 16.7348 2.97496L11.2098 8.49996L16.7348 14.025C17.0194 14.3197 17.1769 14.7143 17.1734 15.124C17.1698 15.5337 17.0055 15.9256 16.7158 16.2153C16.4261 16.505 16.0342 16.6693 15.6245 16.6729C15.2148 16.6764 14.8201 16.519 14.5254 16.2343L9.00045 10.7093L3.47545 16.2343C3.18076 16.519 2.78607 16.6764 2.37638 16.6729C1.9667 16.6693 1.57481 16.505 1.28511 16.2153C0.995406 15.9256 0.831079 15.5337 0.827519 15.124C0.823959 14.7143 0.98145 14.3197 1.26607 14.025L6.79107 8.49996L1.26607 2.97496C0.973149 2.68195 0.808594 2.28459 0.808594 1.87027C0.808594 1.45595 0.973149 1.0586 1.26607 0.765584Z" fill="black"/>
</g>
</svg>
