<svg width="25" height="22" viewBox="0 0 25 22" fill="none" xmlns="http://www.w3.org/2000/svg">
<g id="users-Filled">
<path id="users-Filled_2" d="M24.5417 18.2643V18.9231C24.5439 19.8722 24.2201 20.7932 23.6247 21.5322C23.5083 21.6713 23.3616 21.782 23.196 21.8559C23.0304 21.9297 22.8501 21.9648 22.6688 21.9585H19.2072C19.7401 21.0357 20.0208 19.9888 20.0209 18.9231V18.2643C20.0267 16.465 19.3691 14.7268 18.1738 13.3818C18.2591 13.3509 18.3413 13.312 18.4192 13.2656C19.0373 12.9241 19.7611 12.8273 20.4472 12.9943C21.6193 13.2908 22.6589 13.9704 23.4007 14.9252C24.1425 15.88 24.5441 17.0552 24.5417 18.2643ZM15.5001 0.000161114C15.096 -0.00299913 14.693 0.0403413 14.2988 0.129328C15.0846 0.852852 15.7119 1.73147 16.1409 2.7097C16.5699 3.68792 16.7915 4.74449 16.7915 5.81266C16.7915 6.88083 16.5699 7.9374 16.1409 8.91563C15.7119 9.89385 15.0846 10.7725 14.2988 11.496C14.693 11.585 15.096 11.6283 15.5001 11.6252C17.0416 11.6252 18.5201 11.0128 19.6101 9.92272C20.7002 8.83266 21.3126 7.35423 21.3126 5.81266C21.3126 4.27109 20.7002 2.79266 19.6101 1.7026C18.5201 0.612548 17.0416 0.000161114 15.5001 0.000161114ZM9.04174 0.000161114C7.89214 0.000161114 6.76835 0.341058 5.81249 0.979744C4.85663 1.61843 4.11162 2.52622 3.67169 3.58831C3.23176 4.65041 3.11665 5.81911 3.34093 6.94662C3.5652 8.07414 4.11879 9.10983 4.93168 9.92272C5.74457 10.7356 6.78026 11.2892 7.90778 11.5135C9.03529 11.7378 10.204 11.6226 11.2661 11.1827C12.3282 10.7428 13.236 9.99777 13.8747 9.04191C14.5133 8.08605 14.8542 6.96227 14.8542 5.81266C14.8518 4.27183 14.2387 2.79478 13.1492 1.70524C12.0596 0.615707 10.5826 0.0025524 9.04174 0.000161114ZM13.9888 12.9943C13.7642 12.9431 13.5346 12.9171 13.3042 12.9168C12.8336 12.9127 12.3701 13.033 11.9609 13.2656C11.0682 13.7466 10.0704 13.9995 9.05628 14.0018C8.04219 14.004 7.04327 13.7556 6.14841 13.2785C5.72504 13.0447 5.24996 12.9203 4.76632 12.9168C4.56661 12.9185 4.36756 12.9401 4.17216 12.9814C2.98089 13.2587 1.9192 13.9325 1.16115 14.8924C0.403105 15.8523 -0.00629672 17.0412 7.32245e-05 18.2643V18.9231C-0.00206155 19.8722 0.321675 20.7932 0.917157 21.5322C1.03356 21.6713 1.18017 21.782 1.3458 21.8559C1.51144 21.9297 1.69174 21.9648 1.87299 21.9585H16.2105C16.3917 21.9648 16.572 21.9297 16.7377 21.8559C16.9033 21.782 17.0499 21.6713 17.1663 21.5322C17.7618 20.7932 18.0855 19.8722 18.0834 18.9231V18.2643C18.0858 17.0552 17.6842 15.88 16.9423 14.9252C16.2005 13.9704 15.161 13.2908 13.9888 12.9943Z" fill="#537EE4"/>
</g>
</svg>
