<svg width="24" height="24" viewBox="0 0 24 24" fill="none" xmlns="http://www.w3.org/2000/svg">
<g id="SVGRepo_iconCarrier">
<path id="Vector" d="M16.0458 0.70265C18.531 1.59267 20.6534 3.27728 22.0842 5.49558C23.5149 7.71387 24.1744 10.3421 23.9604 12.9731C23.7464 15.604 22.6707 18.0911 20.9001 20.049C19.1295 22.0068 16.7628 23.3262 14.1664 23.8027C11.5701 24.2794 8.88909 23.8866 6.53859 22.6852C4.18809 21.4839 2.2993 19.5411 1.16476 17.1576C0.808705 16.4095 1.12644 15.5145 1.87444 15.1585C2.62246 14.8024 3.51749 15.1202 3.87354 15.8682C4.72444 17.6558 6.14103 19.113 7.9039 20.0139C9.66678 20.9149 11.6776 21.2095 13.6248 20.8521C15.5721 20.4946 17.347 19.5051 18.675 18.0368C20.0029 16.5684 20.8097 14.7031 20.9701 12.7298C21.1308 10.7565 20.6361 8.78541 19.563 7.12169C18.4899 5.45796 16.8982 4.1945 15.0343 3.527C13.1705 2.85948 11.1385 2.82516 9.2532 3.42936C8.01966 3.82467 6.89394 4.4789 5.94689 5.33955L7.04669 6.43937C7.99164 7.38431 7.32238 9.00003 5.98603 9.00003H0V3.014C0 1.67763 1.61571 1.00839 2.56067 1.95333L3.82374 3.21642C5.10806 2.02095 6.64689 1.11432 8.33763 0.572484C10.8514 -0.233116 13.5607 -0.187366 16.0458 0.70265ZM12 6C12.8284 6 13.5 6.67158 13.5 7.5V11.3787L16.0606 13.9393C16.6464 14.5251 16.6464 15.4749 16.0606 16.0606C15.4749 16.6464 14.5251 16.6464 13.9393 16.0606L10.5 12.6213V7.5C10.5 6.67158 11.1716 6 12 6Z" fill="#D1D4D7"/>
</g>
</svg>
