<svg width="25" height="24" viewBox="0 0 25 24" fill="none" xmlns="http://www.w3.org/2000/svg">
<path fill-rule="evenodd" clip-rule="evenodd" d="M7.44258 23.6673H17.5536C21.509 23.6673 24.1654 20.8929 24.1654 16.7645V7.23683C24.1654 3.10845 21.509 0.333984 17.5548 0.333984H7.44258C3.48841 0.333984 0.832031 3.10845 0.832031 7.23683V16.7645C0.832031 20.8929 3.48841 23.6673 7.44258 23.6673ZM8.41338 10.834C6.80496 10.834 5.49805 9.52536 5.49805 7.91738C5.49805 6.3094 6.80496 5.00071 8.41338 5.00071C10.0206 5.00071 11.3287 6.3094 11.3287 7.91738C11.3287 9.52536 10.0206 10.834 8.41338 10.834ZM21.6224 15.4237C22.0131 16.4254 21.8102 17.6294 21.3925 18.6215C20.8974 19.8014 19.9495 20.6947 18.7552 21.0848C18.2249 21.2582 17.6689 21.3341 17.1139 21.3341H7.28159C6.30316 21.3341 5.43736 21.0993 4.72759 20.6622C4.28296 20.3877 4.20435 19.7544 4.53401 19.3439C5.08541 18.6576 5.62976 17.9689 6.1788 17.2742C7.22527 15.945 7.93035 15.5597 8.71403 15.898C9.03196 16.0377 9.35106 16.2472 9.67955 16.4687C10.5547 17.0635 11.7713 17.881 13.3739 16.9937C14.4705 16.3794 15.1066 15.3259 15.6605 14.4084L15.6698 14.393C15.709 14.3287 15.7479 14.2643 15.7867 14.2001L15.7867 14.2001C15.9729 13.8921 16.1565 13.5882 16.3643 13.3083C16.6247 12.9579 17.5903 11.8623 18.8409 12.6424C19.6374 13.1337 20.3073 13.7983 21.0241 14.5098C21.2975 14.7819 21.4922 15.0914 21.6224 15.4237Z" fill="#9E9E9E"/>
</svg>
