<svg width="25" height="23" viewBox="0 0 25 23" fill="none" xmlns="http://www.w3.org/2000/svg">
<g id="SVGRepo_iconCarrier">
<path id="Vector" d="M11.8546 11.5H3.99918M3.77652 12.5297L2.47871 16.4065C1.7679 18.5297 1.4125 19.5914 1.66755 20.2451C1.88904 20.8129 2.36474 21.2433 2.95174 21.4072C3.62768 21.5958 4.64862 21.1363 6.69048 20.2176L19.7807 14.3269C21.7738 13.43 22.7703 12.9816 23.0782 12.3587C23.3459 11.8175 23.3459 11.1824 23.0782 10.6412C22.7703 10.0183 21.7738 9.56984 19.7807 8.67297L6.66791 2.77223C4.63219 1.85616 3.61434 1.39813 2.93907 1.58602C2.35263 1.7492 1.87697 2.17849 1.65472 2.74518C1.39878 3.39772 1.75039 4.45705 2.45361 6.57572L3.77904 10.5691C3.89981 10.9329 3.96021 11.1149 3.98404 11.3009C4.0052 11.4661 4.00498 11.6333 3.98341 11.7984C3.95909 11.9844 3.89824 12.1661 3.77652 12.5297Z" stroke="#51585E" stroke-width="2.58333" stroke-linecap="round" stroke-linejoin="round"/>
</g>
</svg>
