<svg width="35" height="35" viewBox="0 0 35 35" fill="none" xmlns="http://www.w3.org/2000/svg">
<rect x="0.4375" y="0.4375" width="34.125" height="34.125" rx="6.5625" stroke="#537EE4" stroke-width="0.875"/>
<path d="M25.6669 19.4462V17.8906C25.6669 17.2381 25.6669 16.6581 25.6569 16.1406H10.1214C10.1113 16.6581 10.1113 17.2381 10.1113 17.8906V19.4462C10.1113 22.3793 10.1113 23.846 11.0225 24.7572C11.9338 25.6684 13.4004 25.6684 16.3336 25.6684H19.4447C22.3778 25.6684 23.8445 25.6684 24.7556 24.7572C25.6669 23.846 25.6669 22.3793 25.6669 19.4462Z" fill="#537EE4"/>
<path d="M14.5844 10.5013C14.5844 10.1791 14.3232 9.91797 14.0011 9.91797C13.6789 9.91797 13.4177 10.1791 13.4177 10.5013V11.7296C12.2983 11.8193 11.5633 12.0393 11.0234 12.5792C10.4835 13.1191 10.2635 13.854 10.1738 14.9735H25.6061C25.5165 13.854 25.2964 13.1191 24.7565 12.5792C24.2166 12.0393 23.4816 11.8193 22.3622 11.7296V10.5013C22.3622 10.1791 22.101 9.91797 21.7788 9.91797C21.4567 9.91797 21.1955 10.1791 21.1955 10.5013V11.678C20.6781 11.668 20.0981 11.668 19.4455 11.668H16.3344C15.6818 11.668 15.1018 11.668 14.5844 11.678V10.5013Z" fill="#537EE4"/>
</svg>
