<svg width="13" height="13" viewBox="0 0 13 13" fill="none" xmlns="http://www.w3.org/2000/svg">
<g clip-path="url(#clip0_121_3692)">
<path d="M6.5 0C4.99789 0 3.61969 0.514109 2.51834 1.36947L1.41862 0.26975C1.10134 -0.0475313 0.564891 -0.0706875 0.247609 0.247609C-0.0696719 0.564891 -0.0475313 1.10134 0.26975 1.41883L1.36947 2.51855C0.514109 3.61969 0 4.99789 0 6.5C0 10.0896 2.91037 13 6.5 13C10.0896 13 13 10.0896 13 6.5C13 2.91037 10.0896 0 6.5 0ZM6.5 9.75C4.70519 9.75 3.25 8.29481 3.25 6.5C3.25 5.89855 3.42448 5.34158 3.70947 4.85916L4.93533 6.0842C4.89958 6.21745 4.875 6.35558 4.875 6.5C4.875 7.39741 5.60259 8.125 6.5 8.125C7.39741 8.125 8.125 7.39741 8.125 6.5C8.125 5.60259 7.39741 4.875 6.5 4.875C6.35558 4.875 6.21745 4.90039 6.0842 4.93533L4.85834 3.71028C5.34158 3.42448 5.89855 3.25 6.5 3.25C8.29481 3.25 9.75 4.70519 9.75 6.5C9.75 8.29481 8.29481 9.75 6.5 9.75Z" fill="#D1D4D7"/>
</g>
<defs>
<clipPath id="clip0_121_3692">
<rect width="13" height="13" fill="white"/>
</clipPath>
</defs>
</svg>
