<svg width="22" height="18" viewBox="0 0 22 18" fill="none" xmlns="http://www.w3.org/2000/svg">
<g id="SVGRepo_iconCarrier">
<path id="Vector" fill-rule="evenodd" clip-rule="evenodd" d="M3.41602 5.7915C3.41602 3.09912 5.59863 0.916504 8.29102 0.916504C10.9834 0.916504 13.166 3.09912 13.166 5.7915C13.166 8.48391 10.9834 10.6665 8.29102 10.6665C5.59863 10.6665 3.41602 8.48391 3.41602 5.7915Z" fill="#537EE4"/>
<path id="Vector_2" d="M13.5653 8.56847C13.516 8.66185 13.5369 8.77831 13.6217 8.84114C14.2518 9.30752 15.0315 9.58333 15.8755 9.58333C17.9696 9.58333 19.6672 7.88575 19.6672 5.79167C19.6672 3.69758 17.9696 2 15.8755 2C15.0315 2 14.2518 2.27582 13.6217 2.74222C13.5369 2.80506 13.516 2.92146 13.5653 3.01486C14.0029 3.84404 14.2505 4.78893 14.2505 5.79167C14.2505 6.7944 14.0029 7.73928 13.5653 8.56847Z" fill="#537EE4"/>
<path id="Vector_3" fill-rule="evenodd" clip-rule="evenodd" d="M3.0282 12.5076C4.36326 11.9281 6.11494 11.75 8.2919 11.75C10.4708 11.75 12.2237 11.9284 13.5592 12.5092C15.014 13.1418 15.8983 14.2192 16.3617 15.7406C16.5789 16.4536 16.0433 17.1667 15.3052 17.1667H1.28063C0.541666 17.1667 0.00493965 16.4525 0.22282 15.7382C0.686887 14.2166 1.57245 13.1395 3.0282 12.5076Z" fill="#537EE4"/>
<path id="Vector_4" d="M14.0542 10.7058C13.6057 10.7336 13.5793 11.3362 13.9914 11.5153C15.1207 12.0064 15.971 12.7293 16.5808 13.652C17.0812 14.4091 17.8583 14.9997 18.7658 14.9997H20.6948C21.4609 14.9997 22.0199 14.2384 21.7504 13.4947C21.7349 13.4519 21.7188 13.4094 21.7021 13.3673C21.3311 12.4306 20.6953 11.7411 19.7539 11.3016C18.87 10.889 17.7635 10.7187 16.4599 10.6672L16.4385 10.6663H16.4171C15.6493 10.6663 14.8473 10.6565 14.0542 10.7058Z" fill="#537EE4"/>
</g>
</svg>
